<svg width="66" height="28" viewBox="0 0 66 28" fill="none" xmlns="http://www.w3.org/2000/svg">
<mask id="path-1-outside-1_99_221" maskUnits="userSpaceOnUse" x="0.800171" y="-0.0531006" width="65" height="28" fill="black">
<rect fill="white" x="0.800171" y="-0.0531006" width="65" height="28"/>
<path fill-rule="evenodd" clip-rule="evenodd" d="M16.7986 26.194C16.7211 25.8875 16.6692 25.5752 16.6433 25.2601C16.6315 22.2561 16.6302 19.2521 16.6394 16.2481C16.624 14.6867 17.0681 13.1552 17.9166 11.8443C18.0293 11.6713 18.1244 11.4865 18.2443 11.2741C17.8204 11.0864 17.3821 10.933 16.9336 10.8154C16.043 10.6536 16.0889 10.0107 16.1617 9.39008C16.17 9.25511 16.2061 9.12333 16.2676 9.00294C16.3292 8.88255 16.4149 8.77618 16.5195 8.69043C16.6241 8.60469 16.7452 8.54144 16.8753 8.50464C17.0054 8.46785 17.1417 8.45828 17.2757 8.47656C17.899 8.44988 18.5233 8.45537 19.146 8.49296C19.4339 8.5352 19.7276 8.48046 19.9809 8.33737C20.2342 8.19428 20.4327 7.97098 20.5451 7.70264C21.3971 6.28059 22.2903 4.88474 23.1534 3.47054C23.3902 3.03488 23.7469 2.67622 24.1813 2.43707C24.6156 2.19793 25.1095 2.08832 25.6043 2.12121C30.4886 2.16271 35.373 2.16271 40.2574 2.12121C40.7523 2.0929 41.2451 2.20474 41.6794 2.44387C42.1136 2.68301 42.4716 3.03975 42.7122 3.47314C43.6775 5.01054 44.6349 6.55319 45.6278 8.07355C45.7087 8.18048 45.8105 8.26993 45.9269 8.33649C46.0434 8.40305 46.1721 8.44534 46.3054 8.46085C47.0616 8.51065 47.8238 8.48377 48.5833 8.47852C48.7172 8.45966 48.8536 8.46864 48.9839 8.50488C49.1142 8.54113 49.2356 8.60388 49.3405 8.68919C49.4454 8.77451 49.5316 8.88055 49.5937 9.0007C49.6558 9.12085 49.6924 9.25253 49.7013 9.38748C49.7747 10.012 49.7747 10.6405 48.9306 10.8292C48.476 10.9566 48.029 11.1098 47.5918 11.2879C48.4783 12.5408 49.0158 14.0068 49.1495 15.5358C49.1704 15.7487 49.2242 15.9604 49.2242 16.1727C49.2294 19.2851 49.2294 22.3974 49.2242 25.5098C49.1972 25.743 49.1444 25.9724 49.0669 26.194H44.015C43.9324 25.3495 43.8501 24.503 43.7679 23.6546H22.097C22.0105 24.5452 21.9305 25.3696 21.8505 26.194H16.7986ZM32.8876 11.2407H44.9384C45.4456 11.2407 45.9023 11.1994 45.4803 10.5199C44.1605 8.38699 42.8376 6.25588 41.5117 4.12651C41.3774 3.89436 41.18 3.70516 40.9424 3.5809C40.7048 3.45663 40.4368 3.40245 40.1696 3.42466C35.3385 3.45175 30.5074 3.45175 25.6763 3.42466C25.3982 3.40676 25.1207 3.46959 24.8774 3.60561C24.6341 3.74163 24.4352 3.94504 24.3047 4.19138C23.0681 6.18816 21.8191 8.17707 20.5904 10.1784C20.4549 10.4505 20.3452 10.7346 20.2627 11.0271C20.5537 11.1298 20.8553 11.1995 21.1618 11.2348C25.0689 11.2453 28.9792 11.2407 32.8876 11.2407ZM47.2752 16.5391C47.2752 15.4519 47.2753 15.4348 46.1684 15.4702C45.2549 15.4997 44.3414 15.5594 43.4311 15.6347C42.6274 15.6823 41.8269 15.774 41.0333 15.9093C40.3458 16.0404 40.0503 16.7848 40.277 17.6728C40.4533 18.3694 41.0195 18.2501 41.5274 18.2003C43.0497 18.0522 44.5688 17.8635 46.0937 17.7534C47.2287 17.6747 47.2752 17.6708 47.2752 16.5391ZM18.5877 16.5109C18.5988 17.0659 18.4488 17.6819 19.3374 17.7501C21.0753 17.8844 22.8106 18.0693 24.5452 18.2252C25.0243 18.2685 25.4857 18.2475 25.5938 17.6289C25.7445 16.79 25.4785 16.0266 24.9267 15.9643C23.1704 15.7677 21.4089 15.5941 19.6447 15.4774C18.5916 15.4079 18.5883 15.463 18.5877 16.5109ZM1.80477 12.2152C2.11933 11.054 2.38539 9.877 2.75696 8.73411C3.66895 6.13485 5.26636 3.83034 7.38028 2.06421L8.49827 3.40826C6.93678 4.7264 5.68173 6.36938 4.8207 8.22258C3.95967 10.0758 3.51342 12.0945 3.51304 14.138C3.51267 16.1814 3.95818 18.2004 4.81854 20.0539C5.67889 21.9074 6.93335 23.5509 8.49435 24.8696L7.50612 26.194H7.17846C6.96547 25.9535 6.76689 25.6986 6.53753 25.4731C4.67743 23.7204 3.30639 21.5129 2.55969 19.0686C2.26873 18.0948 2.05116 17.1026 1.80017 16.1137V12.2126L1.80477 12.2152ZM58.3594 26.194C58.0318 25.7713 57.7113 25.3493 57.3719 24.9056C58.9407 23.5884 60.202 21.9435 61.0669 20.0867C61.9318 18.2298 62.3795 16.2059 62.3783 14.1575C62.3772 12.109 61.9274 10.0856 61.0604 8.2297C60.1934 6.37375 58.9304 4.73027 57.3601 3.41482L58.556 1.9469C59.5633 3.14287 60.5921 4.20317 61.431 5.39652C62.8222 7.36083 63.6791 9.65291 63.9179 12.0481C63.9513 12.1147 64.0006 12.1721 64.0614 12.2152V16.1164C63.9941 16.1881 63.9421 16.2728 63.9087 16.3654C63.7361 18.3611 63.0778 20.2842 61.9912 21.9671C60.9919 23.4462 59.7933 24.7903 58.6832 26.194H58.3555H58.3594ZM9.89608 5.03546L10.9793 6.37299C5.84158 11.3259 6.73612 18.0896 10.9649 21.8793C10.962 21.9291 10.9495 21.9778 10.9282 22.0228C9.73422 23.5668 9.98652 23.458 8.70798 22.0707C7.15745 20.388 6.1644 18.2675 5.86452 15.9991C5.23082 11.6339 6.69221 8.06962 9.89348 5.03546H9.89608ZM55.9387 5.07738C57.2585 6.19176 58.319 7.58096 59.046 9.14785C59.773 10.7147 60.1491 12.4215 60.1478 14.1488C60.1466 15.8762 59.7681 17.5824 59.0388 19.1483C58.3095 20.7141 57.247 22.1017 55.9256 23.2142L54.9131 22.0051C55.4662 21.3177 56.0225 20.6696 56.5304 19.9854C57.953 18.0025 58.6053 15.5696 58.3654 13.141C58.1255 10.7124 57.01 8.45413 55.227 6.78781C55.1598 6.6862 55.1187 6.56961 55.1073 6.44835C55.0959 6.32709 55.1144 6.20486 55.1614 6.09249C55.3885 5.73183 55.6473 5.39211 55.9347 5.07738H55.9387ZM13.5548 18.91L12.5108 20.1846C8.95895 17.6446 8.46222 11.3593 12.4715 8.11678L13.5246 9.38552C10.4256 12.5678 10.8929 16.4021 13.5522 18.91H13.5548ZM52.299 9.41764L53.3888 8.12402C56.9931 10.9282 57.3096 16.9552 53.415 20.2279L52.2852 18.8806C52.9724 18.3001 53.5241 17.5761 53.9015 16.7596C54.279 15.9431 54.4731 15.0538 54.4701 14.1543C54.4592 13.2569 54.2605 12.3717 53.8865 11.5559C53.5126 10.74 52.9717 10.0116 52.299 9.41764Z"/>
</mask>
<path fill-rule="evenodd" clip-rule="evenodd" d="M16.7986 26.194C16.7211 25.8875 16.6692 25.5752 16.6433 25.2601C16.6315 22.2561 16.6302 19.2521 16.6394 16.2481C16.624 14.6867 17.0681 13.1552 17.9166 11.8443C18.0293 11.6713 18.1244 11.4865 18.2443 11.2741C17.8204 11.0864 17.3821 10.933 16.9336 10.8154C16.043 10.6536 16.0889 10.0107 16.1617 9.39008C16.17 9.25511 16.2061 9.12333 16.2676 9.00294C16.3292 8.88255 16.4149 8.77618 16.5195 8.69043C16.6241 8.60469 16.7452 8.54144 16.8753 8.50464C17.0054 8.46785 17.1417 8.45828 17.2757 8.47656C17.899 8.44988 18.5233 8.45537 19.146 8.49296C19.4339 8.5352 19.7276 8.48046 19.9809 8.33737C20.2342 8.19428 20.4327 7.97098 20.5451 7.70264C21.3971 6.28059 22.2903 4.88474 23.1534 3.47054C23.3902 3.03488 23.7469 2.67622 24.1813 2.43707C24.6156 2.19793 25.1095 2.08832 25.6043 2.12121C30.4886 2.16271 35.373 2.16271 40.2574 2.12121C40.7523 2.0929 41.2451 2.20474 41.6794 2.44387C42.1136 2.68301 42.4716 3.03975 42.7122 3.47314C43.6775 5.01054 44.6349 6.55319 45.6278 8.07355C45.7087 8.18048 45.8105 8.26993 45.9269 8.33649C46.0434 8.40305 46.1721 8.44534 46.3054 8.46085C47.0616 8.51065 47.8238 8.48377 48.5833 8.47852C48.7172 8.45966 48.8536 8.46864 48.9839 8.50488C49.1142 8.54113 49.2356 8.60388 49.3405 8.68919C49.4454 8.77451 49.5316 8.88055 49.5937 9.0007C49.6558 9.12085 49.6924 9.25253 49.7013 9.38748C49.7747 10.012 49.7747 10.6405 48.9306 10.8292C48.476 10.9566 48.029 11.1098 47.5918 11.2879C48.4783 12.5408 49.0158 14.0068 49.1495 15.5358C49.1704 15.7487 49.2242 15.9604 49.2242 16.1727C49.2294 19.2851 49.2294 22.3974 49.2242 25.5098C49.1972 25.743 49.1444 25.9724 49.0669 26.194H44.015C43.9324 25.3495 43.8501 24.503 43.7679 23.6546H22.097C22.0105 24.5452 21.9305 25.3696 21.8505 26.194H16.7986ZM32.8876 11.2407H44.9384C45.4456 11.2407 45.9023 11.1994 45.4803 10.5199C44.1605 8.38699 42.8376 6.25588 41.5117 4.12651C41.3774 3.89436 41.18 3.70516 40.9424 3.5809C40.7048 3.45663 40.4368 3.40245 40.1696 3.42466C35.3385 3.45175 30.5074 3.45175 25.6763 3.42466C25.3982 3.40676 25.1207 3.46959 24.8774 3.60561C24.6341 3.74163 24.4352 3.94504 24.3047 4.19138C23.0681 6.18816 21.8191 8.17707 20.5904 10.1784C20.4549 10.4505 20.3452 10.7346 20.2627 11.0271C20.5537 11.1298 20.8553 11.1995 21.1618 11.2348C25.0689 11.2453 28.9792 11.2407 32.8876 11.2407ZM47.2752 16.5391C47.2752 15.4519 47.2753 15.4348 46.1684 15.4702C45.2549 15.4997 44.3414 15.5594 43.4311 15.6347C42.6274 15.6823 41.8269 15.774 41.0333 15.9093C40.3458 16.0404 40.0503 16.7848 40.277 17.6728C40.4533 18.3694 41.0195 18.2501 41.5274 18.2003C43.0497 18.0522 44.5688 17.8635 46.0937 17.7534C47.2287 17.6747 47.2752 17.6708 47.2752 16.5391ZM18.5877 16.5109C18.5988 17.0659 18.4488 17.6819 19.3374 17.7501C21.0753 17.8844 22.8106 18.0693 24.5452 18.2252C25.0243 18.2685 25.4857 18.2475 25.5938 17.6289C25.7445 16.79 25.4785 16.0266 24.9267 15.9643C23.1704 15.7677 21.4089 15.5941 19.6447 15.4774C18.5916 15.4079 18.5883 15.463 18.5877 16.5109ZM1.80477 12.2152C2.11933 11.054 2.38539 9.877 2.75696 8.73411C3.66895 6.13485 5.26636 3.83034 7.38028 2.06421L8.49827 3.40826C6.93678 4.7264 5.68173 6.36938 4.8207 8.22258C3.95967 10.0758 3.51342 12.0945 3.51304 14.138C3.51267 16.1814 3.95818 18.2004 4.81854 20.0539C5.67889 21.9074 6.93335 23.5509 8.49435 24.8696L7.50612 26.194H7.17846C6.96547 25.9535 6.76689 25.6986 6.53753 25.4731C4.67743 23.7204 3.30639 21.5129 2.55969 19.0686C2.26873 18.0948 2.05116 17.1026 1.80017 16.1137V12.2126L1.80477 12.2152ZM58.3594 26.194C58.0318 25.7713 57.7113 25.3493 57.3719 24.9056C58.9407 23.5884 60.202 21.9435 61.0669 20.0867C61.9318 18.2298 62.3795 16.2059 62.3783 14.1575C62.3772 12.109 61.9274 10.0856 61.0604 8.2297C60.1934 6.37375 58.9304 4.73027 57.3601 3.41482L58.556 1.9469C59.5633 3.14287 60.5921 4.20317 61.431 5.39652C62.8222 7.36083 63.6791 9.65291 63.9179 12.0481C63.9513 12.1147 64.0006 12.1721 64.0614 12.2152V16.1164C63.9941 16.1881 63.9421 16.2728 63.9087 16.3654C63.7361 18.3611 63.0778 20.2842 61.9912 21.9671C60.9919 23.4462 59.7933 24.7903 58.6832 26.194H58.3555H58.3594ZM9.89608 5.03546L10.9793 6.37299C5.84158 11.3259 6.73612 18.0896 10.9649 21.8793C10.962 21.9291 10.9495 21.9778 10.9282 22.0228C9.73422 23.5668 9.98652 23.458 8.70798 22.0707C7.15745 20.388 6.1644 18.2675 5.86452 15.9991C5.23082 11.6339 6.69221 8.06962 9.89348 5.03546H9.89608ZM55.9387 5.07738C57.2585 6.19176 58.319 7.58096 59.046 9.14785C59.773 10.7147 60.1491 12.4215 60.1478 14.1488C60.1466 15.8762 59.7681 17.5824 59.0388 19.1483C58.3095 20.7141 57.247 22.1017 55.9256 23.2142L54.9131 22.0051C55.4662 21.3177 56.0225 20.6696 56.5304 19.9854C57.953 18.0025 58.6053 15.5696 58.3654 13.141C58.1255 10.7124 57.01 8.45413 55.227 6.78781C55.1598 6.6862 55.1187 6.56961 55.1073 6.44835C55.0959 6.32709 55.1144 6.20486 55.1614 6.09249C55.3885 5.73183 55.6473 5.39211 55.9347 5.07738H55.9387ZM13.5548 18.91L12.5108 20.1846C8.95895 17.6446 8.46222 11.3593 12.4715 8.11678L13.5246 9.38552C10.4256 12.5678 10.8929 16.4021 13.5522 18.91H13.5548ZM52.299 9.41764L53.3888 8.12402C56.9931 10.9282 57.3096 16.9552 53.415 20.2279L52.2852 18.8806C52.9724 18.3001 53.5241 17.5761 53.9015 16.7596C54.279 15.9431 54.4731 15.0538 54.4701 14.1543C54.4592 13.2569 54.2605 12.3717 53.8865 11.5559C53.5126 10.74 52.9717 10.0116 52.299 9.41764Z" stroke="#FC4B55" stroke-width="2" mask="url(#path-1-outside-1_99_221)"/>
</svg>
