<svg width="46" height="29" viewBox="0 0 46 29" fill="none" xmlns="http://www.w3.org/2000/svg">
<mask id="path-1-inside-1_99_174" fill="white">
<path fill-rule="evenodd" clip-rule="evenodd" d="M38.3664 6.80372V10.18H36.9771V6.80372H32.0228L29.2508 3.82724H21.2231V2.33243H28.7462V0.359253H11.8651V2.33311H19.3882V3.82792H11.6487L9.43374 7.40401H3.81763V15.2548H2.15307V7.65696H0.200211V24.7059H2.15307V17.1088H3.81763V24.0644H8.80465L13.1035 28.5383H32.9469L37.2524 23.6948H38.7334V26.1784H45.4046V6.80372H38.3664ZM43.0389 23.7833H41.1057V21.2989H36.1972L31.8918 26.1431H14.1062L9.80076 21.6718H6.18334V9.79597H10.7444L12.9594 6.21983H28.222L31.0006 9.19568H34.6114V12.5719H40.7321V9.19568H43.0389V23.7826V23.7833ZM20.3056 23.3553C18.8008 23.3704 17.3255 22.9379 16.0669 22.1129C14.8084 21.2878 13.8233 20.1073 13.237 18.7213C12.6506 17.3353 12.4894 15.8064 12.7737 14.3286C13.058 12.8508 13.7751 11.4908 14.8339 10.4214C15.8926 9.35191 17.2453 8.62118 18.7201 8.322C20.195 8.02283 21.7256 8.1687 23.1174 8.74106C24.5092 9.31343 25.6995 10.2865 26.5372 11.5367C27.3749 12.7869 27.8222 14.2578 27.8222 15.7627C27.8294 17.7654 27.0422 19.6893 25.6331 21.1125C24.2241 22.5358 22.3083 23.3423 20.3056 23.3553ZM20.3056 9.60658C19.0853 9.59424 17.8889 9.94481 16.8682 10.6138C15.8476 11.2828 15.0488 12.24 14.5732 13.3639C14.0977 14.4878 13.9669 15.7277 14.1974 16.9261C14.428 18.1245 15.0095 19.2273 15.868 20.0946C16.7266 20.9619 17.8236 21.5544 19.0196 21.797C20.2156 22.0396 21.4567 21.9212 22.5853 21.457C23.7139 20.9928 24.6791 20.2037 25.3584 19.1898C26.0376 18.1759 26.4002 16.9831 26.4001 15.7627C26.4066 14.1387 25.7686 12.5784 24.626 11.4243C23.4834 10.2702 21.9296 9.61646 20.3056 9.60658ZM11.3604 15.7627C11.361 14.5711 11.6114 13.3929 12.0957 12.3042C12.5799 11.2155 13.2872 10.2404 14.1717 9.44207C13.761 9.13603 13.4005 8.76765 13.1035 8.35028C13.0511 8.35028 13.0446 8.41127 12.9856 8.41192C11.9561 9.38191 11.1419 10.5575 10.5959 11.8624C10.05 13.1674 9.78447 14.5725 9.8166 15.9867C9.84873 17.4009 10.1778 18.7925 10.7825 20.0713C11.3871 21.3501 12.2538 22.4875 13.3264 23.4097C13.5163 23.002 13.8186 22.6571 14.198 22.4156C14.2407 22.3542 14.2866 22.2951 14.3356 22.2387C13.4006 21.4388 12.6504 20.4455 12.1367 19.3274C11.6231 18.2094 11.3582 16.9931 11.3604 15.7627ZM27.547 8.3372H27.3242C27.0621 8.747 26.6731 9.05978 26.2166 9.2278C27.1907 10.0474 27.9693 11.0746 28.4951 12.234C29.0209 13.3934 29.2807 14.6557 29.2556 15.9285C29.2305 17.2013 28.921 18.4524 28.3498 19.5901C27.7786 20.7279 26.9603 21.7235 25.9546 22.504C26.3496 22.8483 26.6287 23.306 26.754 23.8147H26.7933C27.9708 22.9224 28.9384 21.7828 29.6277 20.4761C30.3171 19.1694 30.7116 17.7275 30.7834 16.2519C30.8553 14.7763 30.6027 13.3028 30.0436 11.9354C29.4844 10.5679 28.6322 9.33968 27.547 8.3372ZM21.1444 18.1258H19.4734V10.9827H21.1444V18.1258ZM21.1444 20.5047H19.4734V19.0957H21.1444V20.5047Z"/>
</mask>
<path fill-rule="evenodd" clip-rule="evenodd" d="M38.3664 6.80372V10.18H36.9771V6.80372H32.0228L29.2508 3.82724H21.2231V2.33243H28.7462V0.359253H11.8651V2.33311H19.3882V3.82792H11.6487L9.43374 7.40401H3.81763V15.2548H2.15307V7.65696H0.200211V24.7059H2.15307V17.1088H3.81763V24.0644H8.80465L13.1035 28.5383H32.9469L37.2524 23.6948H38.7334V26.1784H45.4046V6.80372H38.3664ZM43.0389 23.7833H41.1057V21.2989H36.1972L31.8918 26.1431H14.1062L9.80076 21.6718H6.18334V9.79597H10.7444L12.9594 6.21983H28.222L31.0006 9.19568H34.6114V12.5719H40.7321V9.19568H43.0389V23.7826V23.7833ZM20.3056 23.3553C18.8008 23.3704 17.3255 22.9379 16.0669 22.1129C14.8084 21.2878 13.8233 20.1073 13.237 18.7213C12.6506 17.3353 12.4894 15.8064 12.7737 14.3286C13.058 12.8508 13.7751 11.4908 14.8339 10.4214C15.8926 9.35191 17.2453 8.62118 18.7201 8.322C20.195 8.02283 21.7256 8.1687 23.1174 8.74106C24.5092 9.31343 25.6995 10.2865 26.5372 11.5367C27.3749 12.7869 27.8222 14.2578 27.8222 15.7627C27.8294 17.7654 27.0422 19.6893 25.6331 21.1125C24.2241 22.5358 22.3083 23.3423 20.3056 23.3553ZM20.3056 9.60658C19.0853 9.59424 17.8889 9.94481 16.8682 10.6138C15.8476 11.2828 15.0488 12.24 14.5732 13.3639C14.0977 14.4878 13.9669 15.7277 14.1974 16.9261C14.428 18.1245 15.0095 19.2273 15.868 20.0946C16.7266 20.9619 17.8236 21.5544 19.0196 21.797C20.2156 22.0396 21.4567 21.9212 22.5853 21.457C23.7139 20.9928 24.6791 20.2037 25.3584 19.1898C26.0376 18.1759 26.4002 16.9831 26.4001 15.7627C26.4066 14.1387 25.7686 12.5784 24.626 11.4243C23.4834 10.2702 21.9296 9.61646 20.3056 9.60658ZM11.3604 15.7627C11.361 14.5711 11.6114 13.3929 12.0957 12.3042C12.5799 11.2155 13.2872 10.2404 14.1717 9.44207C13.761 9.13603 13.4005 8.76765 13.1035 8.35028C13.0511 8.35028 13.0446 8.41127 12.9856 8.41192C11.9561 9.38191 11.1419 10.5575 10.5959 11.8624C10.05 13.1674 9.78447 14.5725 9.8166 15.9867C9.84873 17.4009 10.1778 18.7925 10.7825 20.0713C11.3871 21.3501 12.2538 22.4875 13.3264 23.4097C13.5163 23.002 13.8186 22.6571 14.198 22.4156C14.2407 22.3542 14.2866 22.2951 14.3356 22.2387C13.4006 21.4388 12.6504 20.4455 12.1367 19.3274C11.6231 18.2094 11.3582 16.9931 11.3604 15.7627ZM27.547 8.3372H27.3242C27.0621 8.747 26.6731 9.05978 26.2166 9.2278C27.1907 10.0474 27.9693 11.0746 28.4951 12.234C29.0209 13.3934 29.2807 14.6557 29.2556 15.9285C29.2305 17.2013 28.921 18.4524 28.3498 19.5901C27.7786 20.7279 26.9603 21.7235 25.9546 22.504C26.3496 22.8483 26.6287 23.306 26.754 23.8147H26.7933C27.9708 22.9224 28.9384 21.7828 29.6277 20.4761C30.3171 19.1694 30.7116 17.7275 30.7834 16.2519C30.8553 14.7763 30.6027 13.3028 30.0436 11.9354C29.4844 10.5679 28.6322 9.33968 27.547 8.3372ZM21.1444 18.1258H19.4734V10.9827H21.1444V18.1258ZM21.1444 20.5047H19.4734V19.0957H21.1444V20.5047Z" stroke="#fff" stroke-width="2" mask="url(#path-1-inside-1_99_174)"/>
</svg>
