<svg width="49" height="36" viewBox="0 0 49 36" fill="none" xmlns="http://www.w3.org/2000/svg">
<mask id="path-1-inside-1_99_23" fill="white">
<path fill-rule="evenodd" clip-rule="evenodd" d="M14.5835 0.80603L13.9472 4.41885C13.1799 4.54411 12.427 4.7452 11.6994 5.01913L9.34027 2.20712L7.122 3.48501L8.38154 6.9294H8.38612C7.78469 7.42204 7.2333 7.9728 6.73994 8.57363V8.56639L3.28636 7.31014L2.00454 9.52254L4.82246 11.8817C4.54867 12.6063 4.3478 13.3565 4.22283 14.1209L0.600174 14.7546V17.3104L4.22283 17.9448C4.3479 18.709 4.54877 19.4589 4.82246 20.1834L2.00454 22.5426L3.28636 24.7556L6.73994 23.4993V23.4915C7.2333 24.0923 7.78469 24.643 8.38612 25.1357H8.38154L7.122 28.5801L9.34027 29.8586L11.6994 27.0453C12.4271 27.3189 13.18 27.52 13.9472 27.6456L14.5835 31.2584H17.1439L17.7802 27.6456C18.5474 27.521 19.3004 27.3206 20.028 27.0473L22.3911 29.8606L24.6094 28.582L23.3472 25.1377C23.9475 24.6468 24.4981 24.0981 24.9908 23.4993L28.447 24.7556L29.7262 22.5426L26.9083 20.1834C27.1829 19.4591 27.3845 18.7092 27.5099 17.9448L31.1325 17.3124V14.7566L27.5099 14.1229C27.3841 13.359 27.1825 12.6096 26.9083 11.8856L29.7262 9.52646L28.447 7.3141L24.9908 8.57035C24.4979 7.97178 23.9473 7.42305 23.3472 6.93204L24.6094 3.48761L22.3911 2.20976L20.028 5.02173C19.3004 4.74866 18.5474 4.54847 17.7802 4.42408L17.1439 0.80603H14.5835ZM15.8654 7.02639C17.6451 7.03131 19.3836 7.56357 20.861 8.55595C22.3385 9.54833 23.4887 10.9563 24.1664 12.602C24.8441 14.2478 25.0188 16.0574 24.6686 17.8024C24.3183 19.5474 23.4588 21.1495 22.1986 22.4062C20.9383 23.663 19.3339 24.5181 17.5879 24.8635C15.842 25.2089 14.0328 25.0292 12.389 24.3469C10.7451 23.6647 9.34033 22.5106 8.35204 21.0304C7.36374 19.5502 6.83628 17.8104 6.83627 16.0306C6.83782 14.8464 7.0726 13.6742 7.5272 12.5808C7.9818 11.4874 8.64732 10.4942 9.48576 9.65806C10.3242 8.82187 11.3191 8.15906 12.4137 7.7074C13.5083 7.25574 14.6812 7.02412 15.8654 7.02575V7.02639ZM37.5783 15.5456L37.1608 17.9173C36.6573 17.9992 36.1632 18.1309 35.6857 18.3105L34.1372 16.4683L32.6804 17.3078L33.508 19.5693C33.1132 19.8929 32.7512 20.2547 32.4274 20.6493V20.6441L30.16 19.819L29.3185 21.2712L31.1692 22.8191C30.9898 23.2949 30.8581 23.7872 30.776 24.289L28.3978 24.7045V26.3834L30.776 26.7995C30.858 27.3011 30.9897 27.7933 31.1692 28.2688L29.3185 29.8167L30.16 31.2689L32.4274 30.4445V30.4399C32.7516 30.834 33.1135 31.1955 33.508 31.5192L32.6804 33.7801L34.1372 34.6196L35.687 32.7722C36.1644 32.9521 36.6586 33.0838 37.1622 33.1654L37.5783 35.5383H39.2592L39.6773 33.1667C40.181 33.0848 40.6754 32.9531 41.1531 32.7735L42.7043 34.6209L44.1604 33.7814L43.332 31.5205C43.7258 31.1974 44.0873 30.8368 44.4114 30.4438L46.6801 31.2682L47.5202 29.816L45.6702 28.2681C45.8503 27.7928 45.982 27.3006 46.0635 26.7989L48.4423 26.3841V24.7051L46.0635 24.2897C45.982 23.7882 45.8502 23.2962 45.6702 22.8211L47.5202 21.2732L46.6801 19.821L44.4114 20.6461C44.0877 20.253 43.7261 19.8925 43.332 19.57L44.1604 17.3085L42.7023 16.4683L41.1511 18.3151C40.6734 18.1354 40.1791 18.0037 39.6753 17.9218L39.2572 15.5502H37.5763L37.5783 15.5456ZM38.4197 20.3649C39.4431 20.3674 40.4428 20.6731 41.2925 21.2435C42.1423 21.8138 42.8039 22.6232 43.1938 23.5694C43.5838 24.5156 43.6845 25.5562 43.4834 26.5596C43.2822 27.563 42.7882 28.4843 42.0636 29.2071C41.3391 29.9299 40.4166 30.4217 39.4127 30.6205C38.4088 30.8192 37.3685 30.716 36.4232 30.3238C35.478 29.9316 34.6702 29.268 34.1018 28.4169C33.5335 27.5658 33.2302 26.5654 33.2302 25.542C33.231 24.8613 33.3658 24.1875 33.6271 23.5589C33.8883 22.9304 34.2708 22.3595 34.7527 21.8788C35.2346 21.3981 35.8065 21.0171 36.4357 20.7574C37.0649 20.4978 37.7391 20.3646 38.4197 20.3655V20.3649Z"/>
</mask>
<path fill-rule="evenodd" clip-rule="evenodd" d="M14.5835 0.80603L13.9472 4.41885C13.1799 4.54411 12.427 4.7452 11.6994 5.01913L9.34027 2.20712L7.122 3.48501L8.38154 6.9294H8.38612C7.78469 7.42204 7.2333 7.9728 6.73994 8.57363V8.56639L3.28636 7.31014L2.00454 9.52254L4.82246 11.8817C4.54867 12.6063 4.3478 13.3565 4.22283 14.1209L0.600174 14.7546V17.3104L4.22283 17.9448C4.3479 18.709 4.54877 19.4589 4.82246 20.1834L2.00454 22.5426L3.28636 24.7556L6.73994 23.4993V23.4915C7.2333 24.0923 7.78469 24.643 8.38612 25.1357H8.38154L7.122 28.5801L9.34027 29.8586L11.6994 27.0453C12.4271 27.3189 13.18 27.52 13.9472 27.6456L14.5835 31.2584H17.1439L17.7802 27.6456C18.5474 27.521 19.3004 27.3206 20.028 27.0473L22.3911 29.8606L24.6094 28.582L23.3472 25.1377C23.9475 24.6468 24.4981 24.0981 24.9908 23.4993L28.447 24.7556L29.7262 22.5426L26.9083 20.1834C27.1829 19.4591 27.3845 18.7092 27.5099 17.9448L31.1325 17.3124V14.7566L27.5099 14.1229C27.3841 13.359 27.1825 12.6096 26.9083 11.8856L29.7262 9.52646L28.447 7.3141L24.9908 8.57035C24.4979 7.97178 23.9473 7.42305 23.3472 6.93204L24.6094 3.48761L22.3911 2.20976L20.028 5.02173C19.3004 4.74866 18.5474 4.54847 17.7802 4.42408L17.1439 0.80603H14.5835ZM15.8654 7.02639C17.6451 7.03131 19.3836 7.56357 20.861 8.55595C22.3385 9.54833 23.4887 10.9563 24.1664 12.602C24.8441 14.2478 25.0188 16.0574 24.6686 17.8024C24.3183 19.5474 23.4588 21.1495 22.1986 22.4062C20.9383 23.663 19.3339 24.5181 17.5879 24.8635C15.842 25.2089 14.0328 25.0292 12.389 24.3469C10.7451 23.6647 9.34033 22.5106 8.35204 21.0304C7.36374 19.5502 6.83628 17.8104 6.83627 16.0306C6.83782 14.8464 7.0726 13.6742 7.5272 12.5808C7.9818 11.4874 8.64732 10.4942 9.48576 9.65806C10.3242 8.82187 11.3191 8.15906 12.4137 7.7074C13.5083 7.25574 14.6812 7.02412 15.8654 7.02575V7.02639ZM37.5783 15.5456L37.1608 17.9173C36.6573 17.9992 36.1632 18.1309 35.6857 18.3105L34.1372 16.4683L32.6804 17.3078L33.508 19.5693C33.1132 19.8929 32.7512 20.2547 32.4274 20.6493V20.6441L30.16 19.819L29.3185 21.2712L31.1692 22.8191C30.9898 23.2949 30.8581 23.7872 30.776 24.289L28.3978 24.7045V26.3834L30.776 26.7995C30.858 27.3011 30.9897 27.7933 31.1692 28.2688L29.3185 29.8167L30.16 31.2689L32.4274 30.4445V30.4399C32.7516 30.834 33.1135 31.1955 33.508 31.5192L32.6804 33.7801L34.1372 34.6196L35.687 32.7722C36.1644 32.9521 36.6586 33.0838 37.1622 33.1654L37.5783 35.5383H39.2592L39.6773 33.1667C40.181 33.0848 40.6754 32.9531 41.1531 32.7735L42.7043 34.6209L44.1604 33.7814L43.332 31.5205C43.7258 31.1974 44.0873 30.8368 44.4114 30.4438L46.6801 31.2682L47.5202 29.816L45.6702 28.2681C45.8503 27.7928 45.982 27.3006 46.0635 26.7989L48.4423 26.3841V24.7051L46.0635 24.2897C45.982 23.7882 45.8502 23.2962 45.6702 22.8211L47.5202 21.2732L46.6801 19.821L44.4114 20.6461C44.0877 20.253 43.7261 19.8925 43.332 19.57L44.1604 17.3085L42.7023 16.4683L41.1511 18.3151C40.6734 18.1354 40.1791 18.0037 39.6753 17.9218L39.2572 15.5502H37.5763L37.5783 15.5456ZM38.4197 20.3649C39.4431 20.3674 40.4428 20.6731 41.2925 21.2435C42.1423 21.8138 42.8039 22.6232 43.1938 23.5694C43.5838 24.5156 43.6845 25.5562 43.4834 26.5596C43.2822 27.563 42.7882 28.4843 42.0636 29.2071C41.3391 29.9299 40.4166 30.4217 39.4127 30.6205C38.4088 30.8192 37.3685 30.716 36.4232 30.3238C35.478 29.9316 34.6702 29.268 34.1018 28.4169C33.5335 27.5658 33.2302 26.5654 33.2302 25.542C33.231 24.8613 33.3658 24.1875 33.6271 23.5589C33.8883 22.9304 34.2708 22.3595 34.7527 21.8788C35.2346 21.3981 35.8065 21.0171 36.4357 20.7574C37.0649 20.4978 37.7391 20.3646 38.4197 20.3655V20.3649Z" stroke="#FC4B55" stroke-width="2" mask="url(#path-1-inside-1_99_23)"/>
</svg>
