<svg width="48" height="26" viewBox="0 0 48 26" fill="none" xmlns="http://www.w3.org/2000/svg">
<path d="M21.5616 2.22908H21.3899L21.2544 2.33459L4.54944 15.3435L3.4008 16.238H4.85664H10.8417H11.0119L11.1467 16.1342L22.3536 7.5097H30.5678L30.3029 7.7142L21.1938 14.7452L20.0332 15.641H21.4993H25.5132V17.3317H2.8723H2.3723V17.8317V23.4485V23.9485H2.8723H2.87298H45.2549H45.7549V23.4485V17.8317V17.3317H45.2549H35.7048V15.641H39.7174H41.1835L40.0229 14.7452L30.9139 7.7142L30.6489 7.5097H45.251H45.751V7.0097V2.72908V2.22908H45.251H21.5616ZM1.30017 25.043V16.5013L21.0249 1.13599H46.8283V25.043H1.30017Z" stroke="#FC4B55"/>
</svg>
