<svg width="59" height="24" viewBox="0 0 59 24" fill="none" xmlns="http://www.w3.org/2000/svg">
<path d="M34.327 10.2523L34.5459 10.5936L34.9251 10.4498L53.3294 3.46849L57.3799 5.53238L56.0859 7.90606L54.0218 7.30492L53.7269 7.21901L53.517 7.4433L38.9249 23.0338H13.4287V14.3553V14L13.0933 13.8831L1.03569 9.68146L3.79379 1.70197L14.2427 6.16804V7.71745V8.21745H14.7427H22.4251H22.9251V7.71745V4.20623V3.70623H22.4251H19.0147V1.10718H28.4875V3.70623H25.0772H24.5772V4.20623V7.71549V8.21549H25.0772H33.0204L34.327 10.2523ZM2.90019 8.40207L2.73721 8.87351L3.20826 9.03762L12.2242 12.1786L12.3887 11.7064H12.8887V7.36031V7.03024L12.5852 6.90054L5.09287 3.69862L4.59923 3.48766L4.42383 3.99502L2.90019 8.40207ZM38.111 21.7126H38.3278L38.476 21.5543L53.0183 6.01978L52.476 5.21057L33.9909 12.2216L32.4169 9.76863L32.2693 9.53865H31.9961H15.2761H14.7761V10.0387V21.2126V21.7126H15.2761H38.111ZM55.5261 12.2919C55.6112 12.0979 55.6965 11.9178 55.7765 11.7567C55.8458 11.8982 55.9188 12.0546 55.9918 12.2222C56.3194 12.9746 56.6226 13.9021 56.6226 14.7236C56.6226 15.1792 56.5135 15.6519 56.3271 15.9931C56.1377 16.3395 55.9299 16.4569 55.7464 16.4569C55.4933 16.4569 55.3162 16.382 55.1823 16.2092C55.0408 16.0265 54.9016 15.6751 54.8746 15.0249L54.8728 14.8547C54.8645 14.0391 55.1799 13.0814 55.5261 12.2919Z" stroke="#fff"/>
</svg>
