<svg width="83" height="27" viewBox="0 0 83 27" fill="none" xmlns="http://www.w3.org/2000/svg">
<mask id="path-1-inside-1_99_101" fill="white">
<path fill-rule="evenodd" clip-rule="evenodd" d="M80.073 10.5738C79.7733 9.0986 79.9726 5.31819 80.8726 3.75103C81.7727 2.18387 80.8726 2.27414 80.8726 2.27414C80.2415 2.33727 79.6049 2.33727 78.9738 2.27414C77.6744 2.18137 76.0753 5.86985 75.1752 6.69981C74.2752 7.52978 72.8771 6.14647 66.0805 4.20988C59.2838 2.27329 52.5877 2.27414 47.6908 2.27414C42.7939 2.27414 38.1958 4.02603 34.0984 6.33288C32.4176 7.27881 30.3035 8.72089 27.4014 9.06629C20.2054 9.92608 13.9409 11.7773 10.5112 14.7211C7.61273 17.211 7.0115 23.9427 7.0115 23.9427L8.01026 24.4033H15.0994V20.2195C15.2069 18.3628 16.0817 16.615 17.5435 15.3359C19.0054 14.0567 20.9429 13.3437 22.9572 13.3437C24.9715 13.3437 26.909 14.0567 28.3709 15.3359C29.8327 16.615 30.7074 18.3628 30.815 20.2195V24.4041H59.2749V20.2195C59.3824 18.3628 60.2571 16.615 61.7189 15.3359C63.1808 14.0567 65.1183 13.3437 67.1326 13.3437C69.1469 13.3437 71.0845 14.0567 72.5463 15.3359C74.0081 16.615 74.8829 18.3628 74.9904 20.2195V23.5045C75.7039 23.3113 76.4355 23.1802 77.1755 23.1128C78.0079 23.0624 78.8099 22.8048 79.4963 22.3672C80.1827 21.9297 80.7278 21.3286 81.0736 20.6279C82.1729 18.876 82.3721 16.0175 82.5722 14.6342C82.7723 13.2509 80.3728 12.049 80.073 10.5738ZM65.5806 9.28328C63.0824 10.1116 44.5922 11.3118 38.9953 11.4957C33.3985 11.6796 32.1987 12.049 31.6998 10.7585C31.3965 9.97658 39.628 5.41095 43.7244 4.76569C47.8209 4.12044 56.6465 4.21237 60.882 5.31817C65.7233 6.583 68.0798 8.4575 65.5806 9.28581V9.28328ZM22.9065 26.3407C21.7015 26.3402 20.5237 26.01 19.5221 25.3917C18.5204 24.7734 17.7399 23.8948 17.2791 22.867C16.8184 21.8393 16.6981 20.7085 16.9335 19.6177C17.1689 18.5269 17.7494 17.525 18.6017 16.7387C19.4539 15.9524 20.5396 15.4169 21.7215 15.2001C22.9034 14.9833 24.1283 15.0948 25.2415 15.5206C26.3547 15.9463 27.3062 16.6672 27.9756 17.5921C28.645 18.5169 29.0023 19.6042 29.0023 20.7165C28.9999 22.2079 28.3568 23.6375 27.2141 24.6919C26.0713 25.7462 24.5222 26.3392 22.9065 26.3407ZM22.9065 17.3047C22.1755 17.3048 21.461 17.505 20.8532 17.88C20.2455 18.255 19.7719 18.7879 19.4923 19.4114C19.2126 20.0348 19.1396 20.7208 19.2823 21.3826C19.425 22.0444 19.7771 22.6522 20.2941 23.1293C20.811 23.6063 21.4696 23.9312 22.1866 24.0628C22.9036 24.1944 23.6467 24.1268 24.3221 23.8685C24.9974 23.6102 25.5747 23.1729 25.9808 22.6119C26.3869 22.0508 26.6036 21.3912 26.6036 20.7165C26.6024 19.8118 26.2125 18.9445 25.5194 18.3049C24.8263 17.6652 23.8866 17.3055 22.9065 17.3047ZM67.1465 26.3407C65.9416 26.34 64.7639 26.0096 63.7624 25.3913C62.7608 24.7729 61.9804 23.8942 61.5198 22.8665C61.0592 21.8387 60.939 20.708 61.1745 19.6172C61.41 18.5264 61.9906 17.5246 62.8429 16.7384C63.6952 15.9521 64.7809 15.4168 65.9627 15.2001C67.1446 14.9833 68.3695 15.0949 69.4827 15.5207C70.5958 15.9465 71.5472 16.6673 72.2166 17.5922C72.8859 18.517 73.2432 19.6043 73.2432 20.7165C73.2408 22.208 72.5976 23.6378 71.4547 24.6922C70.3118 25.7465 68.7624 26.3394 67.1465 26.3407ZM67.1465 17.3047C66.4156 17.305 65.7011 17.5053 65.0935 17.8804C64.4859 18.2555 64.0124 18.7885 63.7329 19.412C63.4534 20.0354 63.3805 20.7214 63.5233 21.3831C63.6661 22.0448 64.0183 22.6526 64.5353 23.1296C65.0523 23.6066 65.7109 23.9313 66.4279 24.0628C67.1448 24.1944 67.8879 24.1267 68.5632 23.8684C69.2385 23.6101 69.8157 23.1728 70.2218 22.6118C70.6278 22.0507 70.8446 21.3912 70.8446 20.7165C70.8431 19.8117 70.453 18.9444 69.7597 18.3048C69.0665 17.6652 68.1267 17.3055 67.1465 17.3047ZM30.8724 13.7827C30.7411 13.7826 30.6119 13.7524 30.4964 13.6949C29.2845 13.116 28.1879 12.3514 27.2533 11.4336C22.0818 6.27238 16.9857 3.0014 12.9009 2.22196C12.6681 2.17768 12.432 2.14996 12.1947 2.1391C12.0835 2.14372 11.9724 2.12689 11.8687 2.08961C11.7649 2.05233 11.6708 1.99543 11.5922 1.92262C11.5137 1.84981 11.4525 1.76267 11.4125 1.66676C11.3725 1.57085 11.3547 1.46828 11.3602 1.36564C11.3656 1.26301 11.3942 1.16259 11.4442 1.07075C11.4941 0.978914 11.5643 0.897686 11.6502 0.832328C11.7361 0.766971 11.8359 0.718897 11.9431 0.691176C12.0503 0.663455 12.1625 0.656709 12.2727 0.671358C12.5923 0.684998 12.9104 0.721259 13.224 0.779851C18.8773 1.85666 24.6106 6.62524 28.4271 10.4346C29.2416 11.2309 30.1961 11.8944 31.2502 12.3969C31.4057 12.4753 31.5286 12.5992 31.5996 12.749C31.6706 12.8988 31.6856 13.0662 31.6424 13.2248C31.5992 13.3834 31.5001 13.5243 31.3607 13.6252C31.2213 13.7262 31.0496 13.7816 30.8724 13.7827ZM4.06186 10.6715C4.26264 10.6755 4.46345 10.6641 4.6622 10.6376C5.57392 10.5547 7.47274 10.3775 8.34947 11.0517C9.08441 11.6166 9.39759 11.8577 10.8791 13.0471C12.0364 12.4085 13.2302 11.8278 14.4551 11.3077C13.1674 10.2798 12.104 9.42494 11.6661 9.058C10.4267 7.98902 9.68789 6.51602 9.60667 4.95209C9.51803 4.18193 9.13657 3.46566 8.53003 2.93051C7.92349 2.39536 7.13112 2.07593 6.2936 2.02894C4.98021 1.92866 3.65923 1.95062 2.35059 2.09441C2.29575 2.10386 2.24525 2.1283 2.20565 2.16458C2.16606 2.20086 2.13918 2.2473 2.12854 2.29785C2.11789 2.3484 2.12397 2.40072 2.14597 2.44805C2.16796 2.49538 2.20486 2.5355 2.25188 2.56322C2.27342 2.57564 2.43135 2.66429 3.53601 3.18779C4.67117 3.72867 6.0567 4.81371 6.13836 5.3985C6.08561 5.95638 5.86885 6.49038 5.51145 6.94289C5.15405 7.3954 4.66959 7.74927 4.11032 7.96629C3.06399 8.28105 1.1194 6.98058 0.458043 6.45295C0.410206 6.41561 0.350224 6.39413 0.287624 6.39188C0.225024 6.38963 0.163403 6.40677 0.112563 6.44056C0.0622908 6.47477 0.026054 6.52368 0.00975832 6.57934C-0.00653738 6.63499 -0.00193663 6.69411 0.0228211 6.74703C0.0326921 6.77023 0.283062 7.31439 1.19748 8.86665C1.50097 9.34402 1.91522 9.75347 2.41047 10.0655C2.90572 10.3776 3.46968 10.5845 4.06186 10.6715Z"/>
</mask>
<path fill-rule="evenodd" clip-rule="evenodd" d="M80.073 10.5738C79.7733 9.0986 79.9726 5.31819 80.8726 3.75103C81.7727 2.18387 80.8726 2.27414 80.8726 2.27414C80.2415 2.33727 79.6049 2.33727 78.9738 2.27414C77.6744 2.18137 76.0753 5.86985 75.1752 6.69981C74.2752 7.52978 72.8771 6.14647 66.0805 4.20988C59.2838 2.27329 52.5877 2.27414 47.6908 2.27414C42.7939 2.27414 38.1958 4.02603 34.0984 6.33288C32.4176 7.27881 30.3035 8.72089 27.4014 9.06629C20.2054 9.92608 13.9409 11.7773 10.5112 14.7211C7.61273 17.211 7.0115 23.9427 7.0115 23.9427L8.01026 24.4033H15.0994V20.2195C15.2069 18.3628 16.0817 16.615 17.5435 15.3359C19.0054 14.0567 20.9429 13.3437 22.9572 13.3437C24.9715 13.3437 26.909 14.0567 28.3709 15.3359C29.8327 16.615 30.7074 18.3628 30.815 20.2195V24.4041H59.2749V20.2195C59.3824 18.3628 60.2571 16.615 61.7189 15.3359C63.1808 14.0567 65.1183 13.3437 67.1326 13.3437C69.1469 13.3437 71.0845 14.0567 72.5463 15.3359C74.0081 16.615 74.8829 18.3628 74.9904 20.2195V23.5045C75.7039 23.3113 76.4355 23.1802 77.1755 23.1128C78.0079 23.0624 78.8099 22.8048 79.4963 22.3672C80.1827 21.9297 80.7278 21.3286 81.0736 20.6279C82.1729 18.876 82.3721 16.0175 82.5722 14.6342C82.7723 13.2509 80.3728 12.049 80.073 10.5738ZM65.5806 9.28328C63.0824 10.1116 44.5922 11.3118 38.9953 11.4957C33.3985 11.6796 32.1987 12.049 31.6998 10.7585C31.3965 9.97658 39.628 5.41095 43.7244 4.76569C47.8209 4.12044 56.6465 4.21237 60.882 5.31817C65.7233 6.583 68.0798 8.4575 65.5806 9.28581V9.28328ZM22.9065 26.3407C21.7015 26.3402 20.5237 26.01 19.5221 25.3917C18.5204 24.7734 17.7399 23.8948 17.2791 22.867C16.8184 21.8393 16.6981 20.7085 16.9335 19.6177C17.1689 18.5269 17.7494 17.525 18.6017 16.7387C19.4539 15.9524 20.5396 15.4169 21.7215 15.2001C22.9034 14.9833 24.1283 15.0948 25.2415 15.5206C26.3547 15.9463 27.3062 16.6672 27.9756 17.5921C28.645 18.5169 29.0023 19.6042 29.0023 20.7165C28.9999 22.2079 28.3568 23.6375 27.2141 24.6919C26.0713 25.7462 24.5222 26.3392 22.9065 26.3407ZM22.9065 17.3047C22.1755 17.3048 21.461 17.505 20.8532 17.88C20.2455 18.255 19.7719 18.7879 19.4923 19.4114C19.2126 20.0348 19.1396 20.7208 19.2823 21.3826C19.425 22.0444 19.7771 22.6522 20.2941 23.1293C20.811 23.6063 21.4696 23.9312 22.1866 24.0628C22.9036 24.1944 23.6467 24.1268 24.3221 23.8685C24.9974 23.6102 25.5747 23.1729 25.9808 22.6119C26.3869 22.0508 26.6036 21.3912 26.6036 20.7165C26.6024 19.8118 26.2125 18.9445 25.5194 18.3049C24.8263 17.6652 23.8866 17.3055 22.9065 17.3047ZM67.1465 26.3407C65.9416 26.34 64.7639 26.0096 63.7624 25.3913C62.7608 24.7729 61.9804 23.8942 61.5198 22.8665C61.0592 21.8387 60.939 20.708 61.1745 19.6172C61.41 18.5264 61.9906 17.5246 62.8429 16.7384C63.6952 15.9521 64.7809 15.4168 65.9627 15.2001C67.1446 14.9833 68.3695 15.0949 69.4827 15.5207C70.5958 15.9465 71.5472 16.6673 72.2166 17.5922C72.8859 18.517 73.2432 19.6043 73.2432 20.7165C73.2408 22.208 72.5976 23.6378 71.4547 24.6922C70.3118 25.7465 68.7624 26.3394 67.1465 26.3407ZM67.1465 17.3047C66.4156 17.305 65.7011 17.5053 65.0935 17.8804C64.4859 18.2555 64.0124 18.7885 63.7329 19.412C63.4534 20.0354 63.3805 20.7214 63.5233 21.3831C63.6661 22.0448 64.0183 22.6526 64.5353 23.1296C65.0523 23.6066 65.7109 23.9313 66.4279 24.0628C67.1448 24.1944 67.8879 24.1267 68.5632 23.8684C69.2385 23.6101 69.8157 23.1728 70.2218 22.6118C70.6278 22.0507 70.8446 21.3912 70.8446 20.7165C70.8431 19.8117 70.453 18.9444 69.7597 18.3048C69.0665 17.6652 68.1267 17.3055 67.1465 17.3047ZM30.8724 13.7827C30.7411 13.7826 30.6119 13.7524 30.4964 13.6949C29.2845 13.116 28.1879 12.3514 27.2533 11.4336C22.0818 6.27238 16.9857 3.0014 12.9009 2.22196C12.6681 2.17768 12.432 2.14996 12.1947 2.1391C12.0835 2.14372 11.9724 2.12689 11.8687 2.08961C11.7649 2.05233 11.6708 1.99543 11.5922 1.92262C11.5137 1.84981 11.4525 1.76267 11.4125 1.66676C11.3725 1.57085 11.3547 1.46828 11.3602 1.36564C11.3656 1.26301 11.3942 1.16259 11.4442 1.07075C11.4941 0.978914 11.5643 0.897686 11.6502 0.832328C11.7361 0.766971 11.8359 0.718897 11.9431 0.691176C12.0503 0.663455 12.1625 0.656709 12.2727 0.671358C12.5923 0.684998 12.9104 0.721259 13.224 0.779851C18.8773 1.85666 24.6106 6.62524 28.4271 10.4346C29.2416 11.2309 30.1961 11.8944 31.2502 12.3969C31.4057 12.4753 31.5286 12.5992 31.5996 12.749C31.6706 12.8988 31.6856 13.0662 31.6424 13.2248C31.5992 13.3834 31.5001 13.5243 31.3607 13.6252C31.2213 13.7262 31.0496 13.7816 30.8724 13.7827ZM4.06186 10.6715C4.26264 10.6755 4.46345 10.6641 4.6622 10.6376C5.57392 10.5547 7.47274 10.3775 8.34947 11.0517C9.08441 11.6166 9.39759 11.8577 10.8791 13.0471C12.0364 12.4085 13.2302 11.8278 14.4551 11.3077C13.1674 10.2798 12.104 9.42494 11.6661 9.058C10.4267 7.98902 9.68789 6.51602 9.60667 4.95209C9.51803 4.18193 9.13657 3.46566 8.53003 2.93051C7.92349 2.39536 7.13112 2.07593 6.2936 2.02894C4.98021 1.92866 3.65923 1.95062 2.35059 2.09441C2.29575 2.10386 2.24525 2.1283 2.20565 2.16458C2.16606 2.20086 2.13918 2.2473 2.12854 2.29785C2.11789 2.3484 2.12397 2.40072 2.14597 2.44805C2.16796 2.49538 2.20486 2.5355 2.25188 2.56322C2.27342 2.57564 2.43135 2.66429 3.53601 3.18779C4.67117 3.72867 6.0567 4.81371 6.13836 5.3985C6.08561 5.95638 5.86885 6.49038 5.51145 6.94289C5.15405 7.3954 4.66959 7.74927 4.11032 7.96629C3.06399 8.28105 1.1194 6.98058 0.458043 6.45295C0.410206 6.41561 0.350224 6.39413 0.287624 6.39188C0.225024 6.38963 0.163403 6.40677 0.112563 6.44056C0.0622908 6.47477 0.026054 6.52368 0.00975832 6.57934C-0.00653738 6.63499 -0.00193663 6.69411 0.0228211 6.74703C0.0326921 6.77023 0.283062 7.31439 1.19748 8.86665C1.50097 9.34402 1.91522 9.75347 2.41047 10.0655C2.90572 10.3776 3.46968 10.5845 4.06186 10.6715Z" stroke="#fff" stroke-width="2" mask="url(#path-1-inside-1_99_101)"/>
</svg>
