<svg width="63" height="27" viewBox="0 0 63 27" fill="none" xmlns="http://www.w3.org/2000/svg">
<mask id="path-1-inside-1_99_10" fill="white">
<path fill-rule="evenodd" clip-rule="evenodd" d="M60.2262 11.9718C60.0133 10.804 60.1555 7.81311 60.7938 6.57258C61.4321 5.33204 60.7938 5.40412 60.7938 5.40412C60.3461 5.45418 59.8941 5.45418 59.4464 5.40412C58.5244 5.33138 57.39 8.25018 56.7517 8.90682C56.1134 9.56345 55.1206 8.46909 50.2987 6.93628C45.4768 5.40347 41.0429 6.24095 37.6057 5.72062C34.3907 5.23371 31.8388 8.53856 31.8388 8.53856L29.9476 7.66368C29.1369 7.89809 28.3527 8.21564 27.6074 8.61127C26.1519 9.28608 24.6205 9.78358 23.0463 10.093C21.9074 10.3604 19.1688 9.12245 19.1688 9.12245L17.7506 12.1369L13.5906 12.3335L13.4019 16.4195L11.0374 18.3652L10.8487 20.8947L11.605 22.0619L14.1273 22.9138V19.605C14.1626 18.1498 14.7655 16.7661 15.8072 15.7493C16.8489 14.7326 18.2469 14.1634 19.7025 14.1634C21.1582 14.1634 22.5561 14.7326 23.5978 15.7493C24.6395 16.7661 25.2424 18.1498 25.2777 19.605V22.9164H45.4703V19.605C45.5056 18.1498 46.1084 16.7661 47.1501 15.7493C48.1918 14.7326 49.5898 14.1634 51.0454 14.1634C52.5011 14.1634 53.8991 14.7326 54.9408 15.7493C55.9825 16.7661 56.5854 18.1498 56.6206 19.605V22.2047C57.1261 22.0519 57.6451 21.948 58.1705 21.8948C59.3757 21.7486 60.1561 21.3109 60.936 19.9249C61.7158 18.5388 61.858 16.2767 61.9996 15.1823C62.1411 14.0879 60.4392 13.1389 60.2262 11.9718ZM49.9442 10.9502C48.1748 11.6055 35.0525 12.5557 31.0813 12.7012C27.11 12.8467 26.2594 13.1389 25.9042 12.1179C25.7784 11.7542 29.9672 9.16896 29.9672 9.16896L31.9332 10.6854C31.9332 10.6854 34.0912 7.81768 34.793 7.69448C37.7007 7.18398 43.6098 6.9402 46.6119 7.81571C50.0451 8.81378 51.7168 10.2935 49.9429 10.9502H49.9442ZM19.6681 24.4499C18.7823 24.4753 17.9091 24.2358 17.1601 23.7622C16.4112 23.2885 15.8206 22.6022 15.4639 21.791C15.1073 20.9797 15.0008 20.0805 15.1581 19.2085C15.3153 18.3364 15.7292 17.5311 16.3468 16.8955C16.9643 16.26 17.7575 15.8232 18.6247 15.641C19.4919 15.4587 20.3938 15.5394 21.2149 15.8727C22.036 16.206 22.739 16.7766 23.234 17.5117C23.7289 18.2467 23.9933 19.1127 23.9933 19.9989C24.008 21.1622 23.5608 22.2839 22.7498 23.118C21.9387 23.9521 20.8301 24.4306 19.6668 24.4485L19.6681 24.4499ZM19.6681 17.2996C19.1308 17.2838 18.6011 17.4287 18.1466 17.7158C17.6922 18.0028 17.3337 18.419 17.1171 18.9109C16.9006 19.4029 16.8357 19.9482 16.9309 20.4773C17.026 21.0063 17.277 21.4949 17.6514 21.8805C18.0259 22.2661 18.5069 22.5311 19.0329 22.6418C19.5589 22.7524 20.106 22.7036 20.604 22.5016C21.1021 22.2995 21.5286 21.9534 21.8288 21.5075C22.1291 21.0617 22.2894 20.5364 22.2894 19.9989C22.2989 19.2932 22.0281 18.6127 21.5364 18.1064C21.0448 17.6001 20.3724 17.3095 19.6668 17.2983L19.6681 17.2996ZM51.011 24.2546C50.1636 24.2791 49.3281 24.0502 48.6115 23.5971C47.8949 23.144 47.3298 22.4874 46.9886 21.7113C46.6473 20.9352 46.5454 20.075 46.6959 19.2406C46.8464 18.4063 47.2424 17.6358 47.8334 17.0278C48.4243 16.4199 49.1832 16.0021 50.0129 15.8279C50.8426 15.6538 51.7054 15.7312 52.4909 16.0503C53.2764 16.3694 53.9488 16.9156 54.4221 17.619C54.8953 18.3224 55.1479 19.1511 55.1475 19.9989C55.1615 21.1117 54.7335 22.1845 53.9574 22.9821C53.1813 23.7797 52.1205 24.2369 51.0078 24.2533L51.011 24.2546ZM51.011 17.4942C50.5126 17.48 50.0212 17.6148 49.5998 17.8815C49.1783 18.1481 48.846 18.5344 48.6454 18.991C48.4448 19.4475 48.3849 19.9535 48.4735 20.4443C48.5621 20.9351 48.7951 21.3882 49.1427 21.7458C49.4902 22.1034 49.9366 22.3492 50.4247 22.4517C50.9127 22.5542 51.4202 22.5087 51.8823 22.3211C52.3443 22.1335 52.7399 21.8123 53.0184 21.3986C53.2969 20.9849 53.4457 20.4976 53.4456 19.9989C53.4538 19.3437 53.2017 18.7121 52.7447 18.2426C52.2876 17.7731 51.6629 17.5042 51.0078 17.4949L51.011 17.4942ZM59.544 26.5332H0.400192V25.5115H59.5408V26.5332H59.544ZM16.8306 4.5096C16.8251 4.44505 16.7982 4.38415 16.7541 4.33665C16.7101 4.28915 16.6514 4.25776 16.5874 4.24746C16.5235 4.2392 16.4588 4.25279 16.4036 4.28597C16.3484 4.31916 16.306 4.37 16.2833 4.43029C15.9603 5.28221 14.8803 7.54246 13.7774 7.73972C13.1563 7.79222 12.5328 7.67155 11.9761 7.39114C11.4195 7.11072 10.9514 6.68154 10.6239 6.1512C10.3979 5.52209 11.0827 3.75532 11.8278 2.65634C12.5486 1.59209 12.6482 1.42299 12.6607 1.3994C12.689 1.34825 12.7016 1.28992 12.697 1.23165C12.6923 1.17338 12.6706 1.11774 12.6345 1.07174C12.5999 1.02632 12.5521 0.992706 12.4977 0.975464C12.4433 0.958222 12.3849 0.958215 12.3304 0.975424C11.0756 1.47409 9.87496 2.09947 8.74708 2.84181C8.01194 3.31327 7.46319 4.02524 7.19452 4.85623C6.92586 5.68721 6.95393 6.58569 7.27392 7.39829C8.00735 9.01393 8.101 10.8475 7.53603 12.5295C6.9364 14.2445 3.6657 22.7689 2.62832 25.4708H6.82894L7.68086 23.1851C10.9214 14.4876 10.9215 14.4876 11.5525 12.9102C11.9949 11.806 13.7944 11.0517 14.6588 10.69C14.8515 10.6179 15.038 10.5303 15.2165 10.4279C15.7092 10.044 16.1119 9.55705 16.3965 9.00109C16.6811 8.44514 16.8407 7.83367 16.8639 7.20954C16.8849 5.20556 16.8292 4.53581 16.8273 4.50828L16.8306 4.5096Z"/>
</mask>
<path fill-rule="evenodd" clip-rule="evenodd" d="M60.2262 11.9718C60.0133 10.804 60.1555 7.81311 60.7938 6.57258C61.4321 5.33204 60.7938 5.40412 60.7938 5.40412C60.3461 5.45418 59.8941 5.45418 59.4464 5.40412C58.5244 5.33138 57.39 8.25018 56.7517 8.90682C56.1134 9.56345 55.1206 8.46909 50.2987 6.93628C45.4768 5.40347 41.0429 6.24095 37.6057 5.72062C34.3907 5.23371 31.8388 8.53856 31.8388 8.53856L29.9476 7.66368C29.1369 7.89809 28.3527 8.21564 27.6074 8.61127C26.1519 9.28608 24.6205 9.78358 23.0463 10.093C21.9074 10.3604 19.1688 9.12245 19.1688 9.12245L17.7506 12.1369L13.5906 12.3335L13.4019 16.4195L11.0374 18.3652L10.8487 20.8947L11.605 22.0619L14.1273 22.9138V19.605C14.1626 18.1498 14.7655 16.7661 15.8072 15.7493C16.8489 14.7326 18.2469 14.1634 19.7025 14.1634C21.1582 14.1634 22.5561 14.7326 23.5978 15.7493C24.6395 16.7661 25.2424 18.1498 25.2777 19.605V22.9164H45.4703V19.605C45.5056 18.1498 46.1084 16.7661 47.1501 15.7493C48.1918 14.7326 49.5898 14.1634 51.0454 14.1634C52.5011 14.1634 53.8991 14.7326 54.9408 15.7493C55.9825 16.7661 56.5854 18.1498 56.6206 19.605V22.2047C57.1261 22.0519 57.6451 21.948 58.1705 21.8948C59.3757 21.7486 60.1561 21.3109 60.936 19.9249C61.7158 18.5388 61.858 16.2767 61.9996 15.1823C62.1411 14.0879 60.4392 13.1389 60.2262 11.9718ZM49.9442 10.9502C48.1748 11.6055 35.0525 12.5557 31.0813 12.7012C27.11 12.8467 26.2594 13.1389 25.9042 12.1179C25.7784 11.7542 29.9672 9.16896 29.9672 9.16896L31.9332 10.6854C31.9332 10.6854 34.0912 7.81768 34.793 7.69448C37.7007 7.18398 43.6098 6.9402 46.6119 7.81571C50.0451 8.81378 51.7168 10.2935 49.9429 10.9502H49.9442ZM19.6681 24.4499C18.7823 24.4753 17.9091 24.2358 17.1601 23.7622C16.4112 23.2885 15.8206 22.6022 15.4639 21.791C15.1073 20.9797 15.0008 20.0805 15.1581 19.2085C15.3153 18.3364 15.7292 17.5311 16.3468 16.8955C16.9643 16.26 17.7575 15.8232 18.6247 15.641C19.4919 15.4587 20.3938 15.5394 21.2149 15.8727C22.036 16.206 22.739 16.7766 23.234 17.5117C23.7289 18.2467 23.9933 19.1127 23.9933 19.9989C24.008 21.1622 23.5608 22.2839 22.7498 23.118C21.9387 23.9521 20.8301 24.4306 19.6668 24.4485L19.6681 24.4499ZM19.6681 17.2996C19.1308 17.2838 18.6011 17.4287 18.1466 17.7158C17.6922 18.0028 17.3337 18.419 17.1171 18.9109C16.9006 19.4029 16.8357 19.9482 16.9309 20.4773C17.026 21.0063 17.277 21.4949 17.6514 21.8805C18.0259 22.2661 18.5069 22.5311 19.0329 22.6418C19.5589 22.7524 20.106 22.7036 20.604 22.5016C21.1021 22.2995 21.5286 21.9534 21.8288 21.5075C22.1291 21.0617 22.2894 20.5364 22.2894 19.9989C22.2989 19.2932 22.0281 18.6127 21.5364 18.1064C21.0448 17.6001 20.3724 17.3095 19.6668 17.2983L19.6681 17.2996ZM51.011 24.2546C50.1636 24.2791 49.3281 24.0502 48.6115 23.5971C47.8949 23.144 47.3298 22.4874 46.9886 21.7113C46.6473 20.9352 46.5454 20.075 46.6959 19.2406C46.8464 18.4063 47.2424 17.6358 47.8334 17.0278C48.4243 16.4199 49.1832 16.0021 50.0129 15.8279C50.8426 15.6538 51.7054 15.7312 52.4909 16.0503C53.2764 16.3694 53.9488 16.9156 54.4221 17.619C54.8953 18.3224 55.1479 19.1511 55.1475 19.9989C55.1615 21.1117 54.7335 22.1845 53.9574 22.9821C53.1813 23.7797 52.1205 24.2369 51.0078 24.2533L51.011 24.2546ZM51.011 17.4942C50.5126 17.48 50.0212 17.6148 49.5998 17.8815C49.1783 18.1481 48.846 18.5344 48.6454 18.991C48.4448 19.4475 48.3849 19.9535 48.4735 20.4443C48.5621 20.9351 48.7951 21.3882 49.1427 21.7458C49.4902 22.1034 49.9366 22.3492 50.4247 22.4517C50.9127 22.5542 51.4202 22.5087 51.8823 22.3211C52.3443 22.1335 52.7399 21.8123 53.0184 21.3986C53.2969 20.9849 53.4457 20.4976 53.4456 19.9989C53.4538 19.3437 53.2017 18.7121 52.7447 18.2426C52.2876 17.7731 51.6629 17.5042 51.0078 17.4949L51.011 17.4942ZM59.544 26.5332H0.400192V25.5115H59.5408V26.5332H59.544ZM16.8306 4.5096C16.8251 4.44505 16.7982 4.38415 16.7541 4.33665C16.7101 4.28915 16.6514 4.25776 16.5874 4.24746C16.5235 4.2392 16.4588 4.25279 16.4036 4.28597C16.3484 4.31916 16.306 4.37 16.2833 4.43029C15.9603 5.28221 14.8803 7.54246 13.7774 7.73972C13.1563 7.79222 12.5328 7.67155 11.9761 7.39114C11.4195 7.11072 10.9514 6.68154 10.6239 6.1512C10.3979 5.52209 11.0827 3.75532 11.8278 2.65634C12.5486 1.59209 12.6482 1.42299 12.6607 1.3994C12.689 1.34825 12.7016 1.28992 12.697 1.23165C12.6923 1.17338 12.6706 1.11774 12.6345 1.07174C12.5999 1.02632 12.5521 0.992706 12.4977 0.975464C12.4433 0.958222 12.3849 0.958215 12.3304 0.975424C11.0756 1.47409 9.87496 2.09947 8.74708 2.84181C8.01194 3.31327 7.46319 4.02524 7.19452 4.85623C6.92586 5.68721 6.95393 6.58569 7.27392 7.39829C8.00735 9.01393 8.101 10.8475 7.53603 12.5295C6.9364 14.2445 3.6657 22.7689 2.62832 25.4708H6.82894L7.68086 23.1851C10.9214 14.4876 10.9215 14.4876 11.5525 12.9102C11.9949 11.806 13.7944 11.0517 14.6588 10.69C14.8515 10.6179 15.038 10.5303 15.2165 10.4279C15.7092 10.044 16.1119 9.55705 16.3965 9.00109C16.6811 8.44514 16.8407 7.83367 16.8639 7.20954C16.8849 5.20556 16.8292 4.53581 16.8273 4.50828L16.8306 4.5096Z" stroke="#FC4B55" stroke-width="2" mask="url(#path-1-inside-1_99_10)"/>
</svg>
