<svg width="61" height="27" viewBox="0 0 61 27" fill="none" xmlns="http://www.w3.org/2000/svg">
<path d="M35.6611 7.58369H42.383L32.3314 18.0749L31.521 18.9208H32.6925H33.8581L25.6917 23.8273L26.5247 18.9208H28.8549H29.07L29.2179 18.7646L37.4751 10.0449L38.2741 9.20108H37.112H29.5151L37.5062 0.825317H40.9385L35.2993 6.73862L34.4934 7.58369H35.6611ZM17.2851 21.1285L23.157 21.0424L22.9884 22.0355L18.3345 22.1065L18.0112 22.1114L17.883 22.4083C17.4222 23.4764 16.6614 24.3879 15.693 25.0324C14.7246 25.6769 13.5901 26.0268 12.4269 26.0396C11.2637 26.0524 10.1217 25.7276 9.13936 25.1045C8.15699 24.4815 7.37635 23.587 6.89206 22.5293L6.75667 22.2336L6.43148 22.2375L3.9654 22.267C3.54218 22.2666 2.93211 22.176 2.3717 21.9214C1.81855 21.6701 1.34796 21.2767 1.11215 20.6834C0.751694 19.5889 0.547769 18.4489 0.506444 17.2973C0.506436 17.2971 0.506429 17.2969 0.506422 17.2967L0.503101 17.1972L0.535953 17.1059C0.535978 17.1058 0.536002 17.1057 0.536027 17.1057C0.570653 17.0099 1.30135 15.0135 1.55453 14.4407L1.55463 14.4405C1.65635 14.21 1.89803 13.9278 2.34007 13.6149C2.77552 13.3067 3.36813 12.995 4.11245 12.691C5.60032 12.0832 7.63918 11.5285 10.1035 11.0878C14.9636 10.2192 17.5371 9.95997 18.3645 9.89134L18.5137 9.87896L18.6316 9.78654C20.2883 8.48768 22.0243 7.29317 23.8293 6.20991C24.2102 6.00791 24.5706 5.81139 24.9142 5.62299L24.9248 5.61718L24.9351 5.61086C26.0578 4.92282 27.2692 4.39136 28.5357 4.03119C29.5911 3.79719 30.6612 3.63711 31.7382 3.55199L30.8149 4.64675C30.1221 4.7226 29.4342 4.83881 28.7548 4.99477L28.7399 4.99819L28.7252 5.00253C27.5458 5.35045 26.4179 5.85327 25.3708 6.49789C25.0181 6.6908 24.6552 6.88923 24.2704 7.09121L24.2561 7.09871L24.2424 7.10711C22.4214 8.21844 20.6661 9.43414 18.9854 10.7481C18.9851 10.7484 18.9847 10.7486 18.9844 10.7489L18.8661 10.8403L18.7134 10.8494L18.7055 10.8499L18.6977 10.8506C15.8691 11.1088 13.0555 11.5108 10.2677 12.055C4.24173 13.1331 2.76364 14.4774 2.52199 14.7383L2.46301 14.802L2.42895 14.8819C2.23273 15.342 1.76048 16.6091 1.5244 17.2516L1.4897 17.3461L1.49423 17.4466C1.53745 18.4065 1.70994 19.3563 2.00708 20.2701L2.01153 20.2838L2.01675 20.2972C2.21258 20.7993 2.73094 21.0215 3.05873 21.123C3.42166 21.2354 3.78705 21.2708 3.95378 21.2708V21.2709L3.95971 21.2708L7.45974 21.2293L7.57215 21.5711C7.57225 21.5714 7.57235 21.5717 7.57245 21.572C7.9042 22.5908 8.55228 23.4772 9.42248 24.1024C10.2929 24.7277 11.3402 25.059 12.412 25.0481C13.4837 25.0371 14.524 24.6845 15.3815 24.0415C16.2387 23.3986 16.8686 22.4991 17.1795 21.4737C17.1796 21.4734 17.1796 21.4731 17.1797 21.4729L17.2851 21.1285ZM46.1945 5.02061C45.0096 4.66816 43.3767 4.43514 40.7106 4.37544L41.6258 3.4155C44.2257 3.52062 45.7619 3.80754 46.8519 4.17735C47.7361 4.47735 48.333 4.83076 49.0095 5.23134C49.1942 5.34069 49.3848 5.45356 49.5889 5.56982C49.5889 5.56984 49.5889 5.56985 49.5889 5.56986L49.851 5.71922L49.8613 5.72511L49.8719 5.7305C49.9937 5.79242 53.4621 7.5859 54.5938 8.29845L54.6007 8.30278L54.6077 8.30689C54.8623 8.45582 55.0907 8.64544 55.284 8.86821L55.4089 9.01207L55.5978 9.0364C55.6908 9.04838 55.8226 9.06333 56.006 9.08134L56.0072 9.08145L56.1636 9.09645C56.1638 9.09647 56.1639 9.09648 56.164 9.09649C57.2845 9.20571 58.3968 9.31693 59.2315 9.59855C59.645 9.73806 59.9454 9.90561 60.1379 10.0984C60.3163 10.2771 60.4167 10.4906 60.4167 10.7856C60.4167 10.874 60.4195 11.0331 60.4234 11.2407C60.5022 15.4514 60.3352 17.7935 60.0572 19.1258C59.9187 19.7891 59.759 20.1694 59.6119 20.3978C59.4753 20.61 59.3388 20.7085 59.1912 20.7856C58.7723 20.9979 58.0246 21.1788 57.1269 21.3209C56.2458 21.4603 55.28 21.5539 54.4675 21.615L54.1374 21.6398L54.0313 21.9534C53.6338 23.1291 52.8822 24.153 51.8797 24.8846C50.8771 25.6161 49.6727 26.0196 48.4318 26.0394C47.1909 26.0593 45.9742 25.6947 44.9488 24.9957C43.9233 24.2966 43.1393 23.2973 42.7043 22.1349L42.5809 21.8054L42.2291 21.8102L33.5304 21.9307L35.2073 20.9229L43.3443 20.8079L43.4364 21.1869C43.4365 21.1872 43.4366 21.1875 43.4367 21.1878C43.7018 22.2996 44.3374 23.2881 45.2389 23.9907C46.1407 24.6935 47.2548 25.0684 48.398 25.0538C49.5412 25.0391 50.6454 24.6358 51.5288 23.9101C52.412 23.1847 53.0221 22.1803 53.2587 21.0621C53.2588 21.0618 53.2588 21.0614 53.2589 21.061L53.3374 20.6963L53.7006 20.6741C55.3358 20.6297 56.9605 20.3983 58.5431 19.9846L58.7517 19.93L58.8553 19.7409C59.0048 19.4677 59.1744 18.9099 59.299 17.6803C59.4252 16.4335 59.5091 14.4451 59.4494 11.2659V11.2655V11.2651V11.2646V11.2642V11.2638V11.2634V11.263V11.2625V11.2621V11.2617V11.2613V11.2608V11.2604V11.26V11.2596V11.2592V11.2587V11.2583V11.2579V11.2575V11.257V11.2566V11.2562V11.2558V11.2554V11.2549V11.2545V11.2541V11.2537V11.2533V11.2529V11.2524V11.252V11.2516V11.2512V11.2508V11.2503V11.2499V11.2495V11.2491V11.2487V11.2483V11.2478V11.2474V11.247V11.2466V11.2462V11.2458V11.2453V11.2449V11.2445V11.2441V11.2437V11.2433V11.2429V11.2424V11.242V11.2416V11.2412V11.2408V11.2404V11.24V11.2395V11.2391V11.2387V11.2383V11.2379V11.2375V11.2371V11.2367V11.2362V11.2358V11.2354V11.235V11.2346V11.2342V11.2338V11.2334V11.233V11.2325V11.2321V11.2317V11.2313V11.2309V11.2305V11.2301V11.2297V11.2293V11.2289V11.2284V11.228V11.2276V11.2272V11.2268V11.2264V11.226V11.2256V11.2252V11.2248V11.2244V11.224V11.2236V11.2232V11.2227V11.2223V11.2219V11.2215V11.2211V11.2207V11.2203V11.2199V11.2195V11.2191V11.2187V11.2183V11.2179V11.2175V11.2171V11.2167V11.2163V11.2159V11.2155V11.2151V11.2147V11.2143V11.2139V11.2134V11.213V11.2126V11.2122V11.2118V11.2114V11.211V11.2106V11.2102V11.2098V11.2094V11.209V11.2086V11.2082V11.2078V11.2074V11.207V11.2066V11.2062V11.2058V11.2054V11.205V11.2046V11.2042V11.2038V11.2034V11.203V11.2026V11.2022V11.2019V11.2015V11.2011V11.2007V11.2003V11.1999V11.1995V11.1991V11.1987V11.1983V11.1979V11.1975V11.1971V11.1967V11.1963V11.1959V11.1955V11.1951V11.1947V11.1943V11.1939V11.1935V11.1931V11.1928V11.1924V11.192V11.1916V11.1912V11.1908V11.1904V11.19V11.1896V11.1892V11.1888V11.1884V11.188V11.1876V11.1873V11.1869V11.1865V11.1861V11.1857V11.1853V11.1849V11.1845V11.1841V11.1837V11.1834V11.183V11.1826V11.1822V11.1818V11.1814V11.181V11.1806V11.1802V11.1798V11.1795V11.1791V11.1787V11.1783V11.1779V11.1775V11.1771V11.1767V11.1764V11.176V11.1756V11.1752V11.1748V11.1744V11.174V11.1737V11.1733V11.1729V11.1725V11.1721V11.1717V11.1713V11.171V11.1706V11.1702V11.1698V11.1694V11.169V11.1687V11.1683V11.1679V11.1675V11.1671V11.1667V11.1664V11.166V11.1656V11.1652V11.1648V11.1644V11.1641V11.1637V11.1633V11.1629V11.1625V11.1622V11.1618V11.1614V11.161V11.1606V11.1603V11.1599V11.1595V11.1591V11.1587V11.1584V11.158V11.1576V11.1572V11.1568V11.1565V11.1561V11.1557V11.1553V11.1549V11.1546V11.1542V11.1538V11.1534V11.1531V11.1527V11.1523V11.1519V11.1515V11.1512V11.1508V11.1504V11.15V11.1497V11.1493V11.1489V11.1485V11.1482V11.1478V11.1474V11.147V11.1467V11.1463V11.1459V11.1455V11.1452V11.1448V11.1444V11.144V11.1437V11.1433V11.1429V11.1425V11.1422V11.1418V11.1414V11.1411V11.1407V11.1403V11.1399V11.1396V11.1392V11.1388V11.1385V11.1381V11.1377V11.1373V11.137V11.1366V11.1362V11.1359V11.1355V11.1351V11.1347V11.1344V11.134V11.1336V11.1333V11.1329V11.1325V11.1322V11.1318V11.1314V11.1311V11.1307V11.1303V11.13V11.1296V11.1292V11.1288V11.1285V11.1281V11.1277V11.1274V11.127V11.1266V11.1263V11.1259V11.1255V11.1252V11.1248V11.1244V11.1241V11.1237V11.1234V11.123V11.1226V11.1223V11.1219V11.1215V11.1212V11.1208V11.1204V11.1201V11.1197V11.1193V11.119V11.1186V11.1183V11.1179V11.1175V11.1172V11.1168V11.1164V11.1161V11.1157V11.1154V11.115V11.1146V11.1143V11.1139V11.1135V11.1132V11.1128V11.1125V11.1121V11.1117V11.1114V11.111V11.1107V11.1103V11.1099V11.1096V11.1092V11.1089V11.1085V11.1081V11.1078V11.1074V11.1071V11.1067V11.1063V11.106V11.1056V11.1053V11.1049V11.1046V11.1042V11.1038V11.1035V11.1031V11.1028V11.1024V11.1021V11.1017V11.1013V11.101V11.1006V11.1003V11.0999V11.0996V11.0992V11.0989V11.0985V11.0981V11.0978V11.0974V11.0971V11.0967V11.0964V11.096V11.0957V11.0953V11.0949V11.0946V11.0942V11.0939V11.0935V11.0932V11.0928V11.0925V11.0921V11.0918V11.0914V11.0911V11.0907V11.0904V11.09V11.0897V11.0893V11.089V11.0886V11.0883V11.0879V11.0875V11.0872V11.0868V11.0865V11.0861V11.0858V11.0854V11.0851V11.0847V11.0844V11.084V11.0837V11.0833V11.083V11.0826V11.0823V11.082V11.0816V11.0813V11.0809V11.0806V11.0802V11.0799V11.0795V11.0792V11.0788V11.0785V11.0781V11.0778V11.0774V11.0771V11.0767V11.0764V11.076V11.0757V11.0754V11.075V11.0747V11.0743V11.074V10.6958L59.0856 10.5929C58.1022 10.3146 57.0917 10.1429 56.0716 10.0807L55.9218 10.0659L55.9216 10.0659C55.489 10.0233 55.2249 9.99429 55.0178 9.92161C54.8464 9.86149 54.7154 9.77095 54.5837 9.5669L54.5699 9.54558L54.5541 9.52575C54.4202 9.35839 54.2524 9.22157 54.0617 9.12424C53.4914 8.76885 52.3358 8.14213 51.3303 7.60765C50.8175 7.33512 50.3379 7.08349 49.9844 6.89888C49.8076 6.80656 49.6622 6.73097 49.5599 6.67785L49.4402 6.61576L49.4073 6.59871L49.4023 6.59614L49.1106 6.43091C49.1106 6.43087 49.1105 6.43082 49.1104 6.43078C48.9496 6.33927 48.7932 6.24688 48.6371 6.15464C47.9396 5.74268 47.2474 5.33378 46.1945 5.02061Z" stroke="#FC4B55"/>
</svg>
