<svg width="100" height="23" viewBox="0 0 100 23" fill="none" xmlns="http://www.w3.org/2000/svg">
<mask id="path-1-outside-1_99_213" maskUnits="userSpaceOnUse" x="0.600174" y="0.530518" width="99" height="23" fill="black">
<rect fill="white" x="0.600174" y="0.530518" width="99" height="23"/>
<path fill-rule="evenodd" clip-rule="evenodd" d="M9.13286 15.1397C8.22812 13.9437 7.57293 12.578 7.2062 11.1238C7.17998 11.0314 7.16033 10.9391 7.13412 10.846C7.33072 10.6868 7.5273 10.5327 7.73045 10.3873C8.60643 9.75296 9.56571 9.24246 10.5811 8.87018C13.0543 7.98454 15.7396 7.87884 18.2747 8.5674C19.7699 8.98107 21.17 9.68249 22.3967 10.6323C22.4622 10.6828 22.5278 10.7339 22.5867 10.7857C22.6194 10.8352 22.6363 10.8935 22.6351 10.9528C22.634 11.0122 22.6148 11.0697 22.5802 11.1179C22.417 11.7532 22.1977 12.3728 21.9248 12.9693C21.5895 13.7246 21.1672 14.4382 20.6666 15.0958C19.1221 13.5894 17.0476 12.7502 14.8902 12.7589C12.7328 12.7676 10.6652 13.6236 9.13286 15.1423V15.1397ZM83.5452 2.46307C83.1979 2.46307 79.9343 2.45521 79.9343 2.46307C79.9278 3.78552 79.9278 5.10859 79.9212 6.43039C79.9212 6.50444 79.9671 6.64142 79.8753 6.64142H78.9382C78.7416 6.64142 78.6827 6.58179 78.6827 6.77249V9.30532C78.8236 9.3802 78.988 9.39735 79.1413 9.35316H79.9212V13.154C79.9212 14.8402 79.8295 17.2014 81.7299 18.0035C82.4024 18.2545 83.1159 18.3769 83.8335 18.3645C84.3185 18.3737 84.8034 18.3534 85.2883 18.3187C85.5701 18.299 85.8454 18.2734 86.1272 18.2433C86.2517 18.2309 86.2255 18.2309 86.2255 18.1247C86.2189 17.2204 86.2123 16.3147 86.2058 15.4077C85.3408 15.43 83.9777 15.5873 83.6238 14.5853C83.5121 14.0518 83.4856 13.5039 83.5452 12.9621V9.53599C83.5452 9.36233 83.5059 9.3512 83.6894 9.3512H85.924C86.101 9.3512 86.0223 9.15459 86.0223 9.00517V6.74693C86.0274 6.7296 86.0289 6.71138 86.0267 6.69345C86.0244 6.67552 86.0185 6.65826 86.0092 6.64274H83.5518C83.5387 6.64274 83.5452 2.86344 83.5452 2.46435V2.46307ZM47.109 14.9333C46.4768 14.6572 45.9657 14.1621 45.6695 13.5391C45.3733 12.9162 45.312 12.2072 45.4969 11.5426C45.6293 10.8984 45.9964 10.3265 46.5268 9.93773C47.0572 9.54899 47.7131 9.37124 48.3672 9.43899C51.4473 9.69522 51.6439 14.5997 48.5835 15.0623C48.0887 15.1421 47.5819 15.0971 47.109 14.9313V14.9333ZM42.0499 17.972H45.3855C45.4789 17.9864 45.5739 17.9864 45.6673 17.972C45.7024 17.7882 45.7046 17.5996 45.6739 17.415C45.6739 17.2112 45.6804 17.0087 45.6804 16.8062C46.0678 17.3137 46.5724 17.7199 47.151 17.99C47.7296 18.26 48.365 18.3858 49.0029 18.3567C49.6744 18.3645 50.3406 18.2374 50.962 17.9829C51.5834 17.7283 52.1473 17.3516 52.6203 16.875C53.6389 15.7707 54.2659 14.3619 54.4045 12.866C54.543 11.3701 54.1855 9.87013 53.3871 8.59756C52.9592 7.93062 52.3789 7.37489 51.6942 6.97612C51.0094 6.57735 50.2398 6.34694 49.4486 6.30391C48.6582 6.25449 47.867 6.38608 47.1352 6.68861C46.5548 6.95442 46.0502 7.36127 45.6673 7.87211C45.6739 6.05358 45.6673 4.23571 45.6739 2.41783L42.0499 2.41391V17.9694V17.972ZM26.3286 16.2655C28.4448 11.8021 28.8051 6.70602 27.3378 1.98925C27.3292 1.81902 27.2621 1.65697 27.1478 1.53052H22.2459C23.7356 4.39469 24.1561 7.69588 23.432 10.842C23.1053 12.3298 22.5029 13.7432 21.6561 15.0093C21.5447 15.1757 21.4268 15.337 21.3088 15.4982C21.2236 15.6037 21.1515 15.6167 21.2498 15.7282C21.5541 16.0912 21.8301 16.477 22.0756 16.8822C22.4656 17.5323 22.7717 18.2292 22.9865 18.9563C23.1372 19.476 23.2093 20.0048 23.3141 20.5343C24.5518 19.2903 25.5709 17.8464 26.3286 16.2636V16.2655ZM3.49575 16.2636C4.25809 17.8452 5.27715 19.2897 6.51155 20.5383C6.61899 19.8804 6.76828 19.2301 6.95849 18.5913C7.31505 17.5448 7.86648 16.5754 8.58369 15.7341C8.67543 15.6207 8.60337 15.6083 8.52473 15.5034C8.3421 15.268 8.17148 15.0234 8.01355 14.7707C7.59688 14.1243 7.24774 13.4367 6.97161 12.7189C5.80811 9.70178 5.74844 6.37051 6.80318 3.31367C7.01573 2.70011 7.27877 2.10523 7.58958 1.53512H2.71919C2.59533 1.53512 2.62481 1.58297 2.57959 1.71731C2.44853 2.11618 2.32925 2.51874 2.22177 2.92505C1.8122 4.51309 1.60349 6.14627 1.60052 7.78628C1.58289 10.7215 2.23276 13.6223 3.50099 16.2695L3.49575 16.2636ZM90.3199 10.6481C90.7039 10.1077 91.2785 9.73282 91.9278 9.59906C92.5771 9.46531 93.2531 9.58256 93.8194 9.92721C94.4049 10.3654 94.8159 10.9972 94.9791 11.71C95.1423 12.4229 95.0472 13.1706 94.7106 13.8198C94.5403 14.128 94.3098 14.3988 94.0331 14.6165C93.7563 14.8341 93.4387 14.9941 93.0991 15.087C92.7595 15.1799 92.4047 15.2039 92.0557 15.1574C91.7067 15.111 91.3705 14.9951 91.067 14.8166C89.7498 14.0302 89.5139 12.133 90.1889 10.8742C90.2282 10.7975 90.274 10.7221 90.3199 10.6487V10.6481ZM86.5059 10.6487C86.1052 12.1631 86.2514 13.7703 86.9188 15.1875C87.5684 16.4602 88.6759 17.4397 90.0185 17.9288C92.6529 18.9176 95.9754 18.1778 97.5678 15.8317C99.2586 13.3506 98.8392 9.54517 96.4079 7.65324C95.2192 6.78266 93.7772 6.32707 92.3041 6.35667C90.831 6.38627 89.4085 6.89943 88.2557 7.81708C87.3979 8.56205 86.7876 9.55074 86.5059 10.6514V10.6487ZM69.2119 17.7564C70.7252 18.2848 72.3335 18.4858 73.9303 18.3462C75.2341 18.3315 76.4795 17.8036 77.3969 16.877C77.8258 16.3602 78.1139 15.7413 78.2333 15.0805C78.3527 14.4196 78.2994 13.7391 78.0784 13.1049C77.6001 11.8768 76.1649 11.2444 74.9132 11.0078C74.2784 10.9778 73.6592 10.8006 73.1045 10.4901C72.9849 10.3792 72.8961 10.239 72.847 10.0834C72.798 9.92772 72.7903 9.762 72.8246 9.60246C72.859 9.44293 72.9343 9.2951 73.0431 9.17349C73.1519 9.05187 73.2905 8.96068 73.4452 8.90886C74.3071 8.69476 75.2094 8.70444 76.0666 8.93702C76.4729 9.00255 76.8727 9.08511 77.279 9.18341C77.4402 9.23645 77.6043 9.28022 77.7705 9.31448L77.7508 7.3413C77.7508 7.19254 77.7442 7.04247 77.7442 6.8924C77.7442 6.72202 77.7639 6.73775 77.5738 6.66369C76.8186 6.39773 76.0278 6.24661 75.2278 6.21544C73.796 6.0277 72.34 6.18499 70.9813 6.67417C70.4123 6.92872 69.9242 7.33486 69.5706 7.84815C69.2169 8.36145 69.0112 8.96211 68.976 9.58447C68.8514 10.9384 69.2381 12.2117 70.5356 12.888C71.1651 13.1848 71.8337 13.3903 72.5213 13.4981C73.1596 13.5291 73.7738 13.7515 74.2841 14.1364C74.3678 14.2389 74.4268 14.3593 74.4566 14.4883C74.4863 14.6172 74.4859 14.7513 74.4555 14.8801C74.4251 15.0089 74.3655 15.129 74.2812 15.2311C74.1969 15.3332 74.0903 15.4144 73.9695 15.4686C73.5116 15.6818 73.0025 15.7603 72.5016 15.6948C71.9049 15.6831 71.3096 15.6337 70.7191 15.5466C70.1896 15.4955 69.6764 15.3353 69.2119 15.0761V17.7551V17.7564ZM60.5616 14.9306C59.9301 14.6541 59.4198 14.1586 59.1248 13.5355C58.8297 12.9125 58.7697 12.2037 58.956 11.54C59.0884 10.8958 59.4554 10.3239 59.9859 9.93513C60.5163 9.54639 61.1722 9.36864 61.8263 9.43639C64.9064 9.69263 65.0964 14.5964 62.0426 15.0597C61.5457 15.1389 61.0369 15.0938 60.5616 14.9287V14.9306ZM55.7122 14.9287C56.0404 15.8847 56.6469 16.7208 57.4537 17.3297C58.2606 17.9385 59.2311 18.2923 60.2405 18.3455C60.9449 18.3861 61.6493 18.2665 62.3008 17.9956C62.9523 17.7248 63.534 17.3099 64.002 16.7819V17.759C64.002 18.0166 63.943 18.0382 64.1986 18.0382H67.5211C67.6194 18.0382 67.6195 18.0566 67.6195 17.9661V6.67285C67.2073 6.64228 66.7938 6.63549 66.3809 6.65253H64.1724C63.9365 6.65253 64.002 6.70038 64.002 6.93892V7.87803C63.7218 7.4903 63.3704 7.15936 62.9666 6.90288C62.4 6.58905 61.7714 6.4038 61.1252 6.36027C59.8047 6.20477 58.4715 6.51664 57.357 7.2417C56.3063 8.05547 55.6074 9.241 55.4042 10.5544C55.1118 12.0139 55.2181 13.5252 55.7122 14.9293V14.9287ZM32.5464 13.5905C32.5333 13.4489 32.5267 13.3067 32.5267 13.1639H41.0394C41.1092 12.9694 41.1468 12.7649 41.1508 12.5584C41.1943 11.0688 40.7375 9.60764 39.8533 8.40817C38.1232 6.19316 34.6565 5.60402 32.1007 6.73577C29.4139 7.92388 28.4768 10.9266 28.9158 13.5905H32.5464ZM33.4769 9.30992C33.8077 9.06411 34.1952 8.90558 34.6034 8.84894C35.0116 8.7923 35.4275 8.83936 35.8128 8.98582C36.198 9.13227 36.5402 9.37341 36.8077 9.68694C37.0752 10.0005 37.2594 10.3763 37.3433 10.7798H32.5922C32.696 10.1971 33.011 9.67299 33.4769 9.30792V9.30992ZM32.5464 13.5885C32.5683 14.1419 32.7867 14.6692 33.1623 15.0761C33.6183 15.4363 34.172 15.6512 34.7515 15.6931C35.3311 15.7349 35.9099 15.6017 36.4128 15.3107C36.6352 15.1388 36.8241 14.9273 36.9698 14.6868C37.0419 14.5794 37.0288 14.5984 37.1468 14.5984C38.3591 14.5984 39.5649 14.5984 40.7772 14.5984C40.3026 15.838 39.4408 16.8916 38.3198 17.6024C37.1088 18.3081 35.7011 18.6006 34.3092 18.436C33.005 18.3423 31.7619 17.8469 30.7508 17.0178C29.7534 16.1278 29.1033 14.9134 28.9158 13.5898"/>
</mask>
<path d="M9.13286 15.1397H10.1329V14.8041L9.93038 14.5364L9.13286 15.1397ZM7.2062 11.1238L8.17583 10.8793L8.17224 10.865L8.16823 10.8509L7.2062 11.1238ZM7.13412 10.846L6.5047 10.0689L5.99305 10.4834L6.17158 11.1171L7.13412 10.846ZM7.73045 10.3873L8.31269 11.2003L8.31694 11.1972L7.73045 10.3873ZM10.5811 8.87018L10.244 7.9287L10.2369 7.93129L10.5811 8.87018ZM18.2747 8.5674L18.5413 7.60359L18.5368 7.60236L18.2747 8.5674ZM22.3967 10.6323L21.7844 11.423L21.7866 11.4247L22.3967 10.6323ZM22.5867 10.7857L23.4213 10.2348L23.3473 10.1227L23.2464 10.0341L22.5867 10.7857ZM22.5802 11.1179L21.768 10.5346L21.6583 10.6872L21.6116 10.8692L22.5802 11.1179ZM21.9248 12.9693L21.0154 12.5532L21.0109 12.5635L21.9248 12.9693ZM20.6666 15.0958L19.9684 15.8117L20.7775 16.6009L21.4622 15.7015L20.6666 15.0958ZM9.13286 15.1423H8.13286V17.5414L9.83682 15.8525L9.13286 15.1423ZM83.5452 2.46307H84.5452V1.46307H83.5452V2.46307ZM79.9343 2.46307L80.9343 2.46803V2.46307H79.9343ZM79.9212 6.43039L78.9212 6.42543V6.43039H79.9212ZM78.6827 9.30532H77.6827V9.90633L78.2134 10.1884L78.6827 9.30532ZM79.1413 9.35316V8.35316H79.0001L78.8644 8.39228L79.1413 9.35316ZM79.9212 9.35316H80.9212V8.35316H79.9212V9.35316ZM81.7299 18.0035L81.3411 18.9248L81.3605 18.933L81.3802 18.9403L81.7299 18.0035ZM83.8335 18.3645L83.8524 17.3647L83.8343 17.3644L83.8163 17.3647L83.8335 18.3645ZM85.2883 18.3187L85.2187 17.3211L85.2169 17.3212L85.2883 18.3187ZM86.1272 18.2433L86.0276 17.2482L86.0208 17.249L86.1272 18.2433ZM86.2255 18.1247H87.2255L87.2254 18.1175L86.2255 18.1247ZM86.2058 15.4077L87.2058 15.4005L87.1984 14.3818L86.18 14.4081L86.2058 15.4077ZM83.6238 14.5853L82.6451 14.7903L82.6587 14.8555L82.6809 14.9183L83.6238 14.5853ZM83.5452 12.9621L84.5392 13.0715L84.5452 13.0169V12.9621H83.5452ZM86.0223 6.74693L85.0632 6.46378L85.0223 6.6024V6.74693H86.0223ZM86.0092 6.64274L86.8683 6.13089L86.5775 5.64274H86.0092V6.64274ZM47.109 14.9333L46.7088 15.8497L48.109 16.4612V14.9333H47.109ZM45.4969 11.5426L46.4603 11.8107L46.4695 11.7776L46.4764 11.7439L45.4969 11.5426ZM48.3672 9.43899L48.2642 10.4337L48.2743 10.4347L48.2843 10.4355L48.3672 9.43899ZM48.5835 15.0623L48.434 14.0735L48.4243 14.0751L48.5835 15.0623ZM47.109 14.9313L47.4398 13.9876L46.109 13.5211V14.9313H47.109ZM42.0499 17.972H41.0499V18.972H42.0499V17.972ZM45.3855 17.972L45.5383 16.9837L45.4623 16.972H45.3855V17.972ZM45.6673 17.972L45.8201 18.9603L46.5172 18.8525L46.6496 18.1596L45.6673 17.972ZM45.6739 17.415H44.6739V17.4977L44.6875 17.5794L45.6739 17.415ZM45.6804 16.8062L46.4753 16.1995L44.6804 13.8478V16.8062H45.6804ZM49.0029 18.3567L49.0146 17.3568L48.9859 17.3564L48.9573 17.3577L49.0029 18.3567ZM52.6203 16.875L53.3301 17.5794L53.343 17.5664L53.3553 17.553L52.6203 16.875ZM53.3871 8.59756L54.2342 8.06604L54.2287 8.05757L53.3871 8.59756ZM49.4486 6.30391L49.3861 7.302L49.3943 7.30244L49.4486 6.30391ZM47.1352 6.68861L46.7532 5.76447L46.7359 5.77163L46.7189 5.77942L47.1352 6.68861ZM45.6673 7.87211L44.6673 7.86851L44.6564 10.8883L46.4675 8.47185L45.6673 7.87211ZM45.6739 2.41783L46.6739 2.42144L46.6775 1.41892L45.6749 1.41783L45.6739 2.41783ZM42.0499 2.41391L42.051 1.41391L41.0499 1.41283V2.41391H42.0499ZM26.3286 16.2655H25.3286L27.2322 16.6939L26.3286 16.2655ZM27.3378 1.98925L26.3391 2.03979L26.3455 2.16581L26.383 2.28629L27.3378 1.98925ZM27.1478 1.53052L27.8896 0.85996L27.5919 0.530518H27.1478V1.53052ZM22.2459 1.53052V0.530518H20.5987L21.3588 1.99194L22.2459 1.53052ZM23.432 10.842L22.4575 10.6178L22.4553 10.6275L23.432 10.842ZM21.6561 15.0093L22.4872 15.5655L22.4874 15.5652L21.6561 15.0093ZM21.3088 15.4982L22.0869 16.1264L22.1018 16.1079L22.1159 16.0887L21.3088 15.4982ZM21.2498 15.7282L22.0163 15.0858L22.0081 15.0761L21.9997 15.0665L21.2498 15.7282ZM22.0756 16.8822L22.933 16.3677L22.9309 16.3641L22.0756 16.8822ZM22.9865 18.9563L23.9469 18.6777L23.9455 18.6731L22.9865 18.9563ZM23.3141 20.5343L22.3332 20.7286L22.6981 22.5714L24.0231 21.2396L23.3141 20.5343ZM26.3286 16.2636H27.3286L25.4266 15.8318L26.3286 16.2636ZM3.49575 16.2636L4.24455 15.6008L2.59493 16.6978L3.49575 16.2636ZM6.51155 20.5383L5.80041 21.2413L7.18177 22.6386L7.49848 20.6994L6.51155 20.5383ZM6.95849 18.5913L6.01193 18.2688L6.00564 18.2872L6.00007 18.3059L6.95849 18.5913ZM8.58369 15.7341L9.34469 16.3828L9.35299 16.3731L9.36103 16.3631L8.58369 15.7341ZM8.52473 15.5034L9.32473 14.9034L9.31986 14.8969L9.31489 14.8905L8.52473 15.5034ZM8.01355 14.7707L8.86164 14.2407L8.85408 14.2289L8.01355 14.7707ZM6.97161 12.7189L7.90493 12.3599L7.90464 12.3591L6.97161 12.7189ZM6.80318 3.31367L5.85827 2.98632L5.85787 2.9875L6.80318 3.31367ZM7.58958 1.53512L8.46758 2.01378L9.2737 0.535117H7.58958V1.53512ZM2.57959 1.71731L1.63181 1.3983L1.62957 1.40514L2.57959 1.71731ZM2.22177 2.92505L1.255 2.66932L1.25346 2.67531L2.22177 2.92505ZM1.60052 7.78628L2.60051 7.79228L2.60052 7.78809L1.60052 7.78628ZM3.50099 16.2695L2.75218 16.9323L4.40283 15.8374L3.50099 16.2695ZM90.3199 10.6481L89.5048 10.0688L89.3199 10.329V10.6481H90.3199ZM91.9278 9.59906L92.1296 10.5785L91.9278 9.59906ZM93.8194 9.92721L94.4185 9.12655L94.3802 9.09785L94.3393 9.07295L93.8194 9.92721ZM94.7106 13.8198L95.5858 14.3038L95.5923 14.292L95.5984 14.2801L94.7106 13.8198ZM91.067 14.8166L90.5544 15.6752L90.56 15.6786L91.067 14.8166ZM90.1889 10.8742L91.0702 11.3467L91.0745 11.3386L91.0787 11.3305L90.1889 10.8742ZM90.3199 10.6487L91.1679 11.1787L91.3199 10.9355V10.6487H90.3199ZM86.5059 10.6487H87.5059L85.5392 10.3929L86.5059 10.6487ZM86.9188 15.1875L86.0141 15.6136L86.0209 15.628L86.0281 15.6421L86.9188 15.1875ZM90.0185 17.9288L90.3699 16.9925L90.3608 16.9892L90.0185 17.9288ZM97.5678 15.8317L96.7415 15.2686L96.7404 15.2701L97.5678 15.8317ZM96.4079 7.65324L97.022 6.86404L97.0105 6.85509L96.9988 6.84647L96.4079 7.65324ZM88.2557 7.81708L87.6329 7.03469L87.6161 7.04804L87.5999 7.06209L88.2557 7.81708ZM86.5059 10.6514H85.5059L87.4747 10.8993L86.5059 10.6514ZM69.2119 17.7564H68.2119V18.4665L68.8822 18.7005L69.2119 17.7564ZM73.9303 18.3462L73.919 17.3463L73.881 17.3467L73.8432 17.35L73.9303 18.3462ZM77.3969 16.877L78.1075 17.5805L78.1384 17.5493L78.1664 17.5156L77.3969 16.877ZM78.0784 13.1049L79.0228 12.7759L79.0168 12.7588L79.0102 12.7419L78.0784 13.1049ZM74.9132 11.0078L75.099 10.0252L75.0303 10.0123L74.9605 10.009L74.9132 11.0078ZM73.1045 10.4901L72.4246 11.2234L72.5121 11.3045L72.6161 11.3628L73.1045 10.4901ZM72.8246 9.60246L73.8022 9.81313L72.8246 9.60246ZM73.4452 8.90886L73.2042 7.93835L73.1655 7.94796L73.1277 7.96062L73.4452 8.90886ZM76.0666 8.93702L75.8047 9.90212L75.8554 9.91589L75.9073 9.92426L76.0666 8.93702ZM77.279 9.18341L77.5916 8.23353L77.5533 8.22092L77.5141 8.21145L77.279 9.18341ZM77.7705 9.31448L77.5686 10.2939L78.7828 10.5441L78.7704 9.30451L77.7705 9.31448ZM77.7508 7.3413H76.7507L76.7508 7.35127L77.7508 7.3413ZM77.5738 6.66369L77.9369 5.73193L77.9216 5.72595L77.906 5.72048L77.5738 6.66369ZM75.2278 6.21544L75.0978 7.20695L75.1431 7.2129L75.1889 7.21468L75.2278 6.21544ZM70.9813 6.67417L70.6425 5.7333L70.6072 5.74602L70.5729 5.76135L70.9813 6.67417ZM68.976 9.58447L69.9717 9.67604L69.9734 9.65852L69.9744 9.64094L68.976 9.58447ZM70.5356 12.888L70.0734 13.7748L70.0911 13.7839L70.1091 13.7924L70.5356 12.888ZM72.5213 13.4981L72.3664 14.486L72.4193 14.4943L72.4727 14.4969L72.5213 13.4981ZM74.2841 14.1364L75.0585 13.5038L74.9824 13.4105L74.8863 13.338L74.2841 14.1364ZM73.9695 15.4686L73.5598 14.5563L73.5475 14.5621L73.9695 15.4686ZM72.5016 15.6948L72.6313 14.7032L72.5764 14.696L72.5211 14.6949L72.5016 15.6948ZM70.7191 15.5466L70.8649 14.5573L70.8402 14.5537L70.8153 14.5513L70.7191 15.5466ZM69.2119 15.0761L69.699 14.2028L68.2119 13.3732V15.0761H69.2119ZM60.5616 14.9306L60.1604 15.8466L61.5616 16.4603V14.9306H60.5616ZM58.956 11.54L59.9188 11.8101L59.9284 11.776L59.9355 11.7413L58.956 11.54ZM61.8263 9.43639L61.7233 10.4311L61.7333 10.4321L61.7434 10.433L61.8263 9.43639ZM62.0426 15.0597L61.8926 14.071L61.8854 14.0722L62.0426 15.0597ZM60.5616 14.9287L60.8898 13.9841L59.5616 13.5225V14.9287H60.5616ZM55.7122 14.9287L56.658 14.604L54.7122 14.9287H55.7122ZM60.2405 18.3455L60.298 17.3472L60.2932 17.3469L60.2405 18.3455ZM64.002 16.7819H65.002V14.1467L63.2538 16.1185L64.002 16.7819ZM67.6195 6.67285H68.6195V5.7443L67.6935 5.6756L67.6195 6.67285ZM66.3809 6.65253V7.65253H66.4015L66.4221 7.65168L66.3809 6.65253ZM64.002 7.87803L63.1916 8.46379L65.002 10.9689V7.87803H64.002ZM62.9666 6.90288L63.5027 6.05875L63.4774 6.04266L63.4511 6.02812L62.9666 6.90288ZM61.1252 6.36027L61.0082 7.35341L61.033 7.35633L61.0579 7.35801L61.1252 6.36027ZM57.357 7.2417L56.8117 6.40349L56.7772 6.42591L56.7447 6.45109L57.357 7.2417ZM55.4042 10.5544L56.3847 10.7508L56.389 10.7291L56.3924 10.7073L55.4042 10.5544ZM55.7122 14.9293L54.7688 15.2612L56.7122 14.9293H55.7122ZM32.5464 13.5905V14.5905H33.6432L33.5421 13.4983L32.5464 13.5905ZM32.5267 13.1639V12.1639H31.5267V13.1639H32.5267ZM41.0394 13.1639V14.1639H41.7429L41.9806 13.5017L41.0394 13.1639ZM41.1508 12.5584L40.1512 12.5291L40.151 12.5391L41.1508 12.5584ZM39.8533 8.40817L40.6582 7.81478L40.6499 7.80358L40.6414 7.79261L39.8533 8.40817ZM32.1007 6.73577L32.5051 7.65034L32.5056 7.65013L32.1007 6.73577ZM28.9158 13.5905L27.9292 13.7531L28.0672 14.5905H28.9158V13.5905ZM33.4769 9.30992H32.4769V11.2988L34.0733 10.1126L33.4769 9.30992ZM37.3433 10.7798V11.7798H38.5729L38.3224 10.5761L37.3433 10.7798ZM32.5922 10.7798L31.6077 10.6045L31.3984 11.7798H32.5922V10.7798ZM33.4769 9.30792H34.4769V7.25397L32.8601 8.52077L33.4769 9.30792ZM33.1623 15.0761L32.4276 15.7545L32.4809 15.8121L32.5425 15.8608L33.1623 15.0761ZM36.4128 15.3107L36.9136 16.1763L36.9715 16.1428L37.0245 16.1018L36.4128 15.3107ZM36.9698 14.6868L36.1393 14.1298L36.1266 14.1488L36.1147 14.1684L36.9698 14.6868ZM40.7772 14.5984L41.7111 14.9559L42.2309 13.5984H40.7772V14.5984ZM38.3198 17.6024L38.8232 18.4664L38.8394 18.457L38.8553 18.4469L38.3198 17.6024ZM34.3092 18.436L34.4266 17.4429L34.4038 17.4402L34.3808 17.4385L34.3092 18.436ZM30.7508 17.0178L30.085 17.764L30.1006 17.7779L30.1167 17.7911L30.7508 17.0178ZM9.93038 14.5364C9.10647 13.4472 8.50981 12.2035 8.17583 10.8793L6.23656 11.3684C6.63605 12.9524 7.34977 14.4401 8.33533 15.743L9.93038 14.5364ZM8.16823 10.8509C8.16042 10.8234 8.15282 10.7931 8.14081 10.7447C8.13004 10.7012 8.1148 10.6393 8.09666 10.5749L6.17158 11.1171C6.17965 11.1458 6.18735 11.1766 6.19951 11.2257C6.21043 11.2697 6.22576 11.3319 6.24416 11.3967L8.16823 10.8509ZM7.76354 11.6231C7.9526 11.4699 8.13213 11.3296 8.31268 11.2003L7.14822 9.57424C6.92247 9.73591 6.70883 9.90359 6.5047 10.0689L7.76354 11.6231ZM8.31694 11.1972C9.11847 10.6168 9.99622 10.1497 10.9254 9.80907L10.2369 7.93129C9.1352 8.33521 8.0944 8.88909 7.14396 9.57731L8.31694 11.1972ZM10.9183 9.81164C13.1988 8.99497 15.6749 8.89751 18.0126 9.53243L18.5368 7.60236C15.8042 6.86017 12.9098 6.9741 10.244 7.92873L10.9183 9.81164ZM18.008 9.53119C19.3779 9.91018 20.6606 10.5528 21.7844 11.423L23.0089 9.84167C21.6794 8.81219 20.1619 8.05196 18.5413 7.6036L18.008 9.53119ZM21.7866 11.4247C21.8526 11.4755 21.8949 11.509 21.927 11.5372L23.2464 10.0341C23.1606 9.9588 23.0718 9.89009 23.0068 9.84L21.7866 11.4247ZM21.7521 11.3366C21.6732 11.217 21.6325 11.0763 21.6353 10.9331L23.6349 10.9726C23.6401 10.7107 23.5656 10.4534 23.4213 10.2348L21.7521 11.3366ZM21.6353 10.9331C21.6381 10.7898 21.6844 10.6509 21.768 10.5346L23.3924 11.7013C23.5451 11.4886 23.6298 11.2345 23.6349 10.9726L21.6353 10.9331ZM21.6116 10.8692C21.4632 11.4471 21.2637 12.0107 21.0155 12.5532L22.8342 13.3853C23.1317 12.7349 23.3708 12.0594 23.5487 11.3667L21.6116 10.8692ZM21.0109 12.5635C20.7071 13.2477 20.3245 13.8943 19.8709 14.49L21.4622 15.7015C22.0099 14.9822 22.4719 14.2014 22.8388 13.375L21.0109 12.5635ZM21.3648 14.3799C19.6325 12.6904 17.3059 11.7491 14.8862 11.7589L14.8942 13.7589C16.7894 13.7512 18.6116 14.4885 19.9684 15.8117L21.3648 14.3799ZM14.8862 11.7589C12.4665 11.7687 10.1475 12.7287 8.4289 14.4321L9.83682 15.8525C11.1828 14.5184 12.9991 13.7665 14.8942 13.7589L14.8862 11.7589ZM10.1329 15.1423V15.1397H8.13286V15.1423H10.1329ZM83.5452 1.46307C83.3719 1.46307 82.4727 1.46111 81.6107 1.46012C81.1809 1.45963 80.7611 1.45938 80.4485 1.45975C80.2925 1.45994 80.1617 1.46028 80.0693 1.46083C80.0236 1.4611 79.9845 1.46144 79.9555 1.4619C79.9421 1.46211 79.925 1.46242 79.9089 1.46299C79.9029 1.46319 79.8849 1.46382 79.8635 1.4654C79.8568 1.46589 79.8254 1.46811 79.7861 1.47403C79.7734 1.47594 79.7149 1.4845 79.643 1.50641C79.5997 1.52069 79.4829 1.57075 79.4117 1.61053C79.2758 1.71051 78.9921 2.12813 78.9343 2.46307H80.9343C80.8766 2.79798 80.5929 3.21557 80.4571 3.31552C80.3859 3.35526 80.2692 3.40529 80.226 3.41954C80.1543 3.4414 80.0961 3.4499 80.0838 3.45175C80.0453 3.45755 80.015 3.45965 80.0099 3.46003C79.9992 3.46082 79.9909 3.46123 79.9873 3.46141C79.9831 3.46161 79.98 3.46172 79.9786 3.46177C79.9748 3.4619 79.9761 3.46182 79.9867 3.46165C80.0057 3.46136 80.037 3.46106 80.0812 3.46079C80.1687 3.46027 80.2955 3.45994 80.4509 3.45975C80.761 3.45938 81.1789 3.45963 81.6084 3.46012C82.465 3.4611 83.3712 3.46307 83.5452 3.46307V1.46307ZM78.9344 2.45811C78.9311 3.12078 78.9294 3.7834 78.9278 4.44449C78.9262 5.106 78.9245 5.76598 78.9212 6.42543L80.9212 6.43534C80.9245 5.773 80.9261 5.11055 80.9278 4.44946C80.9294 3.78795 80.9311 3.12781 80.9343 2.46803L78.9344 2.45811ZM78.9212 6.43039C78.9212 6.48695 78.9254 6.5341 78.9279 6.55937C78.9304 6.58475 78.9336 6.60994 78.9344 6.61678C78.9386 6.65038 78.9327 6.61339 78.9327 6.56341C78.9327 6.53686 78.9284 6.32428 79.0693 6.09517C79.1513 5.96181 79.2757 5.83425 79.4445 5.74701C79.6075 5.66278 79.7626 5.64142 79.8753 5.64142V7.64142C80.0109 7.64142 80.1847 7.61577 80.3627 7.52376C80.5466 7.42874 80.6825 7.2899 80.7731 7.14255C80.9312 6.88544 80.9327 6.63399 80.9327 6.56393C80.9327 6.47045 80.9211 6.38533 80.9195 6.37242C80.9136 6.32464 80.9212 6.37325 80.9212 6.43039H78.9212ZM79.8753 5.64142H78.9382V7.64142H79.8753V5.64142ZM78.9382 5.64142C78.9391 5.64142 78.9379 5.64146 78.9323 5.64112C78.9231 5.64055 78.9189 5.64013 78.8938 5.63816C78.878 5.63691 78.8326 5.63321 78.7818 5.63266C78.7327 5.63213 78.6336 5.6334 78.5152 5.66027C78.387 5.68941 78.2228 5.75161 78.0677 5.88214C77.9124 6.01285 77.8208 6.16617 77.7682 6.29599C77.681 6.51109 77.6827 6.71358 77.6827 6.77249H79.6827C79.6827 6.77309 79.6827 6.77841 79.6822 6.78736C79.6818 6.79614 79.6808 6.81138 79.6784 6.8314C79.6743 6.86581 79.6623 6.9471 79.6217 7.04713C79.5777 7.15572 79.4971 7.29321 79.3556 7.41229C79.2144 7.53118 79.0668 7.58594 78.9582 7.6106C78.8595 7.63301 78.7832 7.6328 78.7601 7.63255C78.7355 7.63228 78.7196 7.63063 78.7369 7.632C78.7582 7.63367 78.8416 7.64142 78.9382 7.64142V5.64142ZM77.6827 6.77249V9.30532H79.6827V6.77249H77.6827ZM78.2134 10.1884C78.5835 10.3851 79.0156 10.4301 79.4183 10.314L78.8644 8.39228C78.9605 8.36458 79.0636 8.37534 79.1519 8.42227L78.2134 10.1884ZM79.1413 10.3532H79.9212V8.35316H79.1413V10.3532ZM78.9212 9.35316V13.154H80.9212V9.35316H78.9212ZM78.9212 13.154C78.9212 13.9487 78.8919 15.0995 79.1401 16.1419C79.3985 17.2272 79.9959 18.357 81.3411 18.9248L82.1188 17.0822C81.5635 16.8478 81.2565 16.396 81.0857 15.6786C80.9047 14.9184 80.9212 14.0456 80.9212 13.154H78.9212ZM81.3802 18.9403C82.17 19.2351 83.008 19.3789 83.8508 19.3644L83.8163 17.3647C83.2238 17.3749 82.6347 17.2738 82.0796 17.0666L81.3802 18.9403ZM83.8146 19.3644C84.3392 19.3743 84.8561 19.3522 85.3598 19.3161L85.2169 17.3212C84.7507 17.3546 84.2977 17.3731 83.8524 17.3647L83.8146 19.3644ZM85.3579 19.3162C85.6547 19.2955 85.9426 19.2687 86.2335 19.2376L86.0208 17.249C85.7481 17.2781 85.4855 17.3025 85.2187 17.3211L85.3579 19.3162ZM86.2267 19.2383C86.2348 19.2375 86.3271 19.2299 86.4158 19.2098C86.4927 19.1924 86.8521 19.1093 87.0774 18.7388C87.1784 18.5727 87.209 18.4164 87.2199 18.3258C87.2302 18.2408 87.2277 18.1713 87.227 18.1525C87.2266 18.1394 87.226 18.1278 87.2258 18.123C87.2254 18.1158 87.2254 18.1154 87.2253 18.1134C87.2252 18.1121 87.2255 18.1171 87.2255 18.1247H85.2255C85.2255 18.1674 85.2298 18.2675 85.2282 18.22C85.2281 18.2164 85.2255 18.1596 85.2344 18.0855C85.2441 18.0056 85.2721 17.8581 85.3686 17.6995C85.5849 17.3439 85.9275 17.2697 85.9743 17.2591C86.0329 17.2459 86.0818 17.2429 86.0276 17.2483L86.2267 19.2383ZM87.2254 18.1175C87.2189 17.2131 87.2123 16.3075 87.2058 15.4005L85.2058 15.415C85.2124 16.3219 85.2189 17.2276 85.2255 18.132L87.2254 18.1175ZM86.18 14.4081C85.6621 14.4214 85.2574 14.4566 84.8894 14.3945C84.559 14.3388 84.5686 14.2574 84.5668 14.2523L82.6809 14.9183C83.033 15.9151 83.901 16.2561 84.5569 16.3667C85.1751 16.4709 85.8845 16.4163 86.2315 16.4074L86.18 14.4081ZM84.6026 14.3803C84.5125 13.9501 84.4911 13.5084 84.5392 13.0715L82.5512 12.8526C82.48 13.4994 82.5117 14.1534 82.6451 14.7903L84.6026 14.3803ZM84.5452 12.9621V9.53599H82.5452V12.9621H84.5452ZM84.5452 9.53599C84.5452 9.47533 84.5405 9.37438 84.5414 9.40163C84.5415 9.40331 84.5418 9.41329 84.5416 9.42787C84.5414 9.44222 84.5407 9.46824 84.5374 9.50149C84.5313 9.56165 84.512 9.69732 84.4302 9.85019C84.3378 10.023 84.2005 10.1535 84.0495 10.2376C83.9187 10.3105 83.8043 10.3335 83.7569 10.3415C83.6801 10.3546 83.6231 10.3512 83.6894 10.3512V8.3512C83.6639 8.3512 83.543 8.34921 83.422 8.36977C83.2844 8.39313 82.8905 8.48843 82.6667 8.90675C82.5784 9.07187 82.5554 9.22249 82.5475 9.30092C82.5396 9.37885 82.5417 9.44412 82.5424 9.46607C82.545 9.54425 82.5452 9.50981 82.5452 9.53599H84.5452ZM83.6894 10.3512H85.924V8.3512H83.6894V10.3512ZM85.924 10.3512C86.1541 10.3512 86.5106 10.2807 86.7787 9.96262C87.0118 9.68607 87.0348 9.3829 87.0389 9.27019C87.0433 9.14643 87.0279 9.03023 87.025 9.00609C87.0183 8.94836 87.0223 8.97192 87.0223 9.00517H85.0223C85.0223 9.11314 85.0361 9.21731 85.0386 9.23845C85.045 9.2932 85.0381 9.25418 85.0402 9.19824C85.0418 9.15336 85.0513 8.90868 85.2494 8.67367C85.4825 8.39717 85.7825 8.3512 85.924 8.3512V10.3512ZM87.0223 9.00517V6.74693H85.0223V9.00517H87.0223ZM86.9814 7.03008C87.0249 6.88268 87.0386 6.72563 87.0189 6.56865L85.0345 6.81826C85.0193 6.69714 85.0299 6.57651 85.0632 6.46378L86.9814 7.03008ZM87.0189 6.56865C86.9994 6.414 86.9482 6.26496 86.8683 6.13089L85.1502 7.15458C85.0888 7.05157 85.0494 6.93704 85.0345 6.81826L87.0189 6.56865ZM86.0092 5.64274H83.5518V7.64274H86.0092V5.64274ZM83.5518 5.64274C83.806 5.6756 84.1809 5.86544 84.3008 5.98027C84.361 6.05526 84.4417 6.18687 84.4668 6.23956C84.5076 6.33211 84.5243 6.40972 84.5284 6.42868C84.5402 6.48262 84.5446 6.52545 84.5454 6.53319C84.5483 6.55975 84.5492 6.57943 84.5492 6.58002C84.5496 6.58719 84.5495 6.58784 84.5492 6.57601C84.5487 6.55542 84.5482 6.52027 84.5477 6.46924C84.5466 6.36871 84.5458 6.22234 84.5452 6.04258C84.544 5.68381 84.5436 5.20033 84.5436 4.7032C84.5436 4.20634 84.544 3.6969 84.5444 3.28659C84.5448 2.87706 84.5452 2.56478 84.5452 2.46435H82.5452C82.5452 2.56347 82.5448 2.87325 82.5444 3.28459C82.544 3.69515 82.5436 4.20536 82.5436 4.7032C82.5436 5.20078 82.544 5.68707 82.5452 6.0494C82.5458 6.23017 82.5467 6.38218 82.5478 6.48989C82.5483 6.54298 82.549 6.58942 82.5498 6.62438C82.5502 6.64033 82.5508 6.66224 82.5519 6.68374C82.5523 6.69149 82.5536 6.7166 82.5569 6.7468C82.5579 6.75636 82.5625 6.80056 82.5745 6.85541C82.5787 6.87483 82.5956 6.95278 82.6364 7.04557C82.6615 7.09838 82.7424 7.23006 82.8026 7.30511C82.9226 7.42 83.2975 7.60987 83.5518 7.64274V5.64274ZM84.5452 2.46435V2.46307H82.5452V2.46435H84.5452ZM47.5092 14.0168C47.0979 13.8372 46.7653 13.5151 46.5726 13.1098L44.7663 13.9685C45.166 14.8091 45.8557 15.4772 46.7088 15.8497L47.5092 14.0168ZM46.5726 13.1098C46.3799 12.7044 46.34 12.2431 46.4603 11.8107L44.5335 11.2745C44.284 12.1713 44.3667 13.1279 44.7663 13.9685L46.5726 13.1098ZM46.4764 11.7439C46.5589 11.3427 46.7875 10.9864 47.1179 10.7443L45.9357 9.13115C45.2052 9.66648 44.6997 10.4542 44.5174 11.3413L46.4764 11.7439ZM47.1179 10.7443C47.4483 10.5022 47.8568 10.3915 48.2642 10.4337L48.4703 8.44431C47.5694 8.35101 46.6661 8.59581 45.9357 9.13115L47.1179 10.7443ZM48.2843 10.4355C49.1741 10.5096 49.7406 11.2387 49.7788 12.2124C49.8169 13.1846 49.3123 13.9408 48.434 14.0736L48.733 16.0511C50.9151 15.7212 51.8423 13.7939 51.7772 12.1341C51.7122 10.4759 50.6404 8.62465 48.4502 8.44243L48.2843 10.4355ZM48.4243 14.0751C48.094 14.1284 47.7556 14.0983 47.4398 13.9876L46.7782 15.875C47.4082 16.0958 48.0835 16.1559 48.7426 16.0496L48.4243 14.0751ZM46.109 14.9313V14.9333H48.109V14.9313H46.109ZM42.0499 18.972H45.3855V16.972H42.0499V18.972ZM45.2327 18.9603C45.4273 18.9903 45.6255 18.9903 45.8201 18.9603L45.5145 16.9837C45.5224 16.9825 45.5304 16.9825 45.5383 16.9837L45.2327 18.9603ZM46.6496 18.1596C46.7068 17.8596 46.7105 17.5519 46.6603 17.2506L44.6875 17.5794C44.6988 17.6473 44.698 17.7167 44.6851 17.7844L46.6496 18.1596ZM46.6739 17.415C46.6739 17.3225 46.6754 17.229 46.677 17.1263C46.6786 17.0262 46.6804 16.9169 46.6804 16.8062H44.6804C44.6804 16.898 44.6789 16.9911 44.6773 17.0939C44.6757 17.194 44.6739 17.3037 44.6739 17.415H46.6739ZM44.8855 17.4129C45.3709 18.0488 46.0031 18.5578 46.7281 18.8961L47.5739 17.0838C47.1417 16.8821 46.7648 16.5787 46.4753 16.1995L44.8855 17.4129ZM46.7281 18.8961C47.4531 19.2345 48.2493 19.3921 49.0485 19.3557L48.9573 17.3577C48.4808 17.3795 48.0061 17.2855 47.5739 17.0838L46.7281 18.8961ZM48.9912 19.3566C49.7966 19.366 50.5957 19.2135 51.341 18.9083L50.583 17.0575C50.0855 17.2613 49.5521 17.363 49.0146 17.3568L48.9912 19.3566ZM51.341 18.9083C52.0864 18.603 52.7628 18.1511 53.3301 17.5794L51.9105 16.1706C51.5318 16.5521 51.0804 16.8537 50.583 17.0575L51.341 18.9083ZM53.3553 17.553C54.5228 16.2874 55.2414 14.6728 55.4002 12.9583L53.4087 12.7738C53.2904 14.0511 52.7551 15.254 51.8853 16.1969L53.3553 17.553ZM55.4002 12.9583C55.559 11.2438 55.1493 9.52462 54.2341 8.06607L52.54 9.12904C53.2218 10.2157 53.527 11.4964 53.4087 12.7738L55.4002 12.9583ZM54.2287 8.05757C53.7153 7.25727 53.0191 6.59045 52.1974 6.11197L51.191 7.84026C51.7388 8.15933 52.2031 8.60396 52.5454 9.13754L54.2287 8.05757ZM52.1974 6.11197C51.3758 5.63349 50.4523 5.35702 49.5029 5.30539L49.3943 7.30244C50.0273 7.33686 50.6431 7.5212 51.191 7.84026L52.1974 6.11197ZM49.511 5.30586C48.5688 5.24694 47.6256 5.40381 46.7532 5.76447L47.5173 7.61275C48.1085 7.36834 48.7477 7.26203 49.3861 7.30196L49.511 5.30586ZM46.7189 5.77942C45.9867 6.11473 45.3501 6.62796 44.8671 7.27238L46.4675 8.47185C46.7503 8.09459 47.1229 7.79412 47.5516 7.59781L46.7189 5.77942ZM46.6673 7.87572C46.6706 6.96435 46.6706 6.05345 46.6706 5.14473C46.6706 4.23541 46.6706 3.32827 46.6739 2.42144L44.6739 2.41423C44.6706 3.32527 44.6706 4.23601 44.6706 5.14472C44.6706 6.05404 44.6706 6.96134 44.6673 7.86851L46.6673 7.87572ZM45.6749 1.41783L42.051 1.41391L42.0488 3.41391L45.6728 3.41783L45.6749 1.41783ZM41.0499 2.41391V17.9694H43.0499V2.41391H41.0499ZM41.0499 17.9694V17.972H43.0499V17.9694H41.0499ZM27.2322 16.6939C29.4559 12.0037 29.8345 6.64867 28.2927 1.69222L26.383 2.28629C27.7757 6.76337 27.4337 11.6005 25.425 15.8371L27.2322 16.6939ZM28.3366 1.93871C28.3163 1.5383 28.1584 1.15726 27.8896 0.85996L26.4059 2.20108C26.3658 2.15668 26.3422 2.09974 26.3391 2.03979L28.3366 1.93871ZM27.1478 0.530518H22.2459V2.53052H27.1478V0.530518ZM21.3588 1.99194C22.7387 4.64519 23.1282 7.70328 22.4575 10.6178L24.4066 11.0663C25.1839 7.68848 24.7325 4.14419 23.1331 1.06909L21.3588 1.99194ZM22.4553 10.6275C22.1553 11.9933 21.6023 13.291 20.8249 14.4533L22.4874 15.5652C23.4035 14.1954 24.0552 12.6662 24.4088 11.0566L22.4553 10.6275ZM20.8251 14.4531C20.7272 14.5993 20.6217 14.7438 20.5018 14.9077L22.1159 16.0887C22.2319 15.9301 22.3622 15.7522 22.4872 15.5655L20.8251 14.4531ZM20.5308 14.8699C20.5435 14.8542 20.5581 14.8397 20.5307 14.868C20.5219 14.8772 20.4934 14.9066 20.4631 14.9424C20.4324 14.9786 20.3796 15.045 20.3304 15.1362C20.2064 15.3661 20.1583 15.6581 20.2502 15.9554C20.3195 16.1795 20.4472 16.3299 20.5 16.3898L21.9997 15.0665C22.0033 15.0707 22.1032 15.1777 22.161 15.3647C22.1944 15.4728 22.2128 15.6039 22.1964 15.748C22.1801 15.89 22.1346 16.0043 22.0907 16.0857C22.0221 16.2128 21.9329 16.2952 21.969 16.2578C21.976 16.2505 22.0316 16.1949 22.0869 16.1264L20.5308 14.8699ZM20.4834 16.3705C20.7549 16.6944 21.0012 17.0387 21.2202 17.4003L22.9309 16.3641C22.6591 15.9154 22.3533 15.488 22.0163 15.0858L20.4834 16.3705ZM21.2181 17.3967C21.5647 17.9743 21.8366 18.5935 22.0274 19.2395L23.9455 18.6731C23.7068 17.8649 23.3666 17.0902 22.933 16.3677L21.2181 17.3967ZM22.026 19.2349C22.1609 19.6999 22.2128 20.1204 22.3332 20.7286L24.2951 20.3401C24.2058 19.8892 24.1135 19.2521 23.9469 18.6777L22.026 19.2349ZM24.0231 21.2396C25.34 19.9159 26.4244 18.3796 27.2306 16.6953L25.4266 15.8318C24.7174 17.3133 23.7636 18.6647 22.6052 19.8291L24.0231 21.2396ZM25.3286 16.2636V16.2655H27.3286V16.2636H25.3286ZM2.59493 16.6978C3.40522 18.3789 4.48837 19.9142 5.80041 21.2413L7.22269 19.8352C6.06593 18.6651 5.11097 17.3115 4.39657 15.8294L2.59493 16.6978ZM7.49848 20.6994C7.59906 20.0836 7.73882 19.4747 7.91691 18.8767L6.00007 18.3059C5.79773 18.9855 5.63892 19.6773 5.52463 20.3771L7.49848 20.6994ZM7.90505 18.9138C8.2209 17.9868 8.70937 17.1281 9.34469 16.3828L7.82268 15.0853C7.02359 16.0227 6.40919 17.1028 6.01193 18.2688L7.90505 18.9138ZM9.36103 16.3631C9.41429 16.2973 9.53271 16.1429 9.59152 15.9186C9.66742 15.6293 9.61353 15.3547 9.4984 15.1411C9.45199 15.055 9.40283 14.9918 9.37447 14.9574C9.34679 14.9237 9.32031 14.8954 9.31361 14.8881C9.29136 14.8641 9.30807 14.8812 9.32473 14.9034L7.72473 16.1034C7.7807 16.178 7.83591 16.236 7.84642 16.2473C7.88346 16.2873 7.80126 16.2077 7.7378 16.09C7.69701 16.0143 7.65388 15.9083 7.63557 15.7763C7.61696 15.6422 7.62906 15.5176 7.65695 15.4113C7.70593 15.2245 7.79895 15.1141 7.80634 15.105L9.36103 16.3631ZM9.31489 14.8905C9.15292 14.6817 9.00161 14.4648 8.86155 14.2407L7.16556 15.3007C7.34135 15.582 7.53128 15.8542 7.73457 16.1163L9.31489 14.8905ZM8.85408 14.2289C8.47452 13.6401 8.15648 13.0138 7.90493 12.3599L6.03828 13.0779C6.33901 13.8597 6.71923 14.6085 7.17303 15.3125L8.85408 14.2289ZM7.90464 12.3591C6.82599 9.56203 6.77068 6.47373 7.74849 3.63984L5.85787 2.9875C4.7262 6.2673 4.79022 9.84153 6.03858 13.0787L7.90464 12.3591ZM7.74808 3.64101C7.94255 3.07966 8.18321 2.53539 8.46758 2.01378L6.71158 1.05646C6.37433 1.67507 6.08891 2.32056 5.85827 2.98632L7.74808 3.64101ZM7.58958 0.535117H2.71919V2.53512H7.58958V0.535117ZM2.71919 0.535117C2.65049 0.535117 2.46345 0.537281 2.25746 0.625592C1.98696 0.741558 1.81318 0.945038 1.71791 1.14408C1.67996 1.22336 1.65909 1.29193 1.64897 1.32758C1.63913 1.36227 1.63147 1.3954 1.62992 1.40196C1.62453 1.42477 1.62694 1.41287 1.63184 1.39831L3.52735 2.03631C3.55486 1.95458 3.57054 1.88631 3.57621 1.86237C3.58018 1.84555 3.57751 1.85771 3.57297 1.87367C3.56817 1.89059 3.55296 1.94268 3.52189 2.00759C3.48861 2.07712 3.43322 2.16995 3.34305 2.261C3.25046 2.35449 3.14664 2.42044 3.0455 2.46379C2.87023 2.53893 2.72596 2.53512 2.71919 2.53512V0.535117ZM1.62957 1.40514C1.49238 1.82265 1.36752 2.24403 1.25502 2.66932L3.18852 3.18077C3.29097 2.79345 3.40468 2.40972 3.52962 2.02947L1.62957 1.40514ZM1.25346 2.67531C0.822998 4.34435 0.603642 6.06082 0.600525 7.78447L2.60052 7.78809C2.60334 6.23172 2.8014 4.68183 3.19009 3.17478L1.25346 2.67531ZM0.600541 7.78027C0.581997 10.8671 1.26543 13.9177 2.59914 16.7015L4.40283 15.8374C3.20009 13.327 2.58378 10.5759 2.60051 7.79228L0.600541 7.78027ZM4.24979 15.6067L4.24455 15.6008L2.74694 16.9264L2.75218 16.9323L4.24979 15.6067ZM91.135 11.2273C91.3726 10.8931 91.728 10.6612 92.1296 10.5785L91.7261 8.61963C90.829 8.80441 90.0353 9.32227 89.5048 10.0688L91.135 11.2273ZM92.1296 10.5785C92.5312 10.4958 92.9493 10.5683 93.2995 10.7815L94.3393 9.07295C93.5569 8.59683 92.6231 8.43484 91.7261 8.61963L92.1296 10.5785ZM93.2203 10.7279C93.6161 11.0241 93.894 11.4512 94.0043 11.9332L95.9539 11.4869C95.7378 10.5431 95.1938 9.70665 94.4185 9.12655L93.2203 10.7279ZM94.0043 11.9332C94.1147 12.4152 94.0504 12.9207 93.8228 13.3596L95.5984 14.2801C96.044 13.4205 96.17 12.4306 95.9539 11.4869L94.0043 11.9332ZM93.8355 13.3359C93.7298 13.5272 93.5868 13.6953 93.4149 13.8304L94.6512 15.4026C95.0329 15.1024 95.3507 14.7288 95.5858 14.3038L93.8355 13.3359ZM93.4149 13.8304C93.2431 13.9655 93.046 14.0648 92.8353 14.1225L93.363 16.0516C93.8314 15.9234 94.2694 15.7028 94.6512 15.4026L93.4149 13.8304ZM92.8353 14.1225C92.6245 14.1801 92.4043 14.195 92.1876 14.1662L91.9238 16.1487C92.4052 16.2127 92.8945 16.1797 93.363 16.0516L92.8353 14.1225ZM92.1876 14.1662C91.971 14.1373 91.7623 14.0654 91.5739 13.9546L90.56 15.6786C90.9787 15.9248 91.4424 16.0846 91.9238 16.1487L92.1876 14.1662ZM91.5796 13.958C91.2166 13.7413 90.9609 13.3479 90.8631 12.8352C90.764 12.3154 90.8479 11.7613 91.0702 11.3467L89.3076 10.4016C88.8549 11.2459 88.7192 12.2698 88.8986 13.21C89.0793 14.1571 89.6002 15.1055 90.5544 15.6752L91.5796 13.958ZM91.0787 11.3305C91.0975 11.2939 91.1242 11.2487 91.1679 11.1787L89.4719 10.1187C89.4239 10.1956 89.3589 10.3011 89.299 10.4178L91.0787 11.3305ZM91.3199 10.6487V10.6481H89.3199V10.6487H91.3199ZM85.5392 10.3929C85.0783 12.1348 85.2465 13.9834 86.0141 15.6136L87.8235 14.7615C87.2564 13.5572 87.1321 12.1914 87.4727 10.9045L85.5392 10.3929ZM86.0281 15.6421C86.7926 17.14 88.0961 18.2927 89.6762 18.8684L90.3608 16.9892C89.2557 16.5866 88.3441 15.7805 87.8095 14.7329L86.0281 15.6421ZM89.667 18.865C92.6477 19.9838 96.4952 19.1926 98.3952 16.3933L96.7404 15.2701C95.4556 17.163 92.658 17.8514 90.3699 16.9925L89.667 18.865ZM98.3942 16.3948C100.356 13.5153 99.9049 9.10741 97.022 6.86404L95.7938 8.44245C97.7734 9.98294 98.1607 13.1859 96.7415 15.2686L98.3942 16.3948ZM96.9988 6.84647C95.6331 5.84628 93.9765 5.32286 92.284 5.35687L92.3242 7.35647C93.578 7.33127 94.8053 7.71903 95.817 8.46002L96.9988 6.84647ZM92.284 5.35687C90.5916 5.39088 88.9573 5.98044 87.6329 7.03469L88.8785 8.59946C89.8596 7.81843 91.0704 7.38167 92.3242 7.35647L92.284 5.35687ZM87.5999 7.06209C86.5888 7.94034 85.8692 9.10591 85.5371 10.4035L87.4747 10.8993C87.706 9.99556 88.2071 9.18376 88.9114 8.57206L87.5999 7.06209ZM87.5059 10.6514V10.6487H85.5059V10.6514H87.5059ZM68.8822 18.7005C70.5292 19.2755 72.2795 19.4943 74.0173 19.3424L73.8432 17.35C72.3874 17.4773 70.9211 17.294 69.5415 16.8123L68.8822 18.7005ZM73.9416 19.3462C75.5084 19.3284 77.0051 18.6941 78.1075 17.5805L76.6862 16.1734C75.9539 16.9131 74.9597 17.3345 73.919 17.3463L73.9416 19.3462ZM78.1664 17.5156C78.7053 16.8663 79.0673 16.0887 79.2174 15.2583L77.2493 14.9027C77.1605 15.394 76.9462 15.8541 76.6273 16.2384L78.1664 17.5156ZM79.2174 15.2583C79.3674 14.4278 79.3004 13.5728 79.0228 12.7759L77.1341 13.4338C77.2984 13.9054 77.338 14.4113 77.2493 14.9027L79.2174 15.2583ZM79.0102 12.7419C78.6659 11.858 77.9972 11.2405 77.2961 10.8245C76.5955 10.4089 75.8063 10.1589 75.099 10.0252L74.7275 11.9904C75.2719 12.0933 75.826 12.2778 76.2756 12.5446C76.7246 12.811 77.0126 13.1236 77.1466 13.4679L79.0102 12.7419ZM74.9605 10.009C74.4805 9.98622 74.0123 9.85222 73.5929 9.61752L72.6161 11.3628C73.3061 11.7489 74.0763 11.9693 74.866 12.0067L74.9605 10.009ZM73.7845 9.75685C73.7919 9.7638 73.7976 9.77266 73.8007 9.78264L71.8933 10.3841C71.9946 10.7053 72.1778 10.9946 72.4246 11.2234L73.7845 9.75685ZM73.8007 9.78264C73.8039 9.79261 73.8044 9.80312 73.8022 9.81313L71.8471 9.3918C71.7762 9.72087 71.792 10.0628 71.8933 10.3841L73.8007 9.78264ZM73.8022 9.81313C73.8 9.82311 73.7953 9.83252 73.7883 9.84032L72.2979 8.50665C72.0733 8.75768 71.918 9.06275 71.8471 9.3918L73.8022 9.81313ZM73.7883 9.84032C73.7814 9.848 73.7726 9.8538 73.7628 9.8571L73.1277 7.96062C72.8084 8.06756 72.5224 8.25575 72.2979 8.50665L73.7883 9.84032ZM73.6863 9.87937C74.3829 9.70635 75.112 9.71417 75.8047 9.90212L76.3284 7.97192C75.3069 7.69472 74.2314 7.68318 73.2042 7.93835L73.6863 9.87937ZM75.9073 9.92426C76.2848 9.98514 76.6591 10.0623 77.0438 10.1554L77.5141 8.21145C77.0862 8.10793 76.6609 8.01996 76.2258 7.94978L75.9073 9.92426ZM76.9664 10.1333C77.1638 10.1983 77.3649 10.2519 77.5686 10.2939L77.9723 8.33507C77.8436 8.30853 77.7165 8.27463 77.5916 8.23353L76.9664 10.1333ZM78.7704 9.30451L78.7507 7.33133L76.7508 7.35127L76.7705 9.32445L78.7704 9.30451ZM78.7508 7.3413C78.7508 7.25411 78.7489 7.1684 78.7473 7.09544C78.7456 7.0188 78.7442 6.95468 78.7442 6.8924H76.7442C76.7442 6.9802 76.7461 7.06614 76.7477 7.13924C76.7494 7.21603 76.7508 7.27973 76.7508 7.3413H78.7508ZM78.7442 6.8924C78.7442 6.87802 78.7444 6.87043 78.7446 6.84707C78.7448 6.83168 78.7453 6.79167 78.7432 6.74759C78.7394 6.66886 78.7245 6.41565 78.5465 6.16422C78.3799 5.92883 78.1627 5.82811 78.1032 5.80038C78.0398 5.7708 77.9573 5.73987 77.9369 5.73193L77.2108 7.59546C77.2854 7.62454 77.2717 7.61942 77.2581 7.61304C77.2483 7.60851 77.0618 7.52839 76.914 7.31963C76.7549 7.09482 76.747 6.87425 76.7455 6.84281C76.7445 6.82237 76.7449 6.80967 76.7448 6.82632C76.7447 6.835 76.7442 6.86419 76.7442 6.8924H78.7442ZM77.906 5.72048C77.0564 5.42127 76.1668 5.25127 75.2667 5.2162L75.1889 7.21468C75.8889 7.24196 76.5808 7.37418 77.2416 7.60691L77.906 5.72048ZM75.3578 5.22392C73.7679 5.01547 72.1512 5.19012 70.6425 5.7333L71.32 7.61505C72.5288 7.17987 73.824 7.03994 75.0978 7.20695L75.3578 5.22392ZM70.5729 5.76135C69.8365 6.09079 69.2049 6.61643 68.7471 7.28077L70.394 8.41554C70.6436 8.05328 70.9881 7.76665 71.3896 7.587L70.5729 5.76135ZM68.7471 7.28077C68.2894 7.94507 68.0231 8.72247 67.9775 9.52799L69.9744 9.64094C69.9992 9.20176 70.1444 8.77783 70.394 8.41554L68.7471 7.28077ZM67.9802 9.49289C67.8338 11.0845 68.2878 12.844 70.0734 13.7748L70.9978 12.0012C70.1884 11.5793 69.8691 10.7922 69.9717 9.67604L67.9802 9.49289ZM70.1091 13.7924C70.8246 14.1299 71.5848 14.3635 72.3664 14.486L72.6762 12.5102C72.0827 12.4171 71.5055 12.2398 70.9622 11.9835L70.1091 13.7924ZM72.4727 14.4969C72.9106 14.5182 73.3319 14.6708 73.6819 14.9348L74.8863 13.338C74.2158 12.8323 73.4087 12.5401 72.5698 12.4993L72.4727 14.4969ZM73.5096 14.769C73.4963 14.7527 73.4869 14.7335 73.4821 14.7129L75.431 14.2636C75.3668 13.9851 75.2393 13.7251 75.0585 13.5038L73.5096 14.769ZM73.4821 14.7129C73.4774 14.6923 73.4774 14.6709 73.4823 14.6503L75.4287 15.1099C75.4944 14.8317 75.4952 14.5422 75.431 14.2636L73.4821 14.7129ZM73.4823 14.6503C73.4871 14.63 73.4965 14.6108 73.5101 14.5944L75.0523 15.8678C75.2344 15.6473 75.3631 15.3879 75.4287 15.1099L73.4823 14.6503ZM73.5101 14.5944C73.5237 14.5779 73.5407 14.565 73.5598 14.5564L74.3793 16.3809C74.6398 16.2638 74.8702 16.0884 75.0523 15.8678L73.5101 14.5944ZM73.5475 14.5621C73.2617 14.6951 72.9439 14.7441 72.6313 14.7032L72.3719 16.6863C73.0611 16.7764 73.7616 16.6685 74.3916 16.3752L73.5475 14.5621ZM72.5211 14.6949C71.9667 14.6841 71.4135 14.6382 70.8649 14.5573L70.5733 16.536C71.2056 16.6291 71.8431 16.6821 72.4821 16.6946L72.5211 14.6949ZM70.8153 14.5513C70.4232 14.5134 70.0431 14.3947 69.699 14.2028L68.7247 15.9494C69.3098 16.2758 69.9561 16.4776 70.623 16.542L70.8153 14.5513ZM68.2119 15.0761V17.7551H70.2119V15.0761H68.2119ZM68.2119 17.7551V17.7564H70.2119V17.7551H68.2119ZM60.9627 14.0146C60.5522 13.8348 60.2204 13.5127 60.0286 13.1076L58.221 13.9635C58.6192 14.8046 59.308 15.4733 60.1604 15.8466L60.9627 14.0146ZM60.0286 13.1076C59.8367 12.7024 59.7977 12.2416 59.9188 11.8101L57.9932 11.2698C57.7418 12.1659 57.8228 13.1225 58.221 13.9635L60.0286 13.1076ZM59.9355 11.7413C60.018 11.3401 60.2466 10.9839 60.577 10.7417L59.3947 9.12855C58.6643 9.66387 58.1588 10.4515 57.9765 11.3387L59.9355 11.7413ZM60.577 10.7417C60.9074 10.4996 61.3159 10.3889 61.7233 10.4311L61.9293 8.44171C61.0285 8.34841 60.1252 8.59321 59.3947 9.12855L60.577 10.7417ZM61.7434 10.433C62.6325 10.5069 63.1978 11.235 63.2354 12.209C63.273 13.1823 62.7674 13.9383 61.8926 14.0711L62.1926 16.0484C64.3716 15.7178 65.2979 13.7903 65.2339 12.1318C65.1699 10.474 64.1002 8.62211 61.9092 8.43984L61.7434 10.433ZM61.8854 14.0722C61.5513 14.1254 61.2093 14.0951 60.8898 13.9841L60.2333 15.8733C60.8645 16.0926 61.54 16.1524 62.1999 16.0473L61.8854 14.0722ZM59.5616 14.9287V14.9306H61.5616V14.9287H59.5616ZM54.7663 15.2534C55.1593 16.398 55.8854 17.399 56.8514 18.1279L58.0561 16.5314C57.4083 16.0427 56.9214 15.3714 56.658 14.604L54.7663 15.2534ZM56.8514 18.1279C57.8174 18.8568 58.9793 19.2804 60.1878 19.3441L60.2932 17.3469C59.4829 17.3042 58.7038 17.0202 58.0561 16.5314L56.8514 18.1279ZM60.183 19.3439C61.0383 19.3931 61.8936 19.2479 62.6846 18.919L61.9169 17.0722C61.405 17.2851 60.8515 17.3791 60.298 17.3472L60.183 19.3439ZM62.6846 18.919C63.4757 18.5902 64.1819 18.0864 64.7503 17.4454L63.2538 16.1185C62.886 16.5333 62.4289 16.8594 61.9169 17.0722L62.6846 18.919ZM63.002 16.7819V17.759H65.002V16.7819H63.002ZM63.002 17.759C63.002 17.7971 63.0007 17.7951 62.9976 17.871C62.9966 17.8967 62.9941 17.9608 62.9996 18.035C63.0051 18.108 63.0218 18.2508 63.095 18.4109C63.2923 18.8426 63.6773 18.9742 63.8648 19.0115C64.0088 19.0402 64.1538 19.0382 64.1986 19.0382V17.0382C64.1156 17.0382 64.1722 17.0335 64.2553 17.05C64.3083 17.0606 64.4298 17.0898 64.5646 17.1764C64.7186 17.2753 64.8395 17.4165 64.914 17.5794C64.9786 17.7208 64.9907 17.8407 64.9941 17.886C64.9975 17.9326 64.9955 17.9642 64.996 17.9515C64.996 17.951 65.002 17.8497 65.002 17.759H63.002ZM64.1986 19.0382H67.5211V17.0382H64.1986V19.0382ZM67.5211 19.0382C67.5177 19.0382 67.516 19.0381 67.519 19.0382C67.5221 19.0383 67.5225 19.0383 67.5295 19.0386C67.5343 19.0388 67.5443 19.0391 67.5557 19.0394C67.5714 19.0397 67.6302 19.0412 67.7019 19.0335C67.7725 19.026 67.922 19.0036 68.0866 18.9137C68.5155 18.6793 68.5925 18.267 68.6083 18.154C68.6171 18.0909 68.6185 18.0387 68.619 18.0188C68.6195 17.9963 68.6195 17.9736 68.6195 17.9661H66.6195C66.6195 18.0239 66.617 17.9526 66.6276 17.8771C66.6342 17.8292 66.6542 17.708 66.7262 17.569C66.8105 17.4061 66.9458 17.2579 67.1277 17.1585C67.2862 17.0719 67.428 17.0514 67.489 17.0449C67.5511 17.0383 67.5984 17.0399 67.6003 17.0399C67.6431 17.0408 67.5515 17.0382 67.5211 17.0382V19.0382ZM68.6195 17.9661V6.67285H66.6195V17.9661H68.6195ZM67.6935 5.6756C67.243 5.64217 66.791 5.63475 66.3396 5.65339L66.4221 7.65168C66.7966 7.63622 67.1717 7.64238 67.5455 7.67011L67.6935 5.6756ZM66.3809 5.65253H64.1724V7.65253H66.3809V5.65253ZM64.1724 5.65253C64.1165 5.65253 63.9403 5.65079 63.7556 5.70692C63.6456 5.74034 63.4895 5.80614 63.3414 5.94102C63.1848 6.08372 63.093 6.25261 63.0446 6.40692C63.0013 6.54498 62.9952 6.66305 62.994 6.7222C62.9927 6.78324 62.9962 6.83711 62.9976 6.85801C63.0013 6.91571 63.002 6.92047 63.002 6.93892H65.002C65.002 6.8381 64.9946 6.74742 64.9934 6.72907C64.9923 6.71194 64.9942 6.73263 64.9935 6.76476C64.9929 6.79501 64.9897 6.88846 64.9529 7.00564C64.9111 7.13905 64.8296 7.29078 64.6883 7.41949C64.5556 7.54037 64.42 7.59535 64.337 7.62056C64.2063 7.66026 64.1104 7.65253 64.1724 7.65253V5.65253ZM63.002 6.93892V7.87803H65.002V6.93892H63.002ZM64.8125 7.29228C64.4581 6.8018 64.0135 6.38318 63.5027 6.05875L62.4304 7.74701C62.7273 7.93555 62.9856 8.17881 63.1916 8.46379L64.8125 7.29228ZM63.4511 6.02812C62.7562 5.64317 61.985 5.41592 61.1924 5.36253L61.0579 7.35801C61.5577 7.39167 62.0439 7.53493 62.482 7.77765L63.4511 6.02812ZM61.2421 5.36713C59.6896 5.1843 58.122 5.55099 56.8117 6.40349L57.9024 8.07992C58.821 7.4823 59.9198 7.22524 61.0082 7.35341L61.2421 5.36713ZM56.7447 6.45109C55.4917 7.4215 54.6583 8.83525 54.4159 10.4014L56.3924 10.7073C56.5565 9.64674 57.1209 8.68943 57.9693 8.03232L56.7447 6.45109ZM54.4237 10.3579C54.0959 11.9937 54.2152 13.6875 54.7688 15.2612L56.6555 14.5974C56.2211 13.3629 56.1276 12.0341 56.3847 10.7508L54.4237 10.3579ZM56.7122 14.9293V14.9287H54.7122V14.9293H56.7122ZM33.5421 13.4983C33.5319 13.3875 33.5267 13.276 33.5267 13.1639H31.5267C31.5267 13.3375 31.5347 13.5104 31.5506 13.6827L33.5421 13.4983ZM32.5267 14.1639H41.0394V12.1639H32.5267V14.1639ZM41.9806 13.5017C42.0871 13.2051 42.1446 12.8929 42.1506 12.5776L40.151 12.5391C40.1491 12.6369 40.1313 12.7338 40.0982 12.826L41.9806 13.5017ZM42.1504 12.5876C42.2004 10.8746 41.6751 9.1942 40.6582 7.81478L39.0484 9.00155C39.7999 10.0211 40.1882 11.2631 40.1512 12.5291L42.1504 12.5876ZM40.6414 7.79261C38.5822 5.15624 34.5967 4.53683 31.6958 5.82141L32.5056 7.65013C34.7163 6.67121 37.6642 7.23009 39.0652 9.02372L40.6414 7.79261ZM31.6963 5.8212C28.4492 7.25705 27.4449 10.8153 27.9292 13.7531L29.9025 13.4279C29.5086 11.0379 30.3786 8.5907 32.5051 7.65034L31.6963 5.8212ZM28.9158 14.5905H32.5464V12.5905H28.9158V14.5905ZM34.0733 10.1126C34.2693 9.96698 34.4989 9.87302 34.7408 9.83945L34.466 7.85843C33.8914 7.93814 33.3461 8.16125 32.8805 8.50724L34.0733 10.1126ZM34.7408 9.83945C34.9827 9.80589 35.2292 9.83378 35.4574 9.92055L36.1681 8.05108C35.6259 7.84494 35.0405 7.77872 34.466 7.85843L34.7408 9.83945ZM35.4574 9.92055C35.6857 10.0073 35.8884 10.1502 36.0469 10.336L37.5684 9.03788C37.1919 8.59661 36.7104 8.25722 36.1681 8.05108L35.4574 9.92055ZM36.0469 10.336C36.2054 10.5217 36.3145 10.7444 36.3643 10.9836L38.3224 10.5761C38.2042 10.0082 37.945 9.47923 37.5684 9.03788L36.0469 10.336ZM37.3433 9.7798H32.5922V11.7798H37.3433V9.7798ZM33.5767 10.9551C33.6374 10.6146 33.8214 10.3084 34.0937 10.0951L32.8601 8.52077C32.2005 9.03762 31.7546 9.77952 31.6077 10.6045L33.5767 10.9551ZM32.4769 9.30792V9.30992H34.4769V9.30792H32.4769ZM31.5472 13.6282C31.5785 14.4191 31.8907 15.1729 32.4276 15.7545L33.8971 14.3977C33.6827 14.1656 33.5581 13.8647 33.5456 13.5489L31.5472 13.6282ZM32.5425 15.8608C33.1556 16.3452 33.9002 16.6342 34.6796 16.6905L34.8235 14.6957C34.4438 14.6683 34.081 14.5274 33.7822 14.2914L32.5425 15.8608ZM34.6796 16.6905C35.4589 16.7467 36.2372 16.5676 36.9136 16.1763L35.9121 14.4452C35.5825 14.6358 35.2033 14.7231 34.8235 14.6957L34.6796 16.6905ZM37.0245 16.1018C37.3442 15.8547 37.6155 15.5507 37.8249 15.2053L36.1147 14.1684C36.0326 14.3038 35.9263 14.4228 35.8012 14.5196L37.0245 16.1018ZM37.8003 15.2439C37.8301 15.1995 37.8135 15.226 37.7897 15.2555C37.757 15.2959 37.6412 15.434 37.4315 15.523C37.2402 15.6041 37.0742 15.5971 37.0733 15.5971C37.0672 15.597 37.059 15.5968 37.0803 15.5974C37.0952 15.5978 37.1185 15.5984 37.1468 15.5984V13.5984C37.1456 13.5984 37.1435 13.5984 37.1362 13.5982C37.1354 13.5981 37.1083 13.5972 37.0857 13.5971C37.0519 13.5969 36.8625 13.5919 36.6507 13.6816C36.4205 13.7793 36.2871 13.9328 36.2329 13.9999C36.1876 14.0561 36.1456 14.1205 36.1393 14.1298L37.8003 15.2439ZM37.1468 15.5984C37.1492 15.5984 37.1515 15.5984 37.1539 15.5984C37.1563 15.5984 37.1586 15.5984 37.161 15.5984C37.1634 15.5984 37.1657 15.5984 37.1681 15.5984C37.1705 15.5984 37.1728 15.5984 37.1752 15.5984C37.1776 15.5984 37.1799 15.5984 37.1823 15.5984C37.1847 15.5984 37.187 15.5984 37.1894 15.5984C37.1918 15.5984 37.1941 15.5984 37.1965 15.5984C37.1989 15.5984 37.2012 15.5984 37.2036 15.5984C37.206 15.5984 37.2083 15.5984 37.2107 15.5984C37.2131 15.5984 37.2154 15.5984 37.2178 15.5984C37.2202 15.5984 37.2225 15.5984 37.2249 15.5984C37.2273 15.5984 37.2296 15.5984 37.232 15.5984C37.2344 15.5984 37.2368 15.5984 37.2391 15.5984C37.2415 15.5984 37.2439 15.5984 37.2462 15.5984C37.2486 15.5984 37.251 15.5984 37.2533 15.5984C37.2557 15.5984 37.2581 15.5984 37.2604 15.5984C37.2628 15.5984 37.2652 15.5984 37.2675 15.5984C37.2699 15.5984 37.2723 15.5984 37.2746 15.5984C37.277 15.5984 37.2794 15.5984 37.2817 15.5984C37.2841 15.5984 37.2865 15.5984 37.2888 15.5984C37.2912 15.5984 37.2936 15.5984 37.2959 15.5984C37.2983 15.5984 37.3007 15.5984 37.303 15.5984C37.3054 15.5984 37.3078 15.5984 37.3101 15.5984C37.3125 15.5984 37.3149 15.5984 37.3172 15.5984C37.3196 15.5984 37.322 15.5984 37.3243 15.5984C37.3267 15.5984 37.3291 15.5984 37.3314 15.5984C37.3338 15.5984 37.3362 15.5984 37.3385 15.5984C37.3409 15.5984 37.3433 15.5984 37.3456 15.5984C37.348 15.5984 37.3504 15.5984 37.3527 15.5984C37.3551 15.5984 37.3575 15.5984 37.3598 15.5984C37.3622 15.5984 37.3646 15.5984 37.3669 15.5984C37.3693 15.5984 37.3717 15.5984 37.374 15.5984C37.3764 15.5984 37.3788 15.5984 37.3811 15.5984C37.3835 15.5984 37.3859 15.5984 37.3882 15.5984C37.3906 15.5984 37.393 15.5984 37.3953 15.5984C37.3977 15.5984 37.4001 15.5984 37.4024 15.5984C37.4048 15.5984 37.4072 15.5984 37.4095 15.5984C37.4119 15.5984 37.4142 15.5984 37.4166 15.5984C37.419 15.5984 37.4213 15.5984 37.4237 15.5984C37.4261 15.5984 37.4284 15.5984 37.4308 15.5984C37.4332 15.5984 37.4355 15.5984 37.4379 15.5984C37.4403 15.5984 37.4426 15.5984 37.445 15.5984C37.4474 15.5984 37.4497 15.5984 37.4521 15.5984C37.4545 15.5984 37.4568 15.5984 37.4592 15.5984C37.4616 15.5984 37.4639 15.5984 37.4663 15.5984C37.4687 15.5984 37.471 15.5984 37.4734 15.5984C37.4758 15.5984 37.4781 15.5984 37.4805 15.5984C37.4829 15.5984 37.4852 15.5984 37.4876 15.5984C37.49 15.5984 37.4923 15.5984 37.4947 15.5984C37.4971 15.5984 37.4994 15.5984 37.5018 15.5984C37.5042 15.5984 37.5065 15.5984 37.5089 15.5984C37.5112 15.5984 37.5136 15.5984 37.516 15.5984C37.5183 15.5984 37.5207 15.5984 37.5231 15.5984C37.5254 15.5984 37.5278 15.5984 37.5302 15.5984C37.5325 15.5984 37.5349 15.5984 37.5373 15.5984C37.5396 15.5984 37.542 15.5984 37.5444 15.5984C37.5467 15.5984 37.5491 15.5984 37.5515 15.5984C37.5538 15.5984 37.5562 15.5984 37.5586 15.5984C37.5609 15.5984 37.5633 15.5984 37.5657 15.5984C37.568 15.5984 37.5704 15.5984 37.5728 15.5984C37.5751 15.5984 37.5775 15.5984 37.5798 15.5984C37.5822 15.5984 37.5846 15.5984 37.5869 15.5984C37.5893 15.5984 37.5917 15.5984 37.594 15.5984C37.5964 15.5984 37.5988 15.5984 37.6011 15.5984C37.6035 15.5984 37.6059 15.5984 37.6082 15.5984C37.6106 15.5984 37.613 15.5984 37.6153 15.5984C37.6177 15.5984 37.6201 15.5984 37.6224 15.5984C37.6248 15.5984 37.6271 15.5984 37.6295 15.5984C37.6319 15.5984 37.6342 15.5984 37.6366 15.5984C37.639 15.5984 37.6413 15.5984 37.6437 15.5984C37.6461 15.5984 37.6484 15.5984 37.6508 15.5984C37.6532 15.5984 37.6555 15.5984 37.6579 15.5984C37.6603 15.5984 37.6626 15.5984 37.665 15.5984C37.6673 15.5984 37.6697 15.5984 37.6721 15.5984C37.6744 15.5984 37.6768 15.5984 37.6792 15.5984C37.6815 15.5984 37.6839 15.5984 37.6863 15.5984C37.6886 15.5984 37.691 15.5984 37.6934 15.5984C37.6957 15.5984 37.6981 15.5984 37.7005 15.5984C37.7028 15.5984 37.7052 15.5984 37.7075 15.5984C37.7099 15.5984 37.7123 15.5984 37.7146 15.5984C37.717 15.5984 37.7194 15.5984 37.7217 15.5984C37.7241 15.5984 37.7265 15.5984 37.7288 15.5984C37.7312 15.5984 37.7336 15.5984 37.7359 15.5984C37.7383 15.5984 37.7407 15.5984 37.743 15.5984C37.7454 15.5984 37.7477 15.5984 37.7501 15.5984C37.7525 15.5984 37.7548 15.5984 37.7572 15.5984C37.7596 15.5984 37.7619 15.5984 37.7643 15.5984C37.7667 15.5984 37.769 15.5984 37.7714 15.5984C37.7738 15.5984 37.7761 15.5984 37.7785 15.5984C37.7808 15.5984 37.7832 15.5984 37.7856 15.5984C37.7879 15.5984 37.7903 15.5984 37.7927 15.5984C37.795 15.5984 37.7974 15.5984 37.7998 15.5984C37.8021 15.5984 37.8045 15.5984 37.8068 15.5984C37.8092 15.5984 37.8116 15.5984 37.8139 15.5984C37.8163 15.5984 37.8187 15.5984 37.821 15.5984C37.8234 15.5984 37.8258 15.5984 37.8281 15.5984C37.8305 15.5984 37.8329 15.5984 37.8352 15.5984C37.8376 15.5984 37.8399 15.5984 37.8423 15.5984C37.8447 15.5984 37.847 15.5984 37.8494 15.5984C37.8518 15.5984 37.8541 15.5984 37.8565 15.5984C37.8589 15.5984 37.8612 15.5984 37.8636 15.5984C37.8659 15.5984 37.8683 15.5984 37.8707 15.5984C37.873 15.5984 37.8754 15.5984 37.8778 15.5984C37.8801 15.5984 37.8825 15.5984 37.8849 15.5984C37.8872 15.5984 37.8896 15.5984 37.8919 15.5984C37.8943 15.5984 37.8967 15.5984 37.899 15.5984C37.9014 15.5984 37.9038 15.5984 37.9061 15.5984C37.9085 15.5984 37.9109 15.5984 37.9132 15.5984C37.9156 15.5984 37.9179 15.5984 37.9203 15.5984C37.9227 15.5984 37.925 15.5984 37.9274 15.5984C37.9298 15.5984 37.9321 15.5984 37.9345 15.5984C37.9369 15.5984 37.9392 15.5984 37.9416 15.5984C37.9439 15.5984 37.9463 15.5984 37.9487 15.5984C37.951 15.5984 37.9534 15.5984 37.9558 15.5984C37.9581 15.5984 37.9605 15.5984 37.9629 15.5984C37.9652 15.5984 37.9676 15.5984 37.9699 15.5984C37.9723 15.5984 37.9747 15.5984 37.977 15.5984C37.9794 15.5984 37.9818 15.5984 37.9841 15.5984C37.9865 15.5984 37.9888 15.5984 37.9912 15.5984C37.9936 15.5984 37.9959 15.5984 37.9983 15.5984C38.0007 15.5984 38.003 15.5984 38.0054 15.5984C38.0078 15.5984 38.0101 15.5984 38.0125 15.5984C38.0148 15.5984 38.0172 15.5984 38.0196 15.5984C38.0219 15.5984 38.0243 15.5984 38.0267 15.5984C38.029 15.5984 38.0314 15.5984 38.0337 15.5984C38.0361 15.5984 38.0385 15.5984 38.0408 15.5984C38.0432 15.5984 38.0456 15.5984 38.0479 15.5984C38.0503 15.5984 38.0527 15.5984 38.055 15.5984C38.0574 15.5984 38.0597 15.5984 38.0621 15.5984C38.0645 15.5984 38.0668 15.5984 38.0692 15.5984C38.0716 15.5984 38.0739 15.5984 38.0763 15.5984C38.0786 15.5984 38.081 15.5984 38.0834 15.5984C38.0857 15.5984 38.0881 15.5984 38.0905 15.5984C38.0928 15.5984 38.0952 15.5984 38.0975 15.5984C38.0999 15.5984 38.1023 15.5984 38.1046 15.5984C38.107 15.5984 38.1094 15.5984 38.1117 15.5984C38.1141 15.5984 38.1165 15.5984 38.1188 15.5984C38.1212 15.5984 38.1235 15.5984 38.1259 15.5984C38.1283 15.5984 38.1306 15.5984 38.133 15.5984C38.1354 15.5984 38.1377 15.5984 38.1401 15.5984C38.1424 15.5984 38.1448 15.5984 38.1472 15.5984C38.1495 15.5984 38.1519 15.5984 38.1543 15.5984C38.1566 15.5984 38.159 15.5984 38.1613 15.5984C38.1637 15.5984 38.1661 15.5984 38.1684 15.5984C38.1708 15.5984 38.1732 15.5984 38.1755 15.5984C38.1779 15.5984 38.1802 15.5984 38.1826 15.5984C38.185 15.5984 38.1873 15.5984 38.1897 15.5984C38.1921 15.5984 38.1944 15.5984 38.1968 15.5984C38.1991 15.5984 38.2015 15.5984 38.2039 15.5984C38.2062 15.5984 38.2086 15.5984 38.211 15.5984C38.2133 15.5984 38.2157 15.5984 38.218 15.5984C38.2204 15.5984 38.2228 15.5984 38.2251 15.5984C38.2275 15.5984 38.2299 15.5984 38.2322 15.5984C38.2346 15.5984 38.2369 15.5984 38.2393 15.5984C38.2417 15.5984 38.244 15.5984 38.2464 15.5984C38.2488 15.5984 38.2511 15.5984 38.2535 15.5984C38.2558 15.5984 38.2582 15.5984 38.2606 15.5984C38.2629 15.5984 38.2653 15.5984 38.2677 15.5984C38.27 15.5984 38.2724 15.5984 38.2747 15.5984C38.2771 15.5984 38.2795 15.5984 38.2818 15.5984C38.2842 15.5984 38.2866 15.5984 38.2889 15.5984C38.2913 15.5984 38.2936 15.5984 38.296 15.5984C38.2984 15.5984 38.3007 15.5984 38.3031 15.5984C38.3055 15.5984 38.3078 15.5984 38.3102 15.5984C38.3125 15.5984 38.3149 15.5984 38.3173 15.5984C38.3196 15.5984 38.322 15.5984 38.3244 15.5984C38.3267 15.5984 38.3291 15.5984 38.3314 15.5984C38.3338 15.5984 38.3362 15.5984 38.3385 15.5984C38.3409 15.5984 38.3433 15.5984 38.3456 15.5984C38.348 15.5984 38.3503 15.5984 38.3527 15.5984C38.3551 15.5984 38.3574 15.5984 38.3598 15.5984C38.3621 15.5984 38.3645 15.5984 38.3669 15.5984C38.3692 15.5984 38.3716 15.5984 38.374 15.5984C38.3763 15.5984 38.3787 15.5984 38.381 15.5984C38.3834 15.5984 38.3858 15.5984 38.3881 15.5984C38.3905 15.5984 38.3929 15.5984 38.3952 15.5984C38.3976 15.5984 38.3999 15.5984 38.4023 15.5984C38.4047 15.5984 38.407 15.5984 38.4094 15.5984C38.4118 15.5984 38.4141 15.5984 38.4165 15.5984C38.4188 15.5984 38.4212 15.5984 38.4236 15.5984C38.4259 15.5984 38.4283 15.5984 38.4306 15.5984C38.433 15.5984 38.4354 15.5984 38.4377 15.5984C38.4401 15.5984 38.4425 15.5984 38.4448 15.5984C38.4472 15.5984 38.4495 15.5984 38.4519 15.5984C38.4543 15.5984 38.4566 15.5984 38.459 15.5984C38.4614 15.5984 38.4637 15.5984 38.4661 15.5984C38.4684 15.5984 38.4708 15.5984 38.4732 15.5984C38.4755 15.5984 38.4779 15.5984 38.4802 15.5984C38.4826 15.5984 38.485 15.5984 38.4873 15.5984C38.4897 15.5984 38.4921 15.5984 38.4944 15.5984C38.4968 15.5984 38.4991 15.5984 38.5015 15.5984C38.5039 15.5984 38.5062 15.5984 38.5086 15.5984C38.511 15.5984 38.5133 15.5984 38.5157 15.5984C38.518 15.5984 38.5204 15.5984 38.5228 15.5984C38.5251 15.5984 38.5275 15.5984 38.5298 15.5984C38.5322 15.5984 38.5346 15.5984 38.5369 15.5984C38.5393 15.5984 38.5417 15.5984 38.544 15.5984C38.5464 15.5984 38.5487 15.5984 38.5511 15.5984C38.5535 15.5984 38.5558 15.5984 38.5582 15.5984C38.5606 15.5984 38.5629 15.5984 38.5653 15.5984C38.5676 15.5984 38.57 15.5984 38.5724 15.5984C38.5747 15.5984 38.5771 15.5984 38.5794 15.5984C38.5818 15.5984 38.5842 15.5984 38.5865 15.5984C38.5889 15.5984 38.5913 15.5984 38.5936 15.5984C38.596 15.5984 38.5983 15.5984 38.6007 15.5984C38.6031 15.5984 38.6054 15.5984 38.6078 15.5984C38.6101 15.5984 38.6125 15.5984 38.6149 15.5984C38.6172 15.5984 38.6196 15.5984 38.622 15.5984C38.6243 15.5984 38.6267 15.5984 38.629 15.5984C38.6314 15.5984 38.6338 15.5984 38.6361 15.5984C38.6385 15.5984 38.6408 15.5984 38.6432 15.5984C38.6456 15.5984 38.6479 15.5984 38.6503 15.5984C38.6527 15.5984 38.655 15.5984 38.6574 15.5984C38.6597 15.5984 38.6621 15.5984 38.6645 15.5984C38.6668 15.5984 38.6692 15.5984 38.6715 15.5984C38.6739 15.5984 38.6763 15.5984 38.6786 15.5984C38.681 15.5984 38.6834 15.5984 38.6857 15.5984C38.6881 15.5984 38.6904 15.5984 38.6928 15.5984C38.6952 15.5984 38.6975 15.5984 38.6999 15.5984C38.7022 15.5984 38.7046 15.5984 38.707 15.5984C38.7093 15.5984 38.7117 15.5984 38.7141 15.5984C38.7164 15.5984 38.7188 15.5984 38.7211 15.5984C38.7235 15.5984 38.7259 15.5984 38.7282 15.5984C38.7306 15.5984 38.7329 15.5984 38.7353 15.5984C38.7377 15.5984 38.74 15.5984 38.7424 15.5984C38.7448 15.5984 38.7471 15.5984 38.7495 15.5984C38.7518 15.5984 38.7542 15.5984 38.7566 15.5984C38.7589 15.5984 38.7613 15.5984 38.7636 15.5984C38.766 15.5984 38.7684 15.5984 38.7707 15.5984C38.7731 15.5984 38.7755 15.5984 38.7778 15.5984C38.7802 15.5984 38.7825 15.5984 38.7849 15.5984C38.7873 15.5984 38.7896 15.5984 38.792 15.5984C38.7943 15.5984 38.7967 15.5984 38.7991 15.5984C38.8014 15.5984 38.8038 15.5984 38.8062 15.5984C38.8085 15.5984 38.8109 15.5984 38.8132 15.5984C38.8156 15.5984 38.818 15.5984 38.8203 15.5984C38.8227 15.5984 38.825 15.5984 38.8274 15.5984C38.8298 15.5984 38.8321 15.5984 38.8345 15.5984C38.8369 15.5984 38.8392 15.5984 38.8416 15.5984C38.8439 15.5984 38.8463 15.5984 38.8487 15.5984C38.851 15.5984 38.8534 15.5984 38.8557 15.5984C38.8581 15.5984 38.8605 15.5984 38.8628 15.5984C38.8652 15.5984 38.8676 15.5984 38.8699 15.5984C38.8723 15.5984 38.8746 15.5984 38.877 15.5984C38.8794 15.5984 38.8817 15.5984 38.8841 15.5984C38.8864 15.5984 38.8888 15.5984 38.8912 15.5984C38.8935 15.5984 38.8959 15.5984 38.8983 15.5984C38.9006 15.5984 38.903 15.5984 38.9053 15.5984C38.9077 15.5984 38.9101 15.5984 38.9124 15.5984C38.9148 15.5984 38.9171 15.5984 38.9195 15.5984C38.9219 15.5984 38.9242 15.5984 38.9266 15.5984C38.929 15.5984 38.9313 15.5984 38.9337 15.5984C38.936 15.5984 38.9384 15.5984 38.9408 15.5984C38.9431 15.5984 38.9455 15.5984 38.9478 15.5984C38.9502 15.5984 38.9526 15.5984 38.9549 15.5984C38.9573 15.5984 38.9596 15.5984 38.962 15.5984C38.9644 15.5984 38.9667 15.5984 38.9691 15.5984C38.9715 15.5984 38.9738 15.5984 38.9762 15.5984C38.9785 15.5984 38.9809 15.5984 38.9833 15.5984C38.9856 15.5984 38.988 15.5984 38.9903 15.5984C38.9927 15.5984 38.9951 15.5984 38.9974 15.5984C38.9998 15.5984 39.0022 15.5984 39.0045 15.5984C39.0069 15.5984 39.0092 15.5984 39.0116 15.5984C39.014 15.5984 39.0163 15.5984 39.0187 15.5984C39.021 15.5984 39.0234 15.5984 39.0258 15.5984C39.0281 15.5984 39.0305 15.5984 39.0329 15.5984C39.0352 15.5984 39.0376 15.5984 39.0399 15.5984C39.0423 15.5984 39.0447 15.5984 39.047 15.5984C39.0494 15.5984 39.0517 15.5984 39.0541 15.5984C39.0565 15.5984 39.0588 15.5984 39.0612 15.5984C39.0636 15.5984 39.0659 15.5984 39.0683 15.5984C39.0706 15.5984 39.073 15.5984 39.0754 15.5984C39.0777 15.5984 39.0801 15.5984 39.0824 15.5984C39.0848 15.5984 39.0872 15.5984 39.0895 15.5984C39.0919 15.5984 39.0942 15.5984 39.0966 15.5984C39.099 15.5984 39.1013 15.5984 39.1037 15.5984C39.1061 15.5984 39.1084 15.5984 39.1108 15.5984C39.1131 15.5984 39.1155 15.5984 39.1179 15.5984C39.1202 15.5984 39.1226 15.5984 39.125 15.5984C39.1273 15.5984 39.1297 15.5984 39.132 15.5984C39.1344 15.5984 39.1368 15.5984 39.1391 15.5984C39.1415 15.5984 39.1438 15.5984 39.1462 15.5984C39.1486 15.5984 39.1509 15.5984 39.1533 15.5984C39.1556 15.5984 39.158 15.5984 39.1604 15.5984C39.1627 15.5984 39.1651 15.5984 39.1675 15.5984C39.1698 15.5984 39.1722 15.5984 39.1745 15.5984C39.1769 15.5984 39.1793 15.5984 39.1816 15.5984C39.184 15.5984 39.1863 15.5984 39.1887 15.5984C39.1911 15.5984 39.1934 15.5984 39.1958 15.5984C39.1982 15.5984 39.2005 15.5984 39.2029 15.5984C39.2052 15.5984 39.2076 15.5984 39.21 15.5984C39.2123 15.5984 39.2147 15.5984 39.217 15.5984C39.2194 15.5984 39.2218 15.5984 39.2241 15.5984C39.2265 15.5984 39.2289 15.5984 39.2312 15.5984C39.2336 15.5984 39.2359 15.5984 39.2383 15.5984C39.2407 15.5984 39.243 15.5984 39.2454 15.5984C39.2477 15.5984 39.2501 15.5984 39.2525 15.5984C39.2548 15.5984 39.2572 15.5984 39.2596 15.5984C39.2619 15.5984 39.2643 15.5984 39.2666 15.5984C39.269 15.5984 39.2714 15.5984 39.2737 15.5984C39.2761 15.5984 39.2785 15.5984 39.2808 15.5984C39.2832 15.5984 39.2855 15.5984 39.2879 15.5984C39.2903 15.5984 39.2926 15.5984 39.295 15.5984C39.2973 15.5984 39.2997 15.5984 39.3021 15.5984C39.3044 15.5984 39.3068 15.5984 39.3092 15.5984C39.3115 15.5984 39.3139 15.5984 39.3162 15.5984C39.3186 15.5984 39.321 15.5984 39.3233 15.5984C39.3257 15.5984 39.328 15.5984 39.3304 15.5984C39.3328 15.5984 39.3351 15.5984 39.3375 15.5984C39.3399 15.5984 39.3422 15.5984 39.3446 15.5984C39.3469 15.5984 39.3493 15.5984 39.3517 15.5984C39.354 15.5984 39.3564 15.5984 39.3587 15.5984C39.3611 15.5984 39.3635 15.5984 39.3658 15.5984C39.3682 15.5984 39.3706 15.5984 39.3729 15.5984C39.3753 15.5984 39.3776 15.5984 39.38 15.5984C39.3824 15.5984 39.3847 15.5984 39.3871 15.5984C39.3895 15.5984 39.3918 15.5984 39.3942 15.5984C39.3965 15.5984 39.3989 15.5984 39.4013 15.5984C39.4036 15.5984 39.406 15.5984 39.4083 15.5984C39.4107 15.5984 39.4131 15.5984 39.4154 15.5984C39.4178 15.5984 39.4202 15.5984 39.4225 15.5984C39.4249 15.5984 39.4272 15.5984 39.4296 15.5984C39.432 15.5984 39.4343 15.5984 39.4367 15.5984C39.439 15.5984 39.4414 15.5984 39.4438 15.5984C39.4461 15.5984 39.4485 15.5984 39.4509 15.5984C39.4532 15.5984 39.4556 15.5984 39.4579 15.5984C39.4603 15.5984 39.4627 15.5984 39.465 15.5984C39.4674 15.5984 39.4698 15.5984 39.4721 15.5984C39.4745 15.5984 39.4768 15.5984 39.4792 15.5984C39.4816 15.5984 39.4839 15.5984 39.4863 15.5984C39.4886 15.5984 39.491 15.5984 39.4934 15.5984C39.4957 15.5984 39.4981 15.5984 39.5005 15.5984C39.5028 15.5984 39.5052 15.5984 39.5075 15.5984C39.5099 15.5984 39.5123 15.5984 39.5146 15.5984C39.517 15.5984 39.5194 15.5984 39.5217 15.5984C39.5241 15.5984 39.5264 15.5984 39.5288 15.5984C39.5312 15.5984 39.5335 15.5984 39.5359 15.5984C39.5382 15.5984 39.5406 15.5984 39.543 15.5984C39.5453 15.5984 39.5477 15.5984 39.5501 15.5984C39.5524 15.5984 39.5548 15.5984 39.5571 15.5984C39.5595 15.5984 39.5619 15.5984 39.5642 15.5984C39.5666 15.5984 39.569 15.5984 39.5713 15.5984C39.5737 15.5984 39.576 15.5984 39.5784 15.5984C39.5808 15.5984 39.5831 15.5984 39.5855 15.5984C39.5879 15.5984 39.5902 15.5984 39.5926 15.5984C39.5949 15.5984 39.5973 15.5984 39.5997 15.5984C39.602 15.5984 39.6044 15.5984 39.6068 15.5984C39.6091 15.5984 39.6115 15.5984 39.6138 15.5984C39.6162 15.5984 39.6186 15.5984 39.6209 15.5984C39.6233 15.5984 39.6257 15.5984 39.628 15.5984C39.6304 15.5984 39.6327 15.5984 39.6351 15.5984C39.6375 15.5984 39.6398 15.5984 39.6422 15.5984C39.6446 15.5984 39.6469 15.5984 39.6493 15.5984C39.6516 15.5984 39.654 15.5984 39.6564 15.5984C39.6587 15.5984 39.6611 15.5984 39.6634 15.5984C39.6658 15.5984 39.6682 15.5984 39.6705 15.5984C39.6729 15.5984 39.6753 15.5984 39.6776 15.5984C39.68 15.5984 39.6823 15.5984 39.6847 15.5984C39.6871 15.5984 39.6894 15.5984 39.6918 15.5984C39.6942 15.5984 39.6965 15.5984 39.6989 15.5984C39.7012 15.5984 39.7036 15.5984 39.706 15.5984C39.7083 15.5984 39.7107 15.5984 39.7131 15.5984C39.7154 15.5984 39.7178 15.5984 39.7201 15.5984C39.7225 15.5984 39.7249 15.5984 39.7272 15.5984C39.7296 15.5984 39.732 15.5984 39.7343 15.5984C39.7367 15.5984 39.739 15.5984 39.7414 15.5984C39.7438 15.5984 39.7461 15.5984 39.7485 15.5984C39.7509 15.5984 39.7532 15.5984 39.7556 15.5984C39.7579 15.5984 39.7603 15.5984 39.7627 15.5984C39.765 15.5984 39.7674 15.5984 39.7698 15.5984C39.7721 15.5984 39.7745 15.5984 39.7769 15.5984C39.7792 15.5984 39.7816 15.5984 39.7839 15.5984C39.7863 15.5984 39.7887 15.5984 39.791 15.5984C39.7934 15.5984 39.7958 15.5984 39.7981 15.5984C39.8005 15.5984 39.8028 15.5984 39.8052 15.5984C39.8076 15.5984 39.8099 15.5984 39.8123 15.5984C39.8147 15.5984 39.817 15.5984 39.8194 15.5984C39.8217 15.5984 39.8241 15.5984 39.8265 15.5984C39.8288 15.5984 39.8312 15.5984 39.8336 15.5984C39.8359 15.5984 39.8383 15.5984 39.8406 15.5984C39.843 15.5984 39.8454 15.5984 39.8477 15.5984C39.8501 15.5984 39.8525 15.5984 39.8548 15.5984C39.8572 15.5984 39.8596 15.5984 39.8619 15.5984C39.8643 15.5984 39.8666 15.5984 39.869 15.5984C39.8714 15.5984 39.8737 15.5984 39.8761 15.5984C39.8785 15.5984 39.8808 15.5984 39.8832 15.5984C39.8855 15.5984 39.8879 15.5984 39.8903 15.5984C39.8926 15.5984 39.895 15.5984 39.8974 15.5984C39.8997 15.5984 39.9021 15.5984 39.9044 15.5984C39.9068 15.5984 39.9092 15.5984 39.9115 15.5984C39.9139 15.5984 39.9163 15.5984 39.9186 15.5984C39.921 15.5984 39.9234 15.5984 39.9257 15.5984C39.9281 15.5984 39.9304 15.5984 39.9328 15.5984C39.9352 15.5984 39.9375 15.5984 39.9399 15.5984C39.9423 15.5984 39.9446 15.5984 39.947 15.5984C39.9494 15.5984 39.9517 15.5984 39.9541 15.5984C39.9564 15.5984 39.9588 15.5984 39.9612 15.5984C39.9635 15.5984 39.9659 15.5984 39.9683 15.5984C39.9706 15.5984 39.973 15.5984 39.9753 15.5984C39.9777 15.5984 39.9801 15.5984 39.9824 15.5984C39.9848 15.5984 39.9872 15.5984 39.9895 15.5984C39.9919 15.5984 39.9943 15.5984 39.9966 15.5984C39.999 15.5984 40.0013 15.5984 40.0037 15.5984C40.0061 15.5984 40.0084 15.5984 40.0108 15.5984C40.0132 15.5984 40.0155 15.5984 40.0179 15.5984C40.0203 15.5984 40.0226 15.5984 40.025 15.5984C40.0273 15.5984 40.0297 15.5984 40.0321 15.5984C40.0344 15.5984 40.0368 15.5984 40.0392 15.5984C40.0415 15.5984 40.0439 15.5984 40.0463 15.5984C40.0486 15.5984 40.051 15.5984 40.0533 15.5984C40.0557 15.5984 40.0581 15.5984 40.0604 15.5984C40.0628 15.5984 40.0652 15.5984 40.0675 15.5984C40.0699 15.5984 40.0723 15.5984 40.0746 15.5984C40.077 15.5984 40.0793 15.5984 40.0817 15.5984C40.0841 15.5984 40.0864 15.5984 40.0888 15.5984C40.0912 15.5984 40.0935 15.5984 40.0959 15.5984C40.0983 15.5984 40.1006 15.5984 40.103 15.5984C40.1054 15.5984 40.1077 15.5984 40.1101 15.5984C40.1124 15.5984 40.1148 15.5984 40.1172 15.5984C40.1195 15.5984 40.1219 15.5984 40.1243 15.5984C40.1266 15.5984 40.129 15.5984 40.1314 15.5984C40.1337 15.5984 40.1361 15.5984 40.1385 15.5984C40.1408 15.5984 40.1432 15.5984 40.1455 15.5984C40.1479 15.5984 40.1503 15.5984 40.1526 15.5984C40.155 15.5984 40.1574 15.5984 40.1597 15.5984C40.1621 15.5984 40.1645 15.5984 40.1668 15.5984C40.1692 15.5984 40.1716 15.5984 40.1739 15.5984C40.1763 15.5984 40.1786 15.5984 40.181 15.5984C40.1834 15.5984 40.1857 15.5984 40.1881 15.5984C40.1905 15.5984 40.1928 15.5984 40.1952 15.5984C40.1976 15.5984 40.1999 15.5984 40.2023 15.5984C40.2047 15.5984 40.207 15.5984 40.2094 15.5984C40.2117 15.5984 40.2141 15.5984 40.2165 15.5984C40.2188 15.5984 40.2212 15.5984 40.2236 15.5984C40.2259 15.5984 40.2283 15.5984 40.2307 15.5984C40.233 15.5984 40.2354 15.5984 40.2378 15.5984C40.2401 15.5984 40.2425 15.5984 40.2448 15.5984C40.2472 15.5984 40.2496 15.5984 40.2519 15.5984C40.2543 15.5984 40.2567 15.5984 40.259 15.5984C40.2614 15.5984 40.2638 15.5984 40.2661 15.5984C40.2685 15.5984 40.2709 15.5984 40.2732 15.5984C40.2756 15.5984 40.278 15.5984 40.2803 15.5984C40.2827 15.5984 40.285 15.5984 40.2874 15.5984C40.2898 15.5984 40.2921 15.5984 40.2945 15.5984C40.2969 15.5984 40.2992 15.5984 40.3016 15.5984C40.304 15.5984 40.3063 15.5984 40.3087 15.5984C40.3111 15.5984 40.3134 15.5984 40.3158 15.5984C40.3182 15.5984 40.3205 15.5984 40.3229 15.5984C40.3253 15.5984 40.3276 15.5984 40.33 15.5984C40.3323 15.5984 40.3347 15.5984 40.3371 15.5984C40.3394 15.5984 40.3418 15.5984 40.3442 15.5984C40.3465 15.5984 40.3489 15.5984 40.3513 15.5984C40.3536 15.5984 40.356 15.5984 40.3584 15.5984C40.3607 15.5984 40.3631 15.5984 40.3655 15.5984C40.3678 15.5984 40.3702 15.5984 40.3726 15.5984C40.3749 15.5984 40.3773 15.5984 40.3797 15.5984C40.382 15.5984 40.3844 15.5984 40.3867 15.5984C40.3891 15.5984 40.3915 15.5984 40.3938 15.5984C40.3962 15.5984 40.3986 15.5984 40.4009 15.5984C40.4033 15.5984 40.4057 15.5984 40.408 15.5984C40.4104 15.5984 40.4128 15.5984 40.4151 15.5984C40.4175 15.5984 40.4199 15.5984 40.4222 15.5984C40.4246 15.5984 40.427 15.5984 40.4293 15.5984C40.4317 15.5984 40.4341 15.5984 40.4364 15.5984C40.4388 15.5984 40.4412 15.5984 40.4435 15.5984C40.4459 15.5984 40.4483 15.5984 40.4506 15.5984C40.453 15.5984 40.4554 15.5984 40.4577 15.5984C40.4601 15.5984 40.4624 15.5984 40.4648 15.5984C40.4672 15.5984 40.4695 15.5984 40.4719 15.5984C40.4743 15.5984 40.4766 15.5984 40.479 15.5984C40.4814 15.5984 40.4837 15.5984 40.4861 15.5984C40.4885 15.5984 40.4908 15.5984 40.4932 15.5984C40.4956 15.5984 40.4979 15.5984 40.5003 15.5984C40.5027 15.5984 40.505 15.5984 40.5074 15.5984C40.5098 15.5984 40.5121 15.5984 40.5145 15.5984C40.5169 15.5984 40.5192 15.5984 40.5216 15.5984C40.524 15.5984 40.5263 15.5984 40.5287 15.5984C40.5311 15.5984 40.5334 15.5984 40.5358 15.5984C40.5382 15.5984 40.5405 15.5984 40.5429 15.5984C40.5453 15.5984 40.5476 15.5984 40.55 15.5984C40.5524 15.5984 40.5547 15.5984 40.5571 15.5984C40.5595 15.5984 40.5618 15.5984 40.5642 15.5984C40.5666 15.5984 40.5689 15.5984 40.5713 15.5984C40.5737 15.5984 40.576 15.5984 40.5784 15.5984C40.5808 15.5984 40.5831 15.5984 40.5855 15.5984C40.5879 15.5984 40.5902 15.5984 40.5926 15.5984C40.595 15.5984 40.5973 15.5984 40.5997 15.5984C40.6021 15.5984 40.6044 15.5984 40.6068 15.5984C40.6092 15.5984 40.6115 15.5984 40.6139 15.5984C40.6163 15.5984 40.6186 15.5984 40.621 15.5984C40.6234 15.5984 40.6257 15.5984 40.6281 15.5984C40.6305 15.5984 40.6328 15.5984 40.6352 15.5984C40.6376 15.5984 40.6399 15.5984 40.6423 15.5984C40.6447 15.5984 40.647 15.5984 40.6494 15.5984C40.6518 15.5984 40.6541 15.5984 40.6565 15.5984C40.6589 15.5984 40.6612 15.5984 40.6636 15.5984C40.666 15.5984 40.6683 15.5984 40.6707 15.5984C40.6731 15.5984 40.6754 15.5984 40.6778 15.5984C40.6802 15.5984 40.6825 15.5984 40.6849 15.5984C40.6873 15.5984 40.6896 15.5984 40.692 15.5984C40.6944 15.5984 40.6967 15.5984 40.6991 15.5984C40.7015 15.5984 40.7038 15.5984 40.7062 15.5984C40.7086 15.5984 40.7109 15.5984 40.7133 15.5984C40.7157 15.5984 40.718 15.5984 40.7204 15.5984C40.7228 15.5984 40.7251 15.5984 40.7275 15.5984C40.7299 15.5984 40.7323 15.5984 40.7346 15.5984C40.737 15.5984 40.7394 15.5984 40.7417 15.5984C40.7441 15.5984 40.7465 15.5984 40.7488 15.5984C40.7512 15.5984 40.7536 15.5984 40.7559 15.5984C40.7583 15.5984 40.7607 15.5984 40.763 15.5984C40.7654 15.5984 40.7678 15.5984 40.7701 15.5984C40.7725 15.5984 40.7749 15.5984 40.7772 15.5984V13.5984C40.7749 13.5984 40.7725 13.5984 40.7701 13.5984C40.7678 13.5984 40.7654 13.5984 40.763 13.5984C40.7607 13.5984 40.7583 13.5984 40.7559 13.5984C40.7536 13.5984 40.7512 13.5984 40.7488 13.5984C40.7465 13.5984 40.7441 13.5984 40.7417 13.5984C40.7394 13.5984 40.737 13.5984 40.7346 13.5984C40.7323 13.5984 40.7299 13.5984 40.7275 13.5984C40.7251 13.5984 40.7228 13.5984 40.7204 13.5984C40.718 13.5984 40.7157 13.5984 40.7133 13.5984C40.7109 13.5984 40.7086 13.5984 40.7062 13.5984C40.7038 13.5984 40.7015 13.5984 40.6991 13.5984C40.6967 13.5984 40.6944 13.5984 40.692 13.5984C40.6896 13.5984 40.6873 13.5984 40.6849 13.5984C40.6825 13.5984 40.6802 13.5984 40.6778 13.5984C40.6754 13.5984 40.6731 13.5984 40.6707 13.5984C40.6683 13.5984 40.666 13.5984 40.6636 13.5984C40.6612 13.5984 40.6589 13.5984 40.6565 13.5984C40.6541 13.5984 40.6518 13.5984 40.6494 13.5984C40.647 13.5984 40.6447 13.5984 40.6423 13.5984C40.6399 13.5984 40.6376 13.5984 40.6352 13.5984C40.6328 13.5984 40.6305 13.5984 40.6281 13.5984C40.6257 13.5984 40.6234 13.5984 40.621 13.5984C40.6186 13.5984 40.6163 13.5984 40.6139 13.5984C40.6115 13.5984 40.6092 13.5984 40.6068 13.5984C40.6044 13.5984 40.6021 13.5984 40.5997 13.5984C40.5973 13.5984 40.595 13.5984 40.5926 13.5984C40.5902 13.5984 40.5879 13.5984 40.5855 13.5984C40.5831 13.5984 40.5808 13.5984 40.5784 13.5984C40.576 13.5984 40.5737 13.5984 40.5713 13.5984C40.5689 13.5984 40.5666 13.5984 40.5642 13.5984C40.5618 13.5984 40.5595 13.5984 40.5571 13.5984C40.5547 13.5984 40.5524 13.5984 40.55 13.5984C40.5476 13.5984 40.5453 13.5984 40.5429 13.5984C40.5405 13.5984 40.5382 13.5984 40.5358 13.5984C40.5334 13.5984 40.5311 13.5984 40.5287 13.5984C40.5263 13.5984 40.524 13.5984 40.5216 13.5984C40.5192 13.5984 40.5169 13.5984 40.5145 13.5984C40.5121 13.5984 40.5098 13.5984 40.5074 13.5984C40.505 13.5984 40.5027 13.5984 40.5003 13.5984C40.4979 13.5984 40.4956 13.5984 40.4932 13.5984C40.4908 13.5984 40.4885 13.5984 40.4861 13.5984C40.4837 13.5984 40.4814 13.5984 40.479 13.5984C40.4766 13.5984 40.4743 13.5984 40.4719 13.5984C40.4695 13.5984 40.4672 13.5984 40.4648 13.5984C40.4624 13.5984 40.4601 13.5984 40.4577 13.5984C40.4554 13.5984 40.453 13.5984 40.4506 13.5984C40.4483 13.5984 40.4459 13.5984 40.4435 13.5984C40.4412 13.5984 40.4388 13.5984 40.4364 13.5984C40.4341 13.5984 40.4317 13.5984 40.4293 13.5984C40.427 13.5984 40.4246 13.5984 40.4222 13.5984C40.4199 13.5984 40.4175 13.5984 40.4151 13.5984C40.4128 13.5984 40.4104 13.5984 40.408 13.5984C40.4057 13.5984 40.4033 13.5984 40.4009 13.5984C40.3986 13.5984 40.3962 13.5984 40.3938 13.5984C40.3915 13.5984 40.3891 13.5984 40.3867 13.5984C40.3844 13.5984 40.382 13.5984 40.3797 13.5984C40.3773 13.5984 40.3749 13.5984 40.3726 13.5984C40.3702 13.5984 40.3678 13.5984 40.3655 13.5984C40.3631 13.5984 40.3607 13.5984 40.3584 13.5984C40.356 13.5984 40.3536 13.5984 40.3513 13.5984C40.3489 13.5984 40.3465 13.5984 40.3442 13.5984C40.3418 13.5984 40.3394 13.5984 40.3371 13.5984C40.3347 13.5984 40.3323 13.5984 40.33 13.5984C40.3276 13.5984 40.3253 13.5984 40.3229 13.5984C40.3205 13.5984 40.3182 13.5984 40.3158 13.5984C40.3134 13.5984 40.3111 13.5984 40.3087 13.5984C40.3063 13.5984 40.304 13.5984 40.3016 13.5984C40.2992 13.5984 40.2969 13.5984 40.2945 13.5984C40.2921 13.5984 40.2898 13.5984 40.2874 13.5984C40.285 13.5984 40.2827 13.5984 40.2803 13.5984C40.278 13.5984 40.2756 13.5984 40.2732 13.5984C40.2709 13.5984 40.2685 13.5984 40.2661 13.5984C40.2638 13.5984 40.2614 13.5984 40.259 13.5984C40.2567 13.5984 40.2543 13.5984 40.2519 13.5984C40.2496 13.5984 40.2472 13.5984 40.2448 13.5984C40.2425 13.5984 40.2401 13.5984 40.2378 13.5984C40.2354 13.5984 40.233 13.5984 40.2307 13.5984C40.2283 13.5984 40.2259 13.5984 40.2236 13.5984C40.2212 13.5984 40.2188 13.5984 40.2165 13.5984C40.2141 13.5984 40.2117 13.5984 40.2094 13.5984C40.207 13.5984 40.2047 13.5984 40.2023 13.5984C40.1999 13.5984 40.1976 13.5984 40.1952 13.5984C40.1928 13.5984 40.1905 13.5984 40.1881 13.5984C40.1857 13.5984 40.1834 13.5984 40.181 13.5984C40.1786 13.5984 40.1763 13.5984 40.1739 13.5984C40.1716 13.5984 40.1692 13.5984 40.1668 13.5984C40.1645 13.5984 40.1621 13.5984 40.1597 13.5984C40.1574 13.5984 40.155 13.5984 40.1526 13.5984C40.1503 13.5984 40.1479 13.5984 40.1455 13.5984C40.1432 13.5984 40.1408 13.5984 40.1385 13.5984C40.1361 13.5984 40.1337 13.5984 40.1314 13.5984C40.129 13.5984 40.1266 13.5984 40.1243 13.5984C40.1219 13.5984 40.1195 13.5984 40.1172 13.5984C40.1148 13.5984 40.1124 13.5984 40.1101 13.5984C40.1077 13.5984 40.1054 13.5984 40.103 13.5984C40.1006 13.5984 40.0983 13.5984 40.0959 13.5984C40.0935 13.5984 40.0912 13.5984 40.0888 13.5984C40.0864 13.5984 40.0841 13.5984 40.0817 13.5984C40.0793 13.5984 40.077 13.5984 40.0746 13.5984C40.0723 13.5984 40.0699 13.5984 40.0675 13.5984C40.0652 13.5984 40.0628 13.5984 40.0604 13.5984C40.0581 13.5984 40.0557 13.5984 40.0533 13.5984C40.051 13.5984 40.0486 13.5984 40.0463 13.5984C40.0439 13.5984 40.0415 13.5984 40.0392 13.5984C40.0368 13.5984 40.0344 13.5984 40.0321 13.5984C40.0297 13.5984 40.0273 13.5984 40.025 13.5984C40.0226 13.5984 40.0203 13.5984 40.0179 13.5984C40.0155 13.5984 40.0132 13.5984 40.0108 13.5984C40.0084 13.5984 40.0061 13.5984 40.0037 13.5984C40.0013 13.5984 39.999 13.5984 39.9966 13.5984C39.9943 13.5984 39.9919 13.5984 39.9895 13.5984C39.9872 13.5984 39.9848 13.5984 39.9824 13.5984C39.9801 13.5984 39.9777 13.5984 39.9753 13.5984C39.973 13.5984 39.9706 13.5984 39.9683 13.5984C39.9659 13.5984 39.9635 13.5984 39.9612 13.5984C39.9588 13.5984 39.9564 13.5984 39.9541 13.5984C39.9517 13.5984 39.9494 13.5984 39.947 13.5984C39.9446 13.5984 39.9423 13.5984 39.9399 13.5984C39.9375 13.5984 39.9352 13.5984 39.9328 13.5984C39.9304 13.5984 39.9281 13.5984 39.9257 13.5984C39.9234 13.5984 39.921 13.5984 39.9186 13.5984C39.9163 13.5984 39.9139 13.5984 39.9115 13.5984C39.9092 13.5984 39.9068 13.5984 39.9044 13.5984C39.9021 13.5984 39.8997 13.5984 39.8974 13.5984C39.895 13.5984 39.8926 13.5984 39.8903 13.5984C39.8879 13.5984 39.8855 13.5984 39.8832 13.5984C39.8808 13.5984 39.8785 13.5984 39.8761 13.5984C39.8737 13.5984 39.8714 13.5984 39.869 13.5984C39.8666 13.5984 39.8643 13.5984 39.8619 13.5984C39.8596 13.5984 39.8572 13.5984 39.8548 13.5984C39.8525 13.5984 39.8501 13.5984 39.8477 13.5984C39.8454 13.5984 39.843 13.5984 39.8406 13.5984C39.8383 13.5984 39.8359 13.5984 39.8336 13.5984C39.8312 13.5984 39.8288 13.5984 39.8265 13.5984C39.8241 13.5984 39.8217 13.5984 39.8194 13.5984C39.817 13.5984 39.8147 13.5984 39.8123 13.5984C39.8099 13.5984 39.8076 13.5984 39.8052 13.5984C39.8028 13.5984 39.8005 13.5984 39.7981 13.5984C39.7958 13.5984 39.7934 13.5984 39.791 13.5984C39.7887 13.5984 39.7863 13.5984 39.7839 13.5984C39.7816 13.5984 39.7792 13.5984 39.7769 13.5984C39.7745 13.5984 39.7721 13.5984 39.7698 13.5984C39.7674 13.5984 39.765 13.5984 39.7627 13.5984C39.7603 13.5984 39.7579 13.5984 39.7556 13.5984C39.7532 13.5984 39.7509 13.5984 39.7485 13.5984C39.7461 13.5984 39.7438 13.5984 39.7414 13.5984C39.739 13.5984 39.7367 13.5984 39.7343 13.5984C39.732 13.5984 39.7296 13.5984 39.7272 13.5984C39.7249 13.5984 39.7225 13.5984 39.7201 13.5984C39.7178 13.5984 39.7154 13.5984 39.7131 13.5984C39.7107 13.5984 39.7083 13.5984 39.706 13.5984C39.7036 13.5984 39.7012 13.5984 39.6989 13.5984C39.6965 13.5984 39.6942 13.5984 39.6918 13.5984C39.6894 13.5984 39.6871 13.5984 39.6847 13.5984C39.6823 13.5984 39.68 13.5984 39.6776 13.5984C39.6753 13.5984 39.6729 13.5984 39.6705 13.5984C39.6682 13.5984 39.6658 13.5984 39.6634 13.5984C39.6611 13.5984 39.6587 13.5984 39.6564 13.5984C39.654 13.5984 39.6516 13.5984 39.6493 13.5984C39.6469 13.5984 39.6446 13.5984 39.6422 13.5984C39.6398 13.5984 39.6375 13.5984 39.6351 13.5984C39.6327 13.5984 39.6304 13.5984 39.628 13.5984C39.6257 13.5984 39.6233 13.5984 39.6209 13.5984C39.6186 13.5984 39.6162 13.5984 39.6138 13.5984C39.6115 13.5984 39.6091 13.5984 39.6068 13.5984C39.6044 13.5984 39.602 13.5984 39.5997 13.5984C39.5973 13.5984 39.5949 13.5984 39.5926 13.5984C39.5902 13.5984 39.5879 13.5984 39.5855 13.5984C39.5831 13.5984 39.5808 13.5984 39.5784 13.5984C39.576 13.5984 39.5737 13.5984 39.5713 13.5984C39.569 13.5984 39.5666 13.5984 39.5642 13.5984C39.5619 13.5984 39.5595 13.5984 39.5571 13.5984C39.5548 13.5984 39.5524 13.5984 39.5501 13.5984C39.5477 13.5984 39.5453 13.5984 39.543 13.5984C39.5406 13.5984 39.5382 13.5984 39.5359 13.5984C39.5335 13.5984 39.5312 13.5984 39.5288 13.5984C39.5264 13.5984 39.5241 13.5984 39.5217 13.5984C39.5194 13.5984 39.517 13.5984 39.5146 13.5984C39.5123 13.5984 39.5099 13.5984 39.5075 13.5984C39.5052 13.5984 39.5028 13.5984 39.5005 13.5984C39.4981 13.5984 39.4957 13.5984 39.4934 13.5984C39.491 13.5984 39.4886 13.5984 39.4863 13.5984C39.4839 13.5984 39.4816 13.5984 39.4792 13.5984C39.4768 13.5984 39.4745 13.5984 39.4721 13.5984C39.4698 13.5984 39.4674 13.5984 39.465 13.5984C39.4627 13.5984 39.4603 13.5984 39.4579 13.5984C39.4556 13.5984 39.4532 13.5984 39.4509 13.5984C39.4485 13.5984 39.4461 13.5984 39.4438 13.5984C39.4414 13.5984 39.439 13.5984 39.4367 13.5984C39.4343 13.5984 39.432 13.5984 39.4296 13.5984C39.4272 13.5984 39.4249 13.5984 39.4225 13.5984C39.4202 13.5984 39.4178 13.5984 39.4154 13.5984C39.4131 13.5984 39.4107 13.5984 39.4083 13.5984C39.406 13.5984 39.4036 13.5984 39.4013 13.5984C39.3989 13.5984 39.3965 13.5984 39.3942 13.5984C39.3918 13.5984 39.3895 13.5984 39.3871 13.5984C39.3847 13.5984 39.3824 13.5984 39.38 13.5984C39.3776 13.5984 39.3753 13.5984 39.3729 13.5984C39.3706 13.5984 39.3682 13.5984 39.3658 13.5984C39.3635 13.5984 39.3611 13.5984 39.3587 13.5984C39.3564 13.5984 39.354 13.5984 39.3517 13.5984C39.3493 13.5984 39.3469 13.5984 39.3446 13.5984C39.3422 13.5984 39.3399 13.5984 39.3375 13.5984C39.3351 13.5984 39.3328 13.5984 39.3304 13.5984C39.328 13.5984 39.3257 13.5984 39.3233 13.5984C39.321 13.5984 39.3186 13.5984 39.3162 13.5984C39.3139 13.5984 39.3115 13.5984 39.3092 13.5984C39.3068 13.5984 39.3044 13.5984 39.3021 13.5984C39.2997 13.5984 39.2973 13.5984 39.295 13.5984C39.2926 13.5984 39.2903 13.5984 39.2879 13.5984C39.2855 13.5984 39.2832 13.5984 39.2808 13.5984C39.2785 13.5984 39.2761 13.5984 39.2737 13.5984C39.2714 13.5984 39.269 13.5984 39.2666 13.5984C39.2643 13.5984 39.2619 13.5984 39.2596 13.5984C39.2572 13.5984 39.2548 13.5984 39.2525 13.5984C39.2501 13.5984 39.2477 13.5984 39.2454 13.5984C39.243 13.5984 39.2407 13.5984 39.2383 13.5984C39.2359 13.5984 39.2336 13.5984 39.2312 13.5984C39.2289 13.5984 39.2265 13.5984 39.2241 13.5984C39.2218 13.5984 39.2194 13.5984 39.217 13.5984C39.2147 13.5984 39.2123 13.5984 39.21 13.5984C39.2076 13.5984 39.2052 13.5984 39.2029 13.5984C39.2005 13.5984 39.1982 13.5984 39.1958 13.5984C39.1934 13.5984 39.1911 13.5984 39.1887 13.5984C39.1863 13.5984 39.184 13.5984 39.1816 13.5984C39.1793 13.5984 39.1769 13.5984 39.1745 13.5984C39.1722 13.5984 39.1698 13.5984 39.1675 13.5984C39.1651 13.5984 39.1627 13.5984 39.1604 13.5984C39.158 13.5984 39.1556 13.5984 39.1533 13.5984C39.1509 13.5984 39.1486 13.5984 39.1462 13.5984C39.1438 13.5984 39.1415 13.5984 39.1391 13.5984C39.1368 13.5984 39.1344 13.5984 39.132 13.5984C39.1297 13.5984 39.1273 13.5984 39.125 13.5984C39.1226 13.5984 39.1202 13.5984 39.1179 13.5984C39.1155 13.5984 39.1131 13.5984 39.1108 13.5984C39.1084 13.5984 39.1061 13.5984 39.1037 13.5984C39.1013 13.5984 39.099 13.5984 39.0966 13.5984C39.0942 13.5984 39.0919 13.5984 39.0895 13.5984C39.0872 13.5984 39.0848 13.5984 39.0824 13.5984C39.0801 13.5984 39.0777 13.5984 39.0754 13.5984C39.073 13.5984 39.0706 13.5984 39.0683 13.5984C39.0659 13.5984 39.0636 13.5984 39.0612 13.5984C39.0588 13.5984 39.0565 13.5984 39.0541 13.5984C39.0517 13.5984 39.0494 13.5984 39.047 13.5984C39.0447 13.5984 39.0423 13.5984 39.0399 13.5984C39.0376 13.5984 39.0352 13.5984 39.0329 13.5984C39.0305 13.5984 39.0281 13.5984 39.0258 13.5984C39.0234 13.5984 39.021 13.5984 39.0187 13.5984C39.0163 13.5984 39.014 13.5984 39.0116 13.5984C39.0092 13.5984 39.0069 13.5984 39.0045 13.5984C39.0022 13.5984 38.9998 13.5984 38.9974 13.5984C38.9951 13.5984 38.9927 13.5984 38.9903 13.5984C38.988 13.5984 38.9856 13.5984 38.9833 13.5984C38.9809 13.5984 38.9785 13.5984 38.9762 13.5984C38.9738 13.5984 38.9715 13.5984 38.9691 13.5984C38.9667 13.5984 38.9644 13.5984 38.962 13.5984C38.9596 13.5984 38.9573 13.5984 38.9549 13.5984C38.9526 13.5984 38.9502 13.5984 38.9478 13.5984C38.9455 13.5984 38.9431 13.5984 38.9408 13.5984C38.9384 13.5984 38.936 13.5984 38.9337 13.5984C38.9313 13.5984 38.929 13.5984 38.9266 13.5984C38.9242 13.5984 38.9219 13.5984 38.9195 13.5984C38.9171 13.5984 38.9148 13.5984 38.9124 13.5984C38.9101 13.5984 38.9077 13.5984 38.9053 13.5984C38.903 13.5984 38.9006 13.5984 38.8983 13.5984C38.8959 13.5984 38.8935 13.5984 38.8912 13.5984C38.8888 13.5984 38.8864 13.5984 38.8841 13.5984C38.8817 13.5984 38.8794 13.5984 38.877 13.5984C38.8746 13.5984 38.8723 13.5984 38.8699 13.5984C38.8676 13.5984 38.8652 13.5984 38.8628 13.5984C38.8605 13.5984 38.8581 13.5984 38.8557 13.5984C38.8534 13.5984 38.851 13.5984 38.8487 13.5984C38.8463 13.5984 38.8439 13.5984 38.8416 13.5984C38.8392 13.5984 38.8369 13.5984 38.8345 13.5984C38.8321 13.5984 38.8298 13.5984 38.8274 13.5984C38.825 13.5984 38.8227 13.5984 38.8203 13.5984C38.818 13.5984 38.8156 13.5984 38.8132 13.5984C38.8109 13.5984 38.8085 13.5984 38.8062 13.5984C38.8038 13.5984 38.8014 13.5984 38.7991 13.5984C38.7967 13.5984 38.7943 13.5984 38.792 13.5984C38.7896 13.5984 38.7873 13.5984 38.7849 13.5984C38.7825 13.5984 38.7802 13.5984 38.7778 13.5984C38.7755 13.5984 38.7731 13.5984 38.7707 13.5984C38.7684 13.5984 38.766 13.5984 38.7636 13.5984C38.7613 13.5984 38.7589 13.5984 38.7566 13.5984C38.7542 13.5984 38.7518 13.5984 38.7495 13.5984C38.7471 13.5984 38.7448 13.5984 38.7424 13.5984C38.74 13.5984 38.7377 13.5984 38.7353 13.5984C38.7329 13.5984 38.7306 13.5984 38.7282 13.5984C38.7259 13.5984 38.7235 13.5984 38.7211 13.5984C38.7188 13.5984 38.7164 13.5984 38.7141 13.5984C38.7117 13.5984 38.7093 13.5984 38.707 13.5984C38.7046 13.5984 38.7022 13.5984 38.6999 13.5984C38.6975 13.5984 38.6952 13.5984 38.6928 13.5984C38.6904 13.5984 38.6881 13.5984 38.6857 13.5984C38.6834 13.5984 38.681 13.5984 38.6786 13.5984C38.6763 13.5984 38.6739 13.5984 38.6715 13.5984C38.6692 13.5984 38.6668 13.5984 38.6645 13.5984C38.6621 13.5984 38.6597 13.5984 38.6574 13.5984C38.655 13.5984 38.6527 13.5984 38.6503 13.5984C38.6479 13.5984 38.6456 13.5984 38.6432 13.5984C38.6408 13.5984 38.6385 13.5984 38.6361 13.5984C38.6338 13.5984 38.6314 13.5984 38.629 13.5984C38.6267 13.5984 38.6243 13.5984 38.622 13.5984C38.6196 13.5984 38.6172 13.5984 38.6149 13.5984C38.6125 13.5984 38.6101 13.5984 38.6078 13.5984C38.6054 13.5984 38.6031 13.5984 38.6007 13.5984C38.5983 13.5984 38.596 13.5984 38.5936 13.5984C38.5913 13.5984 38.5889 13.5984 38.5865 13.5984C38.5842 13.5984 38.5818 13.5984 38.5794 13.5984C38.5771 13.5984 38.5747 13.5984 38.5724 13.5984C38.57 13.5984 38.5676 13.5984 38.5653 13.5984C38.5629 13.5984 38.5606 13.5984 38.5582 13.5984C38.5558 13.5984 38.5535 13.5984 38.5511 13.5984C38.5487 13.5984 38.5464 13.5984 38.544 13.5984C38.5417 13.5984 38.5393 13.5984 38.5369 13.5984C38.5346 13.5984 38.5322 13.5984 38.5298 13.5984C38.5275 13.5984 38.5251 13.5984 38.5228 13.5984C38.5204 13.5984 38.518 13.5984 38.5157 13.5984C38.5133 13.5984 38.511 13.5984 38.5086 13.5984C38.5062 13.5984 38.5039 13.5984 38.5015 13.5984C38.4991 13.5984 38.4968 13.5984 38.4944 13.5984C38.4921 13.5984 38.4897 13.5984 38.4873 13.5984C38.485 13.5984 38.4826 13.5984 38.4802 13.5984C38.4779 13.5984 38.4755 13.5984 38.4732 13.5984C38.4708 13.5984 38.4684 13.5984 38.4661 13.5984C38.4637 13.5984 38.4614 13.5984 38.459 13.5984C38.4566 13.5984 38.4543 13.5984 38.4519 13.5984C38.4495 13.5984 38.4472 13.5984 38.4448 13.5984C38.4425 13.5984 38.4401 13.5984 38.4377 13.5984C38.4354 13.5984 38.433 13.5984 38.4306 13.5984C38.4283 13.5984 38.4259 13.5984 38.4236 13.5984C38.4212 13.5984 38.4188 13.5984 38.4165 13.5984C38.4141 13.5984 38.4118 13.5984 38.4094 13.5984C38.407 13.5984 38.4047 13.5984 38.4023 13.5984C38.3999 13.5984 38.3976 13.5984 38.3952 13.5984C38.3929 13.5984 38.3905 13.5984 38.3881 13.5984C38.3858 13.5984 38.3834 13.5984 38.381 13.5984C38.3787 13.5984 38.3763 13.5984 38.374 13.5984C38.3716 13.5984 38.3692 13.5984 38.3669 13.5984C38.3645 13.5984 38.3621 13.5984 38.3598 13.5984C38.3574 13.5984 38.3551 13.5984 38.3527 13.5984C38.3503 13.5984 38.348 13.5984 38.3456 13.5984C38.3433 13.5984 38.3409 13.5984 38.3385 13.5984C38.3362 13.5984 38.3338 13.5984 38.3314 13.5984C38.3291 13.5984 38.3267 13.5984 38.3244 13.5984C38.322 13.5984 38.3196 13.5984 38.3173 13.5984C38.3149 13.5984 38.3125 13.5984 38.3102 13.5984C38.3078 13.5984 38.3055 13.5984 38.3031 13.5984C38.3007 13.5984 38.2984 13.5984 38.296 13.5984C38.2936 13.5984 38.2913 13.5984 38.2889 13.5984C38.2866 13.5984 38.2842 13.5984 38.2818 13.5984C38.2795 13.5984 38.2771 13.5984 38.2747 13.5984C38.2724 13.5984 38.27 13.5984 38.2677 13.5984C38.2653 13.5984 38.2629 13.5984 38.2606 13.5984C38.2582 13.5984 38.2558 13.5984 38.2535 13.5984C38.2511 13.5984 38.2488 13.5984 38.2464 13.5984C38.244 13.5984 38.2417 13.5984 38.2393 13.5984C38.2369 13.5984 38.2346 13.5984 38.2322 13.5984C38.2299 13.5984 38.2275 13.5984 38.2251 13.5984C38.2228 13.5984 38.2204 13.5984 38.218 13.5984C38.2157 13.5984 38.2133 13.5984 38.211 13.5984C38.2086 13.5984 38.2062 13.5984 38.2039 13.5984C38.2015 13.5984 38.1991 13.5984 38.1968 13.5984C38.1944 13.5984 38.1921 13.5984 38.1897 13.5984C38.1873 13.5984 38.185 13.5984 38.1826 13.5984C38.1802 13.5984 38.1779 13.5984 38.1755 13.5984C38.1732 13.5984 38.1708 13.5984 38.1684 13.5984C38.1661 13.5984 38.1637 13.5984 38.1613 13.5984C38.159 13.5984 38.1566 13.5984 38.1543 13.5984C38.1519 13.5984 38.1495 13.5984 38.1472 13.5984C38.1448 13.5984 38.1424 13.5984 38.1401 13.5984C38.1377 13.5984 38.1354 13.5984 38.133 13.5984C38.1306 13.5984 38.1283 13.5984 38.1259 13.5984C38.1235 13.5984 38.1212 13.5984 38.1188 13.5984C38.1165 13.5984 38.1141 13.5984 38.1117 13.5984C38.1094 13.5984 38.107 13.5984 38.1046 13.5984C38.1023 13.5984 38.0999 13.5984 38.0975 13.5984C38.0952 13.5984 38.0928 13.5984 38.0905 13.5984C38.0881 13.5984 38.0857 13.5984 38.0834 13.5984C38.081 13.5984 38.0786 13.5984 38.0763 13.5984C38.0739 13.5984 38.0716 13.5984 38.0692 13.5984C38.0668 13.5984 38.0645 13.5984 38.0621 13.5984C38.0597 13.5984 38.0574 13.5984 38.055 13.5984C38.0527 13.5984 38.0503 13.5984 38.0479 13.5984C38.0456 13.5984 38.0432 13.5984 38.0408 13.5984C38.0385 13.5984 38.0361 13.5984 38.0337 13.5984C38.0314 13.5984 38.029 13.5984 38.0267 13.5984C38.0243 13.5984 38.0219 13.5984 38.0196 13.5984C38.0172 13.5984 38.0148 13.5984 38.0125 13.5984C38.0101 13.5984 38.0078 13.5984 38.0054 13.5984C38.003 13.5984 38.0007 13.5984 37.9983 13.5984C37.9959 13.5984 37.9936 13.5984 37.9912 13.5984C37.9888 13.5984 37.9865 13.5984 37.9841 13.5984C37.9818 13.5984 37.9794 13.5984 37.977 13.5984C37.9747 13.5984 37.9723 13.5984 37.9699 13.5984C37.9676 13.5984 37.9652 13.5984 37.9629 13.5984C37.9605 13.5984 37.9581 13.5984 37.9558 13.5984C37.9534 13.5984 37.951 13.5984 37.9487 13.5984C37.9463 13.5984 37.9439 13.5984 37.9416 13.5984C37.9392 13.5984 37.9369 13.5984 37.9345 13.5984C37.9321 13.5984 37.9298 13.5984 37.9274 13.5984C37.925 13.5984 37.9227 13.5984 37.9203 13.5984C37.9179 13.5984 37.9156 13.5984 37.9132 13.5984C37.9109 13.5984 37.9085 13.5984 37.9061 13.5984C37.9038 13.5984 37.9014 13.5984 37.899 13.5984C37.8967 13.5984 37.8943 13.5984 37.8919 13.5984C37.8896 13.5984 37.8872 13.5984 37.8849 13.5984C37.8825 13.5984 37.8801 13.5984 37.8778 13.5984C37.8754 13.5984 37.873 13.5984 37.8707 13.5984C37.8683 13.5984 37.8659 13.5984 37.8636 13.5984C37.8612 13.5984 37.8589 13.5984 37.8565 13.5984C37.8541 13.5984 37.8518 13.5984 37.8494 13.5984C37.847 13.5984 37.8447 13.5984 37.8423 13.5984C37.8399 13.5984 37.8376 13.5984 37.8352 13.5984C37.8329 13.5984 37.8305 13.5984 37.8281 13.5984C37.8258 13.5984 37.8234 13.5984 37.821 13.5984C37.8187 13.5984 37.8163 13.5984 37.8139 13.5984C37.8116 13.5984 37.8092 13.5984 37.8068 13.5984C37.8045 13.5984 37.8021 13.5984 37.7998 13.5984C37.7974 13.5984 37.795 13.5984 37.7927 13.5984C37.7903 13.5984 37.7879 13.5984 37.7856 13.5984C37.7832 13.5984 37.7808 13.5984 37.7785 13.5984C37.7761 13.5984 37.7738 13.5984 37.7714 13.5984C37.769 13.5984 37.7667 13.5984 37.7643 13.5984C37.7619 13.5984 37.7596 13.5984 37.7572 13.5984C37.7548 13.5984 37.7525 13.5984 37.7501 13.5984C37.7477 13.5984 37.7454 13.5984 37.743 13.5984C37.7407 13.5984 37.7383 13.5984 37.7359 13.5984C37.7336 13.5984 37.7312 13.5984 37.7288 13.5984C37.7265 13.5984 37.7241 13.5984 37.7217 13.5984C37.7194 13.5984 37.717 13.5984 37.7146 13.5984C37.7123 13.5984 37.7099 13.5984 37.7075 13.5984C37.7052 13.5984 37.7028 13.5984 37.7005 13.5984C37.6981 13.5984 37.6957 13.5984 37.6934 13.5984C37.691 13.5984 37.6886 13.5984 37.6863 13.5984C37.6839 13.5984 37.6815 13.5984 37.6792 13.5984C37.6768 13.5984 37.6744 13.5984 37.6721 13.5984C37.6697 13.5984 37.6673 13.5984 37.665 13.5984C37.6626 13.5984 37.6603 13.5984 37.6579 13.5984C37.6555 13.5984 37.6532 13.5984 37.6508 13.5984C37.6484 13.5984 37.6461 13.5984 37.6437 13.5984C37.6413 13.5984 37.639 13.5984 37.6366 13.5984C37.6342 13.5984 37.6319 13.5984 37.6295 13.5984C37.6271 13.5984 37.6248 13.5984 37.6224 13.5984C37.6201 13.5984 37.6177 13.5984 37.6153 13.5984C37.613 13.5984 37.6106 13.5984 37.6082 13.5984C37.6059 13.5984 37.6035 13.5984 37.6011 13.5984C37.5988 13.5984 37.5964 13.5984 37.594 13.5984C37.5917 13.5984 37.5893 13.5984 37.5869 13.5984C37.5846 13.5984 37.5822 13.5984 37.5798 13.5984C37.5775 13.5984 37.5751 13.5984 37.5728 13.5984C37.5704 13.5984 37.568 13.5984 37.5657 13.5984C37.5633 13.5984 37.5609 13.5984 37.5586 13.5984C37.5562 13.5984 37.5538 13.5984 37.5515 13.5984C37.5491 13.5984 37.5467 13.5984 37.5444 13.5984C37.542 13.5984 37.5396 13.5984 37.5373 13.5984C37.5349 13.5984 37.5325 13.5984 37.5302 13.5984C37.5278 13.5984 37.5254 13.5984 37.5231 13.5984C37.5207 13.5984 37.5183 13.5984 37.516 13.5984C37.5136 13.5984 37.5112 13.5984 37.5089 13.5984C37.5065 13.5984 37.5042 13.5984 37.5018 13.5984C37.4994 13.5984 37.4971 13.5984 37.4947 13.5984C37.4923 13.5984 37.49 13.5984 37.4876 13.5984C37.4852 13.5984 37.4829 13.5984 37.4805 13.5984C37.4781 13.5984 37.4758 13.5984 37.4734 13.5984C37.471 13.5984 37.4687 13.5984 37.4663 13.5984C37.4639 13.5984 37.4616 13.5984 37.4592 13.5984C37.4568 13.5984 37.4545 13.5984 37.4521 13.5984C37.4497 13.5984 37.4474 13.5984 37.445 13.5984C37.4426 13.5984 37.4403 13.5984 37.4379 13.5984C37.4355 13.5984 37.4332 13.5984 37.4308 13.5984C37.4284 13.5984 37.4261 13.5984 37.4237 13.5984C37.4213 13.5984 37.419 13.5984 37.4166 13.5984C37.4142 13.5984 37.4119 13.5984 37.4095 13.5984C37.4072 13.5984 37.4048 13.5984 37.4024 13.5984C37.4001 13.5984 37.3977 13.5984 37.3953 13.5984C37.393 13.5984 37.3906 13.5984 37.3882 13.5984C37.3859 13.5984 37.3835 13.5984 37.3811 13.5984C37.3788 13.5984 37.3764 13.5984 37.374 13.5984C37.3717 13.5984 37.3693 13.5984 37.3669 13.5984C37.3646 13.5984 37.3622 13.5984 37.3598 13.5984C37.3575 13.5984 37.3551 13.5984 37.3527 13.5984C37.3504 13.5984 37.348 13.5984 37.3456 13.5984C37.3433 13.5984 37.3409 13.5984 37.3385 13.5984C37.3362 13.5984 37.3338 13.5984 37.3314 13.5984C37.3291 13.5984 37.3267 13.5984 37.3243 13.5984C37.322 13.5984 37.3196 13.5984 37.3172 13.5984C37.3149 13.5984 37.3125 13.5984 37.3101 13.5984C37.3078 13.5984 37.3054 13.5984 37.303 13.5984C37.3007 13.5984 37.2983 13.5984 37.2959 13.5984C37.2936 13.5984 37.2912 13.5984 37.2888 13.5984C37.2865 13.5984 37.2841 13.5984 37.2817 13.5984C37.2794 13.5984 37.277 13.5984 37.2746 13.5984C37.2723 13.5984 37.2699 13.5984 37.2675 13.5984C37.2652 13.5984 37.2628 13.5984 37.2604 13.5984C37.2581 13.5984 37.2557 13.5984 37.2533 13.5984C37.251 13.5984 37.2486 13.5984 37.2462 13.5984C37.2439 13.5984 37.2415 13.5984 37.2391 13.5984C37.2368 13.5984 37.2344 13.5984 37.232 13.5984C37.2296 13.5984 37.2273 13.5984 37.2249 13.5984C37.2225 13.5984 37.2202 13.5984 37.2178 13.5984C37.2154 13.5984 37.2131 13.5984 37.2107 13.5984C37.2083 13.5984 37.206 13.5984 37.2036 13.5984C37.2012 13.5984 37.1989 13.5984 37.1965 13.5984C37.1941 13.5984 37.1918 13.5984 37.1894 13.5984C37.187 13.5984 37.1847 13.5984 37.1823 13.5984C37.1799 13.5984 37.1776 13.5984 37.1752 13.5984C37.1728 13.5984 37.1705 13.5984 37.1681 13.5984C37.1657 13.5984 37.1634 13.5984 37.161 13.5984C37.1586 13.5984 37.1563 13.5984 37.1539 13.5984C37.1515 13.5984 37.1492 13.5984 37.1468 13.5984V15.5984ZM39.8433 14.2408C39.4457 15.2795 38.7235 16.1623 37.7843 16.7579L38.8553 18.4469C40.1581 17.6209 41.1596 16.3965 41.7111 14.9559L39.8433 14.2408ZM37.8163 16.7384C36.7928 17.3348 35.6031 17.5821 34.4266 17.4429L34.1917 19.429C35.7991 19.6192 37.4247 19.2813 38.8232 18.4664L37.8163 16.7384ZM34.3808 17.4385C33.2828 17.3597 32.2362 16.9426 31.3848 16.2445L30.1167 17.7911C31.2877 18.7512 32.7272 19.3249 34.2375 19.4334L34.3808 17.4385ZM31.4166 16.2717C30.5955 15.539 30.0603 14.5392 29.906 13.4496L27.9257 13.7301C28.1464 15.2876 28.9113 16.7166 30.085 17.764L31.4166 16.2717Z" fill="#FC4B55" mask="url(#path-1-outside-1_99_213)"/>
</svg>
