<svg width="34" height="34" viewBox="0 0 34 34" fill="none" xmlns="http://www.w3.org/2000/svg">
<path d="M16.205 17.8926C16.4189 18.0355 16.6703 18.1119 16.9275 18.112C17.2727 18.1116 17.6037 17.9743 17.8478 17.7302C18.0919 17.4861 18.2291 17.1552 18.2295 16.81L16.205 17.8926ZM16.205 17.8926C15.991 17.7496 15.8241 17.5464 15.7256 17.3085M16.205 17.8926L15.7256 17.3085M15.7256 17.3085C15.6271 17.0707 15.6014 16.809 15.6516 16.5566M15.7256 17.3085L15.6516 16.5566M15.6516 16.5566C15.7018 16.3041 15.8257 16.0722 16.0077 15.8902M15.6516 16.5566L16.0077 15.8902M16.0077 15.8902C16.1898 15.7082 16.4217 15.5842 16.6741 15.534M16.0077 15.8902L16.6741 15.534M16.6741 15.534C16.9266 15.4838 17.1883 15.5096 17.4261 15.6081M16.6741 15.534L17.4261 15.6081M17.4261 15.6081C17.6639 15.7066 17.8672 15.8734 18.0102 16.0874M17.4261 15.6081L18.0102 16.0874M18.0102 16.0874C18.1531 16.3013 18.2294 16.5527 18.2295 16.8099L18.0102 16.0874ZM16.9286 0.582642H16.9281C13.7185 0.582642 10.581 1.53439 7.91235 3.31753C5.2437 5.10067 3.16374 7.63511 1.9355 10.6004C0.707249 13.5656 0.385874 16.8285 1.01203 19.9764C1.63818 23.1243 3.18374 26.0158 5.45325 28.2853C7.72275 30.5548 10.6143 32.1003 13.7622 32.7265C16.9101 33.3526 20.1729 33.0313 23.1382 31.803C26.1034 30.5748 28.6379 28.4948 30.421 25.8262C32.2041 23.1575 33.1559 20.02 33.1559 16.8105V16.8099C33.151 12.5077 31.4398 8.38301 28.3977 5.34085C25.3555 2.2987 21.2309 0.587474 16.9286 0.582642ZM16.9286 6.24271H16.928C14.8379 6.24285 12.7948 6.86274 11.0571 8.02403C9.3193 9.18531 7.9649 10.8358 7.16516 12.7668C6.36541 14.6979 6.15623 16.8227 6.56407 18.8726C6.9719 20.9225 7.97843 22.8054 9.45639 24.2833C10.9344 25.7611 12.8173 26.7675 14.8673 27.1752C16.9172 27.5829 19.042 27.3736 20.973 26.5738C22.904 25.7739 24.5544 24.4194 25.7155 22.6815C26.8767 20.9437 27.4965 18.9006 27.4965 16.8105V16.8099C27.4932 14.0082 26.3787 11.3222 24.3976 9.34112C22.4164 7.36007 19.7303 6.24581 16.9286 6.24271ZM20.569 16.81V16.8094C20.5689 16.6801 20.5619 16.5511 20.5481 16.4227C22.2179 15.5343 23.8824 14.6758 24.7419 14.235C25.3019 15.9284 25.2949 17.7589 24.7219 19.4478C23.8659 19.0003 22.2079 18.1287 20.5448 17.2265C20.5609 17.0884 20.569 16.9493 20.569 16.81ZM16.9275 28.5559C14.6046 28.5558 12.334 27.867 10.4026 26.5765C8.47112 25.2859 6.96567 23.4515 6.07669 21.3053C5.18771 19.1591 4.9551 16.7975 5.4083 14.5191C5.8615 12.2407 6.98016 10.1478 8.62279 8.50519C10.2654 6.86257 12.3582 5.74392 14.6366 5.29072C16.915 4.83752 19.2766 5.07013 21.4228 5.95912C23.569 6.8481 25.4034 8.35352 26.694 10.285C27.9845 12.2164 28.6734 14.4871 28.6735 16.8099C28.6698 19.924 27.4311 22.9095 25.2291 25.1115C23.0271 27.3135 20.0416 28.5522 16.9275 28.5559ZM18.3835 13.474C18.4383 11.5838 18.5168 9.71308 18.5594 8.74747C19.4414 8.92645 20.2892 9.24915 21.0687 9.7038C21.8449 10.1566 22.5407 10.7328 23.1291 11.4087C22.2591 11.9308 20.573 12.9435 19.0564 13.8586C18.8464 13.7068 18.6208 13.5779 18.3835 13.474ZM14.7635 13.8851C13.1544 12.8941 11.5743 11.8921 10.7589 11.3723C11.947 10.0246 13.5444 9.10258 15.3054 8.74773C15.3282 9.76123 15.3728 11.7294 15.4152 13.5008C15.1852 13.6059 14.9668 13.7347 14.7635 13.8851ZM13.3043 17.1254C11.7406 17.9604 10.0056 18.8909 9.11254 19.3703C8.55803 17.685 8.56503 15.8646 9.13247 14.1836C10.0215 14.6703 11.7493 15.6146 13.3068 16.4619C13.2857 16.6825 13.2849 16.9046 13.3043 17.1254ZM15.4105 20.1152C15.361 21.8872 15.3111 23.8556 15.2855 24.8687C14.4073 24.6894 13.563 24.3675 12.7865 23.9149C12.0065 23.4602 11.3078 22.8809 10.7174 22.2012C11.5362 21.6883 13.1265 20.6975 14.7454 19.7179C14.9523 19.8736 15.1753 20.0068 15.4105 20.1152ZM19.0329 19.7763C20.5435 20.703 22.2203 21.7292 23.0856 22.2585C21.8959 23.6033 20.2982 24.5227 18.5374 24.8754C18.4973 23.9098 18.424 22.039 18.3741 20.1484C18.606 20.0476 18.8268 19.9229 19.0329 19.7763Z" stroke="#fff"/>
</svg>
